solid OpenSCAD_Model
  facet normal 0 0 -1
    outer loop
      vertex -19 0 16.99
      vertex -19 5 16.99
      vertex -17 0 16.99
    endloop
  endfacet
  facet normal 0 0 -1
    outer loop
      vertex -21 7 16.99
      vertex -19 5 16.99
      vertex -19 0 16.99
    endloop
  endfacet
  facet normal 0 0 -1
    outer loop
      vertex -19 5 16.99
      vertex -21 7 16.99
      vertex -19 12 16.99
    endloop
  endfacet
  facet normal 0 0 -1
    outer loop
      vertex -17 10 16.99
      vertex -19 12 16.99
      vertex 0 17 16.99
    endloop
  endfacet
  facet normal 0 0 -1
    outer loop
      vertex -19 12 16.99
      vertex -17 10 16.99
      vertex -19 5 16.99
    endloop
  endfacet
  facet normal 0 0 1
    outer loop
      vertex -5.40833 12.1513 64.01
      vertex 0 17 64.01
      vertex -3.33162 16.1233 64.01
    endloop
  endfacet
  facet normal 0 0 1
    outer loop
      vertex 0 17 64.01
      vertex -5.40833 12.1513 64.01
      vertex -5 8.5 64.01
    endloop
  endfacet
  facet normal -0 0 1
    outer loop
      vertex -5.49269 11.99 64.01
      vertex -5 8.5 64.01
      vertex -5.40833 12.1513 64.01
    endloop
  endfacet
  facet normal -0 0 1
    outer loop
      vertex -5.52792 0.107929 64.01
      vertex 0 0 64.01
      vertex -5 8.5 64.01
    endloop
  endfacet
  facet normal 0 0 1
    outer loop
      vertex -7.524 7.13359 64.01
      vertex -5 8.5 64.01
      vertex -5.49269 11.99 64.01
    endloop
  endfacet
  facet normal 0 0 1
    outer loop
      vertex 0 0 64.01
      vertex -5.52792 0.107929 64.01
      vertex -5.49567 0 64.01
    endloop
  endfacet
  facet normal 0 0 1
    outer loop
      vertex -7.58407 6.98999 64.01
      vertex -5 8.5 64.01
      vertex -7.524 7.13359 64.01
    endloop
  endfacet
  facet normal 0 0 1
    outer loop
      vertex -5 8.5 64.01
      vertex -7.58407 6.98999 64.01
      vertex -5.52792 0.107929 64.01
    endloop
  endfacet
  facet normal 0.330847 0.943684 -0
    outer loop
      vertex 20.25 1.42999 -1.49
      vertex 16 2.92 77.49
      vertex 20.25 1.42999 77.49
    endloop
  endfacet
  facet normal 0.330847 0.943684 0
    outer loop
      vertex 16 2.92 77.49
      vertex 20.25 1.42999 -1.49
      vertex 16 2.92 -1.49
    endloop
  endfacet
  facet normal 0.381987 0.924168 -0
    outer loop
      vertex 16 2.92 -1.49
      vertex 12.25 4.46999 77.49
      vertex 16 2.92 77.49
    endloop
  endfacet
  facet normal 0.381987 0.924168 0
    outer loop
      vertex 12.25 4.46999 77.49
      vertex 16 2.92 -1.49
      vertex 12.25 4.46999 -1.49
    endloop
  endfacet
  facet normal 0.443902 0.896075 -0
    outer loop
      vertex 12.25 4.46999 -1.49
      vertex 9 6.07999 77.49
      vertex 12.25 4.46999 77.49
    endloop
  endfacet
  facet normal 0.443902 0.896075 0
    outer loop
      vertex 9 6.07999 77.49
      vertex 12.25 4.46999 -1.49
      vertex 9 6.07999 -1.49
    endloop
  endfacet
  facet normal 0.519062 0.854737 -0
    outer loop
      vertex 9 6.07999 -1.49
      vertex 6.25 7.75 77.49
      vertex 9 6.07999 77.49
    endloop
  endfacet
  facet normal 0.519062 0.854737 0
    outer loop
      vertex 6.25 7.75 77.49
      vertex 9 6.07999 -1.49
      vertex 6.25 7.75 -1.49
    endloop
  endfacet
  facet normal 0.60954 0.792755 -0
    outer loop
      vertex 6.25 7.75 -1.49
      vertex 4 9.48 77.49
      vertex 6.25 7.75 77.49
    endloop
  endfacet
  facet normal 0.60954 0.792755 0
    outer loop
      vertex 4 9.48 77.49
      vertex 6.25 7.75 -1.49
      vertex 4 9.48 -1.49
    endloop
  endfacet
  facet normal 0.715051 0.699072 0
    outer loop
      vertex 4 9.48 77.49
      vertex 2.25 11.27 -1.49
      vertex 2.25 11.27 77.49
    endloop
  endfacet
  facet normal 0.715051 0.699072 0
    outer loop
      vertex 2.25 11.27 -1.49
      vertex 4 9.48 77.49
      vertex 4 9.48 -1.49
    endloop
  endfacet
  facet normal 0.828589 0.559857 0
    outer loop
      vertex 2.25 11.27 77.49
      vertex 1 13.12 -1.49
      vertex 1 13.12 77.49
    endloop
  endfacet
  facet normal 0.828589 0.559857 0
    outer loop
      vertex 1 13.12 -1.49
      vertex 2.25 11.27 77.49
      vertex 2.25 11.27 -1.49
    endloop
  endfacet
  facet normal 0.930811 0.365502 0
    outer loop
      vertex 1 13.12 77.49
      vertex 0.25 15.03 -1.49
      vertex 0.25 15.03 77.49
    endloop
  endfacet
  facet normal 0.930811 0.365502 0
    outer loop
      vertex 0.25 15.03 -1.49
      vertex 1 13.12 77.49
      vertex 1 13.12 -1.49
    endloop
  endfacet
  facet normal 0.992044 0.125894 0
    outer loop
      vertex 0.25 15.03 77.49
      vertex 0 17 75.99
      vertex 0 17 77.49
    endloop
  endfacet
  facet normal 0.992044 0.125894 0
    outer loop
      vertex 0 17 75.99
      vertex 0.25 15.03 77.49
      vertex 0 17 64.01
    endloop
  endfacet
  facet normal 0.992044 0.125894 0
    outer loop
      vertex 0 17 64.01
      vertex 0.25 15.03 77.49
      vertex 0 17 16.99
    endloop
  endfacet
  facet normal 0.992044 0.125894 -0
    outer loop
      vertex 0.25 15.03 -1.49
      vertex 0 17 16.99
      vertex 0.25 15.03 77.49
    endloop
  endfacet
  facet normal 0.992044 0.125894 0
    outer loop
      vertex 0 17 16.99
      vertex 0.25 15.03 -1.49
      vertex 0 17 0.00999928
    endloop
  endfacet
  facet normal 0.992044 0.125894 0
    outer loop
      vertex 0 17 0.00999928
      vertex 0.25 15.03 -1.49
      vertex 0 17 -1.49
    endloop
  endfacet
  facet normal -0.254482 0.967078 -8.55653e-06
    outer loop
      vertex 0 17 64.01
      vertex -8.03086 14.8866 50.7543
      vertex -3.33162 16.1233 64.01
    endloop
  endfacet
  facet normal -0.254495 0.967074 0
    outer loop
      vertex 0 17 16.99
      vertex -8.03086 14.8866 50.7543
      vertex 0 17 64.01
    endloop
  endfacet
  facet normal -0.254493 0.967075 4.68805e-07
    outer loop
      vertex -8.03086 14.8866 50.7543
      vertex 0 17 16.99
      vertex -19 12 19.8124
    endloop
  endfacet
  facet normal -0.254493 0.967075 0
    outer loop
      vertex -19 12 19.8124
      vertex 0 17 16.99
      vertex -19 12 16.99
    endloop
  endfacet
  facet normal -0.928534 0.371248 0
    outer loop
      vertex -19.0896 11.7759 19.8293
      vertex -19 12 19.8124
      vertex -19 12 16.99
    endloop
  endfacet
  facet normal -0.928547 0.371216 -0.00049535
    outer loop
      vertex -19 12 19.8124
      vertex -19.0896 11.7759 19.8293
      vertex -19.004 11.99 19.8165
    endloop
  endfacet
  facet normal -0.928477 0.371391 1.30804e-05
    outer loop
      vertex -21 7 16.99
      vertex -19.0896 11.7759 19.8293
      vertex -19 12 16.99
    endloop
  endfacet
  facet normal -0.928474 0.371397 0
    outer loop
      vertex -19.0896 11.7759 19.8293
      vertex -21 7 16.99
      vertex -21 7 20.1148
    endloop
  endfacet
  facet normal -0.961487 -0.274851 0
    outer loop
      vertex -20.9217 6.72609 20.1266
      vertex -21 7 20.1148
      vertex -21 7 16.99
    endloop
  endfacet
  facet normal -0.961504 -0.274785 0.00164185
    outer loop
      vertex -21 7 20.1148
      vertex -20.9217 6.72609 20.1266
      vertex -20.9971 6.98999 20.1378
    endloop
  endfacet
  facet normal -0.961524 -0.274721 1.2262e-05
    outer loop
      vertex -19 0 16.99
      vertex -20.9217 6.72609 20.1266
      vertex -21 7 16.99
    endloop
  endfacet
  facet normal -0.961525 -0.274716 0
    outer loop
      vertex -20.9217 6.72609 20.1266
      vertex -19 0 16.99
      vertex -19 0 19.8393
    endloop
  endfacet
  facet normal 0 -1 0
    outer loop
      vertex -19 0 0.00999928
      vertex -19 0 -1.49
      vertex -17 0 0.00999928
    endloop
  endfacet
  facet normal 0 -1 -0
    outer loop
      vertex -5.49567 0 64.01
      vertex -19 0 19.8393
      vertex 0 0 64.01
    endloop
  endfacet
  facet normal 0 -1 0
    outer loop
      vertex 0 0 75.99
      vertex 25 0 77.49
      vertex 0 0 77.49
    endloop
  endfacet
  facet normal 0 -1 0
    outer loop
      vertex 0 0 64.01
      vertex 25 0 77.49
      vertex 0 0 75.99
    endloop
  endfacet
  facet normal 0 -1 0
    outer loop
      vertex -17 0 16.99
      vertex 0 0 64.01
      vertex -19 0 19.8393
    endloop
  endfacet
  facet normal 0 -1 0
    outer loop
      vertex -17 0 16.99
      vertex -19 0 19.8393
      vertex -19 0 16.99
    endloop
  endfacet
  facet normal 0 -1 0
    outer loop
      vertex 25 0 -1.49
      vertex 0 0 64.01
      vertex -17 0 16.99
    endloop
  endfacet
  facet normal 0 -1 0
    outer loop
      vertex 25 0 -1.49
      vertex -17 0 16.99
      vertex -17 0 0.00999928
    endloop
  endfacet
  facet normal 0 -1 0
    outer loop
      vertex 0 0 64.01
      vertex 25 0 -1.49
      vertex 25 0 77.49
    endloop
  endfacet
  facet normal 0 -1 0
    outer loop
      vertex 25 0 -1.49
      vertex -17 0 0.00999928
      vertex -19 0 -1.49
    endloop
  endfacet
  facet normal 0.288271 0.957549 -0
    outer loop
      vertex 25 0 -1.49
      vertex 20.25 1.42999 77.49
      vertex 25 0 77.49
    endloop
  endfacet
  facet normal 0.288271 0.957549 0
    outer loop
      vertex 20.25 1.42999 77.49
      vertex 25 0 -1.49
      vertex 20.25 1.42999 -1.49
    endloop
  endfacet
  facet normal -0.887332 0.371288 0.273472
    outer loop
      vertex -20.9971 6.98999 20.1378
      vertex -19.0896 11.7759 19.8293
      vertex -21 7 20.1148
    endloop
  endfacet
  facet normal -0.887908 0.371388 0.27146
    outer loop
      vertex -19.0896 11.7759 19.8293
      vertex -20.9971 6.98999 20.1378
      vertex -7.524 7.13359 64.01
    endloop
  endfacet
  facet normal -0.887896 0.37142 0.271456
    outer loop
      vertex -7.524 7.13359 64.01
      vertex -20.9971 6.98999 20.1378
      vertex -7.58407 6.98999 64.01
    endloop
  endfacet
  facet normal -0.887961 0.371249 0.271477
    outer loop
      vertex -19.0896 11.7759 19.8293
      vertex -5.49269 11.99 64.01
      vertex -19.004 11.99 19.8165
    endloop
  endfacet
  facet normal -0.887908 0.371389 0.27146
    outer loop
      vertex -5.49269 11.99 64.01
      vertex -19.0896 11.7759 19.8293
      vertex -7.524 7.13359 64.01
    endloop
  endfacet
  facet normal -0.854598 0.448884 0.261085
    outer loop
      vertex -19.004 11.99 19.8165
      vertex -8.03086 14.8866 50.7543
      vertex -19 12 19.8124
    endloop
  endfacet
  facet normal -0.855342 0.44722 0.261504
    outer loop
      vertex -5.49269 11.99 64.01
      vertex -8.03086 14.8866 50.7543
      vertex -19.004 11.99 19.8165
    endloop
  endfacet
  facet normal -0.855288 0.447316 0.261515
    outer loop
      vertex -8.03086 14.8866 50.7543
      vertex -5.49269 11.99 64.01
      vertex -5.40833 12.1513 64.01
    endloop
  endfacet
  facet normal -0.855348 0.447208 0.261504
    outer loop
      vertex -3.33162 16.1233 64.01
      vertex -8.03086 14.8866 50.7543
      vertex -5.40833 12.1513 64.01
    endloop
  endfacet
  facet normal -0.91951 -0.27472 0.281122
    outer loop
      vertex -19 0 19.8393
      vertex -5.52792 0.107929 64.01
      vertex -20.9217 6.72609 20.1266
    endloop
  endfacet
  facet normal -0.919501 -0.274754 0.28112
    outer loop
      vertex -5.52792 0.107929 64.01
      vertex -19 0 19.8393
      vertex -5.49567 0 64.01
    endloop
  endfacet
  facet normal -0.919529 -0.274654 0.281127
    outer loop
      vertex -20.9217 6.72609 20.1266
      vertex -7.58407 6.98999 64.01
      vertex -20.9971 6.98999 20.1378
    endloop
  endfacet
  facet normal -0.91951 -0.274722 0.281122
    outer loop
      vertex -7.58407 6.98999 64.01
      vertex -20.9217 6.72609 20.1266
      vertex -5.52792 0.107929 64.01
    endloop
  endfacet
  facet normal 0 0 -1
    outer loop
      vertex -19 0 -1.49
      vertex 20.25 1.42999 -1.49
      vertex 25 0 -1.49
    endloop
  endfacet
  facet normal 0 0 -1
    outer loop
      vertex -19 0 -1.49
      vertex 16 2.92 -1.49
      vertex 20.25 1.42999 -1.49
    endloop
  endfacet
  facet normal 0 0 -1
    outer loop
      vertex -19 0 -1.49
      vertex 12.25 4.46999 -1.49
      vertex 16 2.92 -1.49
    endloop
  endfacet
  facet normal 0 0 -1
    outer loop
      vertex -19 0 -1.49
      vertex 9 6.07999 -1.49
      vertex 12.25 4.46999 -1.49
    endloop
  endfacet
  facet normal 0 0 -1
    outer loop
      vertex -19 0 -1.49
      vertex 6.25 7.75 -1.49
      vertex 9 6.07999 -1.49
    endloop
  endfacet
  facet normal 0 0 -1
    outer loop
      vertex -19 0 -1.49
      vertex 4 9.48 -1.49
      vertex 6.25 7.75 -1.49
    endloop
  endfacet
  facet normal 0 0 -1
    outer loop
      vertex -19 0 -1.49
      vertex 2.25 11.27 -1.49
      vertex 4 9.48 -1.49
    endloop
  endfacet
  facet normal 0 0 -1
    outer loop
      vertex -19 0 -1.49
      vertex 1 13.12 -1.49
      vertex 2.25 11.27 -1.49
    endloop
  endfacet
  facet normal 0 0 -1
    outer loop
      vertex -19 12 -1.49
      vertex 1 13.12 -1.49
      vertex -19 0 -1.49
    endloop
  endfacet
  facet normal -0 0 -1
    outer loop
      vertex 1 13.12 -1.49
      vertex -19 12 -1.49
      vertex 0.25 15.03 -1.49
    endloop
  endfacet
  facet normal -0 0 -1
    outer loop
      vertex 0.25 15.03 -1.49
      vertex -19 12 -1.49
      vertex 0 17 -1.49
    endloop
  endfacet
  facet normal 0 -0 -1
    outer loop
      vertex -19 12 -1.49
      vertex -19 0 -1.49
      vertex -21 7 -1.49
    endloop
  endfacet
  facet normal -0 0 1
    outer loop
      vertex -19 12 0.00999928
      vertex -17 10 0.00999928
      vertex 0 17 0.00999928
    endloop
  endfacet
  facet normal 0 0 1
    outer loop
      vertex -21 7 0.00999928
      vertex -17 10 0.00999928
      vertex -19 12 0.00999928
    endloop
  endfacet
  facet normal 0 0 1
    outer loop
      vertex -17 10 0.00999928
      vertex -21 7 0.00999928
      vertex -19 5 0.00999928
    endloop
  endfacet
  facet normal 0 0 1
    outer loop
      vertex -19 5 0.00999928
      vertex -21 7 0.00999928
      vertex -19 0 0.00999928
    endloop
  endfacet
  facet normal 0 0 1
    outer loop
      vertex -17 0 0.00999928
      vertex -19 5 0.00999928
      vertex -19 0 0.00999928
    endloop
  endfacet
  facet normal -0.254493 0.967075 0
    outer loop
      vertex 0 17 -1.49
      vertex -19 12 0.00999928
      vertex 0 17 0.00999928
    endloop
  endfacet
  facet normal -0.254493 0.967075 0
    outer loop
      vertex -19 12 0.00999928
      vertex 0 17 -1.49
      vertex -19 12 -1.49
    endloop
  endfacet
  facet normal -0.928477 0.371391 0
    outer loop
      vertex -21 7 -1.49
      vertex -19 12 0.00999928
      vertex -19 12 -1.49
    endloop
  endfacet
  facet normal -0.928477 0.371391 0
    outer loop
      vertex -19 12 0.00999928
      vertex -21 7 -1.49
      vertex -21 7 0.00999928
    endloop
  endfacet
  facet normal -0.961524 -0.274721 0
    outer loop
      vertex -19 0 -1.49
      vertex -21 7 0.00999928
      vertex -21 7 -1.49
    endloop
  endfacet
  facet normal -0.961524 -0.274721 0
    outer loop
      vertex -21 7 0.00999928
      vertex -19 0 -1.49
      vertex -19 0 0.00999928
    endloop
  endfacet
  facet normal -0.38075 0.924678 0
    outer loop
      vertex 0 17 0.00999928
      vertex -17 10 16.99
      vertex 0 17 16.99
    endloop
  endfacet
  facet normal -0.38075 0.924678 0
    outer loop
      vertex -17 10 16.99
      vertex 0 17 0.00999928
      vertex -17 10 0.00999928
    endloop
  endfacet
  facet normal -0.928477 0.371391 0
    outer loop
      vertex -19 5 0.00999928
      vertex -17 10 16.99
      vertex -17 10 0.00999928
    endloop
  endfacet
  facet normal -0.928477 0.371391 0
    outer loop
      vertex -17 10 16.99
      vertex -19 5 0.00999928
      vertex -19 5 16.99
    endloop
  endfacet
  facet normal -0.928477 -0.371391 0
    outer loop
      vertex -17 0 0.00999928
      vertex -19 5 16.99
      vertex -19 5 0.00999928
    endloop
  endfacet
  facet normal -0.928477 -0.371391 0
    outer loop
      vertex -19 5 16.99
      vertex -17 0 0.00999928
      vertex -17 0 16.99
    endloop
  endfacet
  facet normal -0.861934 0.50702 0
    outer loop
      vertex -5 8.5 64.01
      vertex 0 17 75.99
      vertex 0 17 64.01
    endloop
  endfacet
  facet normal -0.861934 0.50702 0
    outer loop
      vertex 0 17 75.99
      vertex -5 8.5 64.01
      vertex -5 8.5 75.99
    endloop
  endfacet
  facet normal -0.861934 -0.50702 0
    outer loop
      vertex 0 0 64.01
      vertex -5 8.5 75.99
      vertex -5 8.5 64.01
    endloop
  endfacet
  facet normal -0.861934 -0.50702 0
    outer loop
      vertex -5 8.5 75.99
      vertex 0 0 64.01
      vertex 0 0 75.99
    endloop
  endfacet
  facet normal 0 0 -1
    outer loop
      vertex 0 0 75.99
      vertex -7 10.5 75.99
      vertex -5 8.5 75.99
    endloop
  endfacet
  facet normal 0 0 -1
    outer loop
      vertex -7 10.5 75.99
      vertex 0 17 75.99
      vertex -5 8.5 75.99
    endloop
  endfacet
  facet normal -0 0 -1
    outer loop
      vertex 0 17 75.99
      vertex -7 10.5 75.99
      vertex 0 19 75.99
    endloop
  endfacet
  facet normal 0 0 1
    outer loop
      vertex -7 10.5 77.49
      vertex 0 17 77.49
      vertex 0 19 77.49
    endloop
  endfacet
  facet normal 0 0 1
    outer loop
      vertex 0 17 77.49
      vertex -7 10.5 77.49
      vertex 0 0 77.49
    endloop
  endfacet
  facet normal 0 0 1
    outer loop
      vertex 20.25 1.42999 77.49
      vertex 0 0 77.49
      vertex 25 0 77.49
    endloop
  endfacet
  facet normal 0 0 1
    outer loop
      vertex 16 2.92 77.49
      vertex 0 0 77.49
      vertex 20.25 1.42999 77.49
    endloop
  endfacet
  facet normal 0 0 1
    outer loop
      vertex 12.25 4.46999 77.49
      vertex 0 0 77.49
      vertex 16 2.92 77.49
    endloop
  endfacet
  facet normal 0 0 1
    outer loop
      vertex 9 6.07999 77.49
      vertex 0 0 77.49
      vertex 12.25 4.46999 77.49
    endloop
  endfacet
  facet normal 0 0 1
    outer loop
      vertex 6.25 7.75 77.49
      vertex 0 0 77.49
      vertex 9 6.07999 77.49
    endloop
  endfacet
  facet normal 0 0 1
    outer loop
      vertex 4 9.48 77.49
      vertex 0 0 77.49
      vertex 6.25 7.75 77.49
    endloop
  endfacet
  facet normal 0 0 1
    outer loop
      vertex 2.25 11.27 77.49
      vertex 0 0 77.49
      vertex 4 9.48 77.49
    endloop
  endfacet
  facet normal 0 0 1
    outer loop
      vertex 1 13.12 77.49
      vertex 0 0 77.49
      vertex 2.25 11.27 77.49
    endloop
  endfacet
  facet normal 0 0 1
    outer loop
      vertex 0.25 15.03 77.49
      vertex 0 0 77.49
      vertex 1 13.12 77.49
    endloop
  endfacet
  facet normal 0 0 1
    outer loop
      vertex 0 0 77.49
      vertex 0.25 15.03 77.49
      vertex 0 17 77.49
    endloop
  endfacet
  facet normal 1 -0 0
    outer loop
      vertex 0 17 77.49
      vertex 0 19 75.99
      vertex 0 19 77.49
    endloop
  endfacet
  facet normal 1 0 0
    outer loop
      vertex 0 19 75.99
      vertex 0 17 77.49
      vertex 0 17 75.99
    endloop
  endfacet
  facet normal -0.77193 0.635707 0
    outer loop
      vertex -7 10.5 75.99
      vertex 0 19 77.49
      vertex 0 19 75.99
    endloop
  endfacet
  facet normal -0.77193 0.635707 0
    outer loop
      vertex 0 19 77.49
      vertex -7 10.5 75.99
      vertex -7 10.5 77.49
    endloop
  endfacet
  facet normal -0.83205 -0.5547 0
    outer loop
      vertex 0 0 75.99
      vertex -7 10.5 77.49
      vertex -7 10.5 75.99
    endloop
  endfacet
  facet normal -0.83205 -0.5547 0
    outer loop
      vertex -7 10.5 77.49
      vertex 0 0 75.99
      vertex 0 0 77.49
    endloop
  endfacet
endsolid OpenSCAD_Model
