solid OpenSCAD_Model
  facet normal 0 -0 -1
    outer loop
      vertex 19.5 17 0
      vertex 19.5 2 0
      vertex 15.5 3 0
    endloop
  endfacet
  facet normal -0 0 -1
    outer loop
      vertex 19.5 17 0
      vertex 15.5 3 0
      vertex 15.5 17 0
    endloop
  endfacet
  facet normal -0 -0 -1
    outer loop
      vertex -14.5 2 0
      vertex -12.5 -2 0
      vertex -19.5 2 0
    endloop
  endfacet
  facet normal 0 0 -1
    outer loop
      vertex 8.5 -2 0
      vertex 12.5 -17 0
      vertex 8.5 -17 0
    endloop
  endfacet
  facet normal 0 0 -1
    outer loop
      vertex 8.5 -2 0
      vertex 12.5 -2 0
      vertex 12.5 -17 0
    endloop
  endfacet
  facet normal 0 0 -1
    outer loop
      vertex -19.5 2 0
      vertex -15.5 3 0
      vertex -14.5 2 0
    endloop
  endfacet
  facet normal -0 0 -1
    outer loop
      vertex 19.5 2 0
      vertex 12.5 -2 0
      vertex 14.5 2 0
    endloop
  endfacet
  facet normal 0 -0 -1
    outer loop
      vertex 15.5 3 0
      vertex 19.5 2 0
      vertex 14.5 2 0
    endloop
  endfacet
  facet normal 0 0 -1
    outer loop
      vertex 14.5 2 0
      vertex 12.5 -2 0
      vertex 8.5 -2 0
    endloop
  endfacet
  facet normal 0 0 -1
    outer loop
      vertex 8.5 -2 0
      vertex -14.5 2 0
      vertex 14.5 2 0
    endloop
  endfacet
  facet normal 0 0 -1
    outer loop
      vertex -8.5 -2 0
      vertex -14.5 2 0
      vertex 8.5 -2 0
    endloop
  endfacet
  facet normal 0 0 -1
    outer loop
      vertex -15.5 3 0
      vertex -19.5 17 0
      vertex -15.5 17 0
    endloop
  endfacet
  facet normal -0 0 -1
    outer loop
      vertex -15.5 3 0
      vertex -19.5 2 0
      vertex -19.5 17 0
    endloop
  endfacet
  facet normal 0 0 -1
    outer loop
      vertex -8.5 -17 0
      vertex -12.5 -2 0
      vertex -8.5 -2 0
    endloop
  endfacet
  facet normal 0 0 -1
    outer loop
      vertex -12.5 -2 0
      vertex -14.5 2 0
      vertex -8.5 -2 0
    endloop
  endfacet
  facet normal 0 0 -1
    outer loop
      vertex -8.5 -17 0
      vertex -12.5 -17 0
      vertex -12.5 -2 0
    endloop
  endfacet
  facet normal -0 0 1
    outer loop
      vertex 15.5 3 10
      vertex 19.5 2 10
      vertex 19.5 17 10
    endloop
  endfacet
  facet normal -0 0 1
    outer loop
      vertex 15.5 17 10
      vertex 15.5 3 10
      vertex 19.5 17 10
    endloop
  endfacet
  facet normal -0 0 1
    outer loop
      vertex -19.5 2 10
      vertex -12.5 -2 10
      vertex -14.5 2 10
    endloop
  endfacet
  facet normal 0 0 1
    outer loop
      vertex 8.5 -17 10
      vertex 12.5 -17 10
      vertex 8.5 -2 10
    endloop
  endfacet
  facet normal 0 -0 1
    outer loop
      vertex 12.5 -17 10
      vertex 12.5 -2 10
      vertex 8.5 -2 10
    endloop
  endfacet
  facet normal 0 0 1
    outer loop
      vertex -14.5 2 10
      vertex -15.5 3 10
      vertex -19.5 2 10
    endloop
  endfacet
  facet normal -0 0 1
    outer loop
      vertex 14.5 2 10
      vertex 12.5 -2 10
      vertex 19.5 2 10
    endloop
  endfacet
  facet normal 0 0 1
    outer loop
      vertex 14.5 2 10
      vertex 19.5 2 10
      vertex 15.5 3 10
    endloop
  endfacet
  facet normal 0 0 1
    outer loop
      vertex 8.5 -2 10
      vertex 12.5 -2 10
      vertex 14.5 2 10
    endloop
  endfacet
  facet normal 0 0 1
    outer loop
      vertex 14.5 2 10
      vertex -14.5 2 10
      vertex 8.5 -2 10
    endloop
  endfacet
  facet normal 0 0 1
    outer loop
      vertex 8.5 -2 10
      vertex -14.5 2 10
      vertex -8.5 -2 10
    endloop
  endfacet
  facet normal 0 0 1
    outer loop
      vertex -15.5 17 10
      vertex -19.5 17 10
      vertex -15.5 3 10
    endloop
  endfacet
  facet normal 0 0 1
    outer loop
      vertex -19.5 17 10
      vertex -19.5 2 10
      vertex -15.5 3 10
    endloop
  endfacet
  facet normal 0 0 1
    outer loop
      vertex -8.5 -2 10
      vertex -12.5 -2 10
      vertex -8.5 -17 10
    endloop
  endfacet
  facet normal 0 0 1
    outer loop
      vertex -8.5 -2 10
      vertex -14.5 2 10
      vertex -12.5 -2 10
    endloop
  endfacet
  facet normal 0 0 1
    outer loop
      vertex -12.5 -2 10
      vertex -12.5 -17 10
      vertex -8.5 -17 10
    endloop
  endfacet
  facet normal 0 -1 0
    outer loop
      vertex 8.5 -2 0
      vertex -8.5 -2 10
      vertex -8.5 -2 0
    endloop
  endfacet
  facet normal 0 -1 0
    outer loop
      vertex 8.5 -2 0
      vertex 8.5 -2 10
      vertex -8.5 -2 10
    endloop
  endfacet
  facet normal -1 0 0
    outer loop
      vertex 8.5 -17 0
      vertex 8.5 -2 10
      vertex 8.5 -2 0
    endloop
  endfacet
  facet normal -1 0 0
    outer loop
      vertex 8.5 -17 0
      vertex 8.5 -17 10
      vertex 8.5 -2 10
    endloop
  endfacet
  facet normal 0 -1 0
    outer loop
      vertex 12.5 -17 0
      vertex 8.5 -17 10
      vertex 8.5 -17 0
    endloop
  endfacet
  facet normal 0 -1 0
    outer loop
      vertex 12.5 -17 0
      vertex 12.5 -17 10
      vertex 8.5 -17 10
    endloop
  endfacet
  facet normal 1 0 0
    outer loop
      vertex 12.5 -2 0
      vertex 12.5 -17 10
      vertex 12.5 -17 0
    endloop
  endfacet
  facet normal 1 0 -0
    outer loop
      vertex 12.5 -2 0
      vertex 12.5 -2 10
      vertex 12.5 -17 10
    endloop
  endfacet
  facet normal 0.496139 -0.868243 0
    outer loop
      vertex 19.5 2 0
      vertex 12.5 -2 10
      vertex 12.5 -2 0
    endloop
  endfacet
  facet normal 0.496139 -0.868243 0
    outer loop
      vertex 19.5 2 0
      vertex 19.5 2 10
      vertex 12.5 -2 10
    endloop
  endfacet
  facet normal 1 0 0
    outer loop
      vertex 19.5 17 0
      vertex 19.5 2 10
      vertex 19.5 2 0
    endloop
  endfacet
  facet normal 1 0 -0
    outer loop
      vertex 19.5 17 0
      vertex 19.5 17 10
      vertex 19.5 2 10
    endloop
  endfacet
  facet normal 0 1 0
    outer loop
      vertex 15.5 17 0
      vertex 19.5 17 10
      vertex 19.5 17 0
    endloop
  endfacet
  facet normal 0 1 0
    outer loop
      vertex 15.5 17 0
      vertex 15.5 17 10
      vertex 19.5 17 10
    endloop
  endfacet
  facet normal -1 0 0
    outer loop
      vertex 15.5 3 0
      vertex 15.5 17 10
      vertex 15.5 17 0
    endloop
  endfacet
  facet normal -1 0 0
    outer loop
      vertex 15.5 3 0
      vertex 15.5 3 10
      vertex 15.5 17 10
    endloop
  endfacet
  facet normal -0.707107 0.707107 0
    outer loop
      vertex 14.5 2 0
      vertex 15.5 3 10
      vertex 15.5 3 0
    endloop
  endfacet
  facet normal -0.707107 0.707107 0
    outer loop
      vertex 14.5 2 0
      vertex 14.5 2 10
      vertex 15.5 3 10
    endloop
  endfacet
  facet normal 0 1 0
    outer loop
      vertex -14.5 2 0
      vertex 14.5 2 10
      vertex 14.5 2 0
    endloop
  endfacet
  facet normal 0 1 0
    outer loop
      vertex -14.5 2 0
      vertex -14.5 2 10
      vertex 14.5 2 10
    endloop
  endfacet
  facet normal 0.707107 0.707107 0
    outer loop
      vertex -15.5 3 0
      vertex -14.5 2 10
      vertex -14.5 2 0
    endloop
  endfacet
  facet normal 0.707107 0.707107 -0
    outer loop
      vertex -15.5 3 0
      vertex -15.5 3 10
      vertex -14.5 2 10
    endloop
  endfacet
  facet normal 1 0 0
    outer loop
      vertex -15.5 17 0
      vertex -15.5 3 10
      vertex -15.5 3 0
    endloop
  endfacet
  facet normal 1 0 -0
    outer loop
      vertex -15.5 17 0
      vertex -15.5 17 10
      vertex -15.5 3 10
    endloop
  endfacet
  facet normal 0 1 0
    outer loop
      vertex -19.5 17 0
      vertex -15.5 17 10
      vertex -15.5 17 0
    endloop
  endfacet
  facet normal 0 1 0
    outer loop
      vertex -19.5 17 0
      vertex -19.5 17 10
      vertex -15.5 17 10
    endloop
  endfacet
  facet normal -1 0 0
    outer loop
      vertex -19.5 2 0
      vertex -19.5 17 10
      vertex -19.5 17 0
    endloop
  endfacet
  facet normal -1 0 0
    outer loop
      vertex -19.5 2 0
      vertex -19.5 2 10
      vertex -19.5 17 10
    endloop
  endfacet
  facet normal -0.496139 -0.868243 0
    outer loop
      vertex -12.5 -2 0
      vertex -19.5 2 10
      vertex -19.5 2 0
    endloop
  endfacet
  facet normal -0.496139 -0.868243 0
    outer loop
      vertex -12.5 -2 0
      vertex -12.5 -2 10
      vertex -19.5 2 10
    endloop
  endfacet
  facet normal -1 0 0
    outer loop
      vertex -12.5 -17 0
      vertex -12.5 -2 10
      vertex -12.5 -2 0
    endloop
  endfacet
  facet normal -1 0 0
    outer loop
      vertex -12.5 -17 0
      vertex -12.5 -17 10
      vertex -12.5 -2 10
    endloop
  endfacet
  facet normal 0 -1 0
    outer loop
      vertex -8.5 -17 0
      vertex -12.5 -17 10
      vertex -12.5 -17 0
    endloop
  endfacet
  facet normal 0 -1 0
    outer loop
      vertex -8.5 -17 0
      vertex -8.5 -17 10
      vertex -12.5 -17 10
    endloop
  endfacet
  facet normal 1 0 0
    outer loop
      vertex -8.5 -2 0
      vertex -8.5 -17 10
      vertex -8.5 -17 0
    endloop
  endfacet
  facet normal 1 0 -0
    outer loop
      vertex -8.5 -2 0
      vertex -8.5 -2 10
      vertex -8.5 -17 10
    endloop
  endfacet
endsolid OpenSCAD_Model
