solid OpenSCAD_Model
  facet normal 0 0 -1
    outer loop
      vertex 6.5 0 -18
      vertex 10 0 -18
      vertex 9.51056 -3.09017 -18
    endloop
  endfacet
  facet normal 0 0 -1
    outer loop
      vertex 6.18187 -2.00861 -18
      vertex 9.51056 -3.09017 -18
      vertex 8.09017 -5.87785 -18
    endloop
  endfacet
  facet normal 0 0 -1
    outer loop
      vertex 10 0 -18
      vertex 6.5 0 -18
      vertex 9.51056 3.09017 -18
    endloop
  endfacet
  facet normal 0 0 -1
    outer loop
      vertex 6.18187 2.00861 -18
      vertex 9.51056 3.09017 -18
      vertex 6.5 0 -18
    endloop
  endfacet
  facet normal 0 0 -1
    outer loop
      vertex 9.51056 -3.09017 -18
      vertex 6.18187 -2.00861 -18
      vertex 6.5 0 -18
    endloop
  endfacet
  facet normal 0 0 -1
    outer loop
      vertex 5.25861 -3.8206 -18
      vertex 8.09017 -5.87785 -18
      vertex 5.87785 -8.09017 -18
    endloop
  endfacet
  facet normal 0 0 -1
    outer loop
      vertex 8.09017 -5.87785 -18
      vertex 5.25861 -3.8206 -18
      vertex 6.18187 -2.00861 -18
    endloop
  endfacet
  facet normal 0 0 -1
    outer loop
      vertex 5.87785 -8.09017 -18
      vertex 3.8206 -5.25861 -18
      vertex 5.25861 -3.8206 -18
    endloop
  endfacet
  facet normal 0 0 -1
    outer loop
      vertex 3.09017 -9.51056 -18
      vertex 3.8206 -5.25861 -18
      vertex 5.87785 -8.09017 -18
    endloop
  endfacet
  facet normal 0 0 -1
    outer loop
      vertex 3.09017 -9.51056 -18
      vertex 2.00861 -6.18187 -18
      vertex 3.8206 -5.25861 -18
    endloop
  endfacet
  facet normal 0 0 -1
    outer loop
      vertex 0 -10 -18
      vertex 2.00861 -6.18187 -18
      vertex 3.09017 -9.51056 -18
    endloop
  endfacet
  facet normal 0 0 -1
    outer loop
      vertex 0 -10 -18
      vertex 0 -6.5 -18
      vertex 2.00861 -6.18187 -18
    endloop
  endfacet
  facet normal 0 0 -1
    outer loop
      vertex 0 -10 -18
      vertex -2.00861 -6.18187 -18
      vertex 0 -6.5 -18
    endloop
  endfacet
  facet normal 0 0 -1
    outer loop
      vertex -3.09017 -9.51056 -18
      vertex -2.00861 -6.18187 -18
      vertex 0 -10 -18
    endloop
  endfacet
  facet normal 0 0 -1
    outer loop
      vertex -3.09017 -9.51056 -18
      vertex -3.8206 -5.25861 -18
      vertex -2.00861 -6.18187 -18
    endloop
  endfacet
  facet normal 0 0 -1
    outer loop
      vertex -5.87785 -8.09017 -18
      vertex -3.8206 -5.25861 -18
      vertex -3.09017 -9.51056 -18
    endloop
  endfacet
  facet normal -0 0 -1
    outer loop
      vertex -3.8206 -5.25861 -18
      vertex -5.87785 -8.09017 -18
      vertex -5.25861 -3.8206 -18
    endloop
  endfacet
  facet normal 0 0 -1
    outer loop
      vertex -8.09017 -5.87785 -18
      vertex -5.25861 -3.8206 -18
      vertex -5.87785 -8.09017 -18
    endloop
  endfacet
  facet normal -0 0 -1
    outer loop
      vertex -5.25861 -3.8206 -18
      vertex -8.09017 -5.87785 -18
      vertex -6.18187 -2.00861 -18
    endloop
  endfacet
  facet normal 0 0 -1
    outer loop
      vertex -9.51056 -3.09017 -18
      vertex -6.18187 -2.00861 -18
      vertex -8.09017 -5.87785 -18
    endloop
  endfacet
  facet normal -0 0 -1
    outer loop
      vertex 9.51056 3.09017 -18
      vertex 6.18187 2.00861 -18
      vertex 8.09017 5.87785 -18
    endloop
  endfacet
  facet normal 0 0 -1
    outer loop
      vertex 5.25861 3.8206 -18
      vertex 8.09017 5.87785 -18
      vertex 6.18187 2.00861 -18
    endloop
  endfacet
  facet normal -0 0 -1
    outer loop
      vertex 8.09017 5.87785 -18
      vertex 5.25861 3.8206 -18
      vertex 5.87785 8.09017 -18
    endloop
  endfacet
  facet normal 0 0 -1
    outer loop
      vertex 3.8206 5.25861 -18
      vertex 5.87785 8.09017 -18
      vertex 5.25861 3.8206 -18
    endloop
  endfacet
  facet normal 0 0 -1
    outer loop
      vertex 3.8206 5.25861 -18
      vertex 3.09017 9.51056 -18
      vertex 5.87785 8.09017 -18
    endloop
  endfacet
  facet normal 0 0 -1
    outer loop
      vertex 2.00861 6.18187 -18
      vertex 3.09017 9.51056 -18
      vertex 3.8206 5.25861 -18
    endloop
  endfacet
  facet normal 0 0 -1
    outer loop
      vertex 0 6.5 -18
      vertex 3.09017 9.51056 -18
      vertex 2.00861 6.18187 -18
    endloop
  endfacet
  facet normal 0 0 -1
    outer loop
      vertex 0 6.5 -18
      vertex 0 10 -18
      vertex 3.09017 9.51056 -18
    endloop
  endfacet
  facet normal 0 0 -1
    outer loop
      vertex -2.00861 6.18187 -18
      vertex 0 10 -18
      vertex 0 6.5 -18
    endloop
  endfacet
  facet normal 0 0 -1
    outer loop
      vertex -2.00861 6.18187 -18
      vertex -3.09017 9.51056 -18
      vertex 0 10 -18
    endloop
  endfacet
  facet normal 0 0 -1
    outer loop
      vertex -3.8206 5.25861 -18
      vertex -3.09017 9.51056 -18
      vertex -2.00861 6.18187 -18
    endloop
  endfacet
  facet normal 0 0 -1
    outer loop
      vertex -5.87785 8.09017 -18
      vertex -3.8206 5.25861 -18
      vertex -5.25861 3.8206 -18
    endloop
  endfacet
  facet normal 0 0 -1
    outer loop
      vertex -3.8206 5.25861 -18
      vertex -5.87785 8.09017 -18
      vertex -3.09017 9.51056 -18
    endloop
  endfacet
  facet normal 0 0 -1
    outer loop
      vertex -8.09017 5.87785 -18
      vertex -5.25861 3.8206 -18
      vertex -6.18187 2.00861 -18
    endloop
  endfacet
  facet normal 0 0 -1
    outer loop
      vertex -9.51056 3.09017 -18
      vertex -6.18187 2.00861 -18
      vertex -6.5 0 -18
    endloop
  endfacet
  facet normal -0 0 -1
    outer loop
      vertex -6.18187 -2.00861 -18
      vertex -9.51056 -3.09017 -18
      vertex -6.5 0 -18
    endloop
  endfacet
  facet normal 0 0 -1
    outer loop
      vertex -5.25861 3.8206 -18
      vertex -8.09017 5.87785 -18
      vertex -5.87785 8.09017 -18
    endloop
  endfacet
  facet normal 0 0 -1
    outer loop
      vertex -10 0 -18
      vertex -6.5 0 -18
      vertex -9.51056 -3.09017 -18
    endloop
  endfacet
  facet normal 0 0 -1
    outer loop
      vertex -6.18187 2.00861 -18
      vertex -9.51056 3.09017 -18
      vertex -8.09017 5.87785 -18
    endloop
  endfacet
  facet normal 0 0 -1
    outer loop
      vertex -6.5 0 -18
      vertex -10 0 -18
      vertex -9.51056 3.09017 -18
    endloop
  endfacet
  facet normal -0.5225 -0.852639 0
    outer loop
      vertex -9.72685 1.72462 -15
      vertex -7.42752 0.315582 20
      vertex -9.72685 1.72462 20
    endloop
  endfacet
  facet normal -0.5225 -0.852639 -0
    outer loop
      vertex -7.42752 0.315582 20
      vertex -9.72685 1.72462 -15
      vertex -7.42752 0.315582 -15
    endloop
  endfacet
  facet normal -0.649448 -0.760406 0
    outer loop
      vertex -7.42752 0.315582 -15
      vertex -3.25127 -3.25127 20
      vertex -7.42752 0.315582 20
    endloop
  endfacet
  facet normal -0.649448 -0.760406 -0
    outer loop
      vertex -3.25127 -3.25127 20
      vertex -7.42752 0.315582 -15
      vertex -3.25127 -3.25127 -15
    endloop
  endfacet
  facet normal -0.760406 -0.649448 0
    outer loop
      vertex 0.315582 -7.42752 -15
      vertex -3.25127 -3.25127 20
      vertex -3.25127 -3.25127 -15
    endloop
  endfacet
  facet normal -0.760406 -0.649448 0
    outer loop
      vertex -3.25127 -3.25127 20
      vertex 0.315582 -7.42752 -15
      vertex 0.315582 -7.42752 20
    endloop
  endfacet
  facet normal -0.852639 -0.5225 0
    outer loop
      vertex 1.72462 -9.72685 -15
      vertex 0.315582 -7.42752 20
      vertex 0.315582 -7.42752 -15
    endloop
  endfacet
  facet normal -0.852639 -0.5225 0
    outer loop
      vertex 0.315582 -7.42752 20
      vertex 1.72462 -9.72685 -15
      vertex 1.72462 -9.72685 20
    endloop
  endfacet
  facet normal 0 0 1
    outer loop
      vertex 0.315582 -7.42752 -15
      vertex 0 -10 -15
      vertex 1.72462 -9.72685 -15
    endloop
  endfacet
  facet normal 0 0 1
    outer loop
      vertex 0.315582 -7.42752 -15
      vertex -3.09017 -9.51056 -15
      vertex 0 -10 -15
    endloop
  endfacet
  facet normal 0 0 1
    outer loop
      vertex -3.25127 -3.25127 -15
      vertex -3.09017 -9.51056 -15
      vertex 0.315582 -7.42752 -15
    endloop
  endfacet
  facet normal 0 0 1
    outer loop
      vertex -3.25127 -3.25127 -15
      vertex -5.87785 -8.09017 -15
      vertex -3.09017 -9.51056 -15
    endloop
  endfacet
  facet normal -0 0 1
    outer loop
      vertex -9.51056 -3.09017 -15
      vertex -3.25127 -3.25127 -15
      vertex -7.42752 0.315582 -15
    endloop
  endfacet
  facet normal 0 0 1
    outer loop
      vertex -3.25127 -3.25127 -15
      vertex -8.09017 -5.87785 -15
      vertex -5.87785 -8.09017 -15
    endloop
  endfacet
  facet normal 0 0 1
    outer loop
      vertex -3.25127 -3.25127 -15
      vertex -9.51056 -3.09017 -15
      vertex -8.09017 -5.87785 -15
    endloop
  endfacet
  facet normal 0 0 1
    outer loop
      vertex -10 0 -15
      vertex -7.42752 0.315582 -15
      vertex -9.72685 1.72462 -15
    endloop
  endfacet
  facet normal 0 0 1
    outer loop
      vertex -7.42752 0.315582 -15
      vertex -10 0 -15
      vertex -9.51056 -3.09017 -15
    endloop
  endfacet
  facet normal -0.987688 -0.156436 0
    outer loop
      vertex 2.5 0 -14
      vertex 2.37764 0.772542 20
      vertex 2.37764 0.772542 -14
    endloop
  endfacet
  facet normal -0.987688 -0.156436 0
    outer loop
      vertex 2.37764 0.772542 20
      vertex 2.5 0 -14
      vertex 2.5 0 20
    endloop
  endfacet
  facet normal 0.987688 -0.156436 0
    outer loop
      vertex -2.5 0 20
      vertex -2.37764 0.772542 -14
      vertex -2.37764 0.772542 20
    endloop
  endfacet
  facet normal 0.987688 -0.156436 0
    outer loop
      vertex -2.37764 0.772542 -14
      vertex -2.5 0 20
      vertex -2.5 0 -14
    endloop
  endfacet
  facet normal -0.156436 -0.987688 0
    outer loop
      vertex 0 2.5 20
      vertex 0.772542 2.37764 -14
      vertex 0.772542 2.37764 20
    endloop
  endfacet
  facet normal -0.156436 -0.987688 0
    outer loop
      vertex 0.772542 2.37764 -14
      vertex 0 2.5 20
      vertex 0 2.5 -14
    endloop
  endfacet
  facet normal -0.707107 -0.707107 0
    outer loop
      vertex 2.02254 1.46946 -14
      vertex 1.46946 2.02254 20
      vertex 1.46946 2.02254 -14
    endloop
  endfacet
  facet normal -0.707107 -0.707107 0
    outer loop
      vertex 2.02254 1.46946 -14
      vertex 2.02254 1.46946 20
      vertex 1.46946 2.02254 20
    endloop
  endfacet
  facet normal -0.891005 -0.453993 0
    outer loop
      vertex 2.37764 0.772542 -14
      vertex 2.02254 1.46946 20
      vertex 2.02254 1.46946 -14
    endloop
  endfacet
  facet normal -0.891005 -0.453993 0
    outer loop
      vertex 2.37764 0.772542 -14
      vertex 2.37764 0.772542 20
      vertex 2.02254 1.46946 20
    endloop
  endfacet
  facet normal -0.453993 -0.891005 -0
    outer loop
      vertex 0.772542 2.37764 20
      vertex 0.772542 2.37764 -14
      vertex 1.46946 2.02254 20
    endloop
  endfacet
  facet normal -0.453993 -0.891005 -0
    outer loop
      vertex 1.46946 2.02254 20
      vertex 0.772542 2.37764 -14
      vertex 1.46946 2.02254 -14
    endloop
  endfacet
  facet normal 0.453993 -0.891005 0
    outer loop
      vertex -1.46946 2.02254 -14
      vertex -0.772542 2.37764 20
      vertex -1.46946 2.02254 20
    endloop
  endfacet
  facet normal 0.453993 -0.891005 0
    outer loop
      vertex -0.772542 2.37764 -14
      vertex -0.772542 2.37764 20
      vertex -1.46946 2.02254 -14
    endloop
  endfacet
  facet normal 0.707107 -0.707107 0
    outer loop
      vertex -1.46946 2.02254 20
      vertex -2.02254 1.46946 -14
      vertex -1.46946 2.02254 -14
    endloop
  endfacet
  facet normal 0.707107 -0.707107 0
    outer loop
      vertex -2.02254 1.46946 20
      vertex -2.02254 1.46946 -14
      vertex -1.46946 2.02254 20
    endloop
  endfacet
  facet normal 0.156436 -0.987688 0
    outer loop
      vertex -0.772542 2.37764 -14
      vertex 0 2.5 20
      vertex -0.772542 2.37764 20
    endloop
  endfacet
  facet normal 0.156436 -0.987688 0
    outer loop
      vertex 0 2.5 20
      vertex -0.772542 2.37764 -14
      vertex 0 2.5 -14
    endloop
  endfacet
  facet normal -0.891005 0.453993 0
    outer loop
      vertex 2.02254 -1.46946 -14
      vertex 2.37764 -0.772542 20
      vertex 2.37764 -0.772542 -14
    endloop
  endfacet
  facet normal -0.891005 0.453993 0
    outer loop
      vertex 2.37764 -0.772542 20
      vertex 2.02254 -1.46946 -14
      vertex 2.02254 -1.46946 20
    endloop
  endfacet
  facet normal 0.707107 0.707107 0
    outer loop
      vertex -2.02254 -1.46946 20
      vertex -1.46946 -2.02254 -14
      vertex -2.02254 -1.46946 -14
    endloop
  endfacet
  facet normal 0.707107 0.707107 0
    outer loop
      vertex -1.46946 -2.02254 20
      vertex -1.46946 -2.02254 -14
      vertex -2.02254 -1.46946 20
    endloop
  endfacet
  facet normal 0.987688 0.156436 0
    outer loop
      vertex -2.37764 -0.772542 20
      vertex -2.5 0 -14
      vertex -2.5 0 20
    endloop
  endfacet
  facet normal 0.987688 0.156436 0
    outer loop
      vertex -2.5 0 -14
      vertex -2.37764 -0.772542 20
      vertex -2.37764 -0.772542 -14
    endloop
  endfacet
  facet normal 0.891005 -0.453993 0
    outer loop
      vertex -2.02254 1.46946 20
      vertex -2.37764 0.772542 -14
      vertex -2.02254 1.46946 -14
    endloop
  endfacet
  facet normal 0.891005 -0.453993 0
    outer loop
      vertex -2.37764 0.772542 20
      vertex -2.37764 0.772542 -14
      vertex -2.02254 1.46946 20
    endloop
  endfacet
  facet normal -0.156436 0.987688 0
    outer loop
      vertex 0.772542 -2.37764 -14
      vertex 0 -2.5 20
      vertex 0.772542 -2.37764 20
    endloop
  endfacet
  facet normal -0.156436 0.987688 0
    outer loop
      vertex 0 -2.5 20
      vertex 0.772542 -2.37764 -14
      vertex 0 -2.5 -14
    endloop
  endfacet
  facet normal -0.707107 0.707107 0
    outer loop
      vertex 1.46946 -2.02254 -14
      vertex 2.02254 -1.46946 20
      vertex 2.02254 -1.46946 -14
    endloop
  endfacet
  facet normal -0.707107 0.707107 0
    outer loop
      vertex 1.46946 -2.02254 -14
      vertex 1.46946 -2.02254 20
      vertex 2.02254 -1.46946 20
    endloop
  endfacet
  facet normal 0.453993 0.891005 0
    outer loop
      vertex -0.772542 -2.37764 20
      vertex -0.772542 -2.37764 -14
      vertex -1.46946 -2.02254 20
    endloop
  endfacet
  facet normal 0.453993 0.891005 0
    outer loop
      vertex -1.46946 -2.02254 20
      vertex -0.772542 -2.37764 -14
      vertex -1.46946 -2.02254 -14
    endloop
  endfacet
  facet normal 0.891005 0.453993 0
    outer loop
      vertex -2.02254 -1.46946 20
      vertex -2.37764 -0.772542 -14
      vertex -2.37764 -0.772542 20
    endloop
  endfacet
  facet normal 0.891005 0.453993 0
    outer loop
      vertex -2.37764 -0.772542 -14
      vertex -2.02254 -1.46946 20
      vertex -2.02254 -1.46946 -14
    endloop
  endfacet
  facet normal -0.987688 0.156436 0
    outer loop
      vertex 2.37764 -0.772542 -14
      vertex 2.5 0 20
      vertex 2.5 0 -14
    endloop
  endfacet
  facet normal -0.987688 0.156436 0
    outer loop
      vertex 2.5 0 20
      vertex 2.37764 -0.772542 -14
      vertex 2.37764 -0.772542 20
    endloop
  endfacet
  facet normal -0.453993 0.891005 0
    outer loop
      vertex 1.46946 -2.02254 -14
      vertex 0.772542 -2.37764 20
      vertex 1.46946 -2.02254 20
    endloop
  endfacet
  facet normal -0.453993 0.891005 0
    outer loop
      vertex 0.772542 -2.37764 -14
      vertex 0.772542 -2.37764 20
      vertex 1.46946 -2.02254 -14
    endloop
  endfacet
  facet normal 0.156436 0.987688 0
    outer loop
      vertex 0 -2.5 20
      vertex -0.772542 -2.37764 -14
      vertex -0.772542 -2.37764 20
    endloop
  endfacet
  facet normal 0.156436 0.987688 0
    outer loop
      vertex -0.772542 -2.37764 -14
      vertex 0 -2.5 20
      vertex 0 -2.5 -14
    endloop
  endfacet
  facet normal -0.702713 -0.111298 -0.702714
    outer loop
      vertex 6.5 0 -18
      vertex 2.37764 0.772542 -14
      vertex 6.18187 2.00861 -18
    endloop
  endfacet
  facet normal -0.702713 -0.1113 -0.702713
    outer loop
      vertex 2.37764 0.772542 -14
      vertex 6.5 0 -18
      vertex 2.5 0 -14
    endloop
  endfacet
  facet normal 0.702713 0.1113 -0.702713
    outer loop
      vertex -2.37764 -0.772542 -14
      vertex -6.5 0 -18
      vertex -2.5 0 -14
    endloop
  endfacet
  facet normal 0.702713 0.111298 -0.702714
    outer loop
      vertex -6.5 0 -18
      vertex -2.37764 -0.772542 -14
      vertex -6.18187 -2.00861 -18
    endloop
  endfacet
  facet normal 0.111298 -0.702713 -0.702714
    outer loop
      vertex 0 6.5 -18
      vertex -0.772542 2.37764 -14
      vertex -2.00861 6.18187 -18
    endloop
  endfacet
  facet normal 0.1113 -0.702713 -0.702713
    outer loop
      vertex -0.772542 2.37764 -14
      vertex 0 6.5 -18
      vertex 0 2.5 -14
    endloop
  endfacet
  facet normal -0.111298 0.702713 -0.702714
    outer loop
      vertex 0 -6.5 -18
      vertex 0.772542 -2.37764 -14
      vertex 2.00861 -6.18187 -18
    endloop
  endfacet
  facet normal -0.1113 0.702713 -0.702713
    outer loop
      vertex 0.772542 -2.37764 -14
      vertex 0 -6.5 -18
      vertex 0 -2.5 -14
    endloop
  endfacet
  facet normal 0.503087 -0.503087 -0.702714
    outer loop
      vertex -2.02254 1.46946 -14
      vertex -3.8206 5.25861 -18
      vertex -1.46946 2.02254 -14
    endloop
  endfacet
  facet normal 0.503087 -0.503087 -0.702714
    outer loop
      vertex -3.8206 5.25861 -18
      vertex -2.02254 1.46946 -14
      vertex -5.25861 3.8206 -18
    endloop
  endfacet
  facet normal -0.323003 -0.633926 -0.702714
    outer loop
      vertex 3.8206 5.25861 -18
      vertex 1.46946 2.02254 -14
      vertex 2.00861 6.18187 -18
    endloop
  endfacet
  facet normal -0.323004 -0.633926 -0.702714
    outer loop
      vertex 2.00861 6.18187 -18
      vertex 1.46946 2.02254 -14
      vertex 0.772542 2.37764 -14
    endloop
  endfacet
  facet normal 0.503087 0.503087 -0.702714
    outer loop
      vertex -3.8206 -5.25861 -18
      vertex -2.02254 -1.46946 -14
      vertex -1.46946 -2.02254 -14
    endloop
  endfacet
  facet normal 0.503087 0.503087 -0.702714
    outer loop
      vertex -2.02254 -1.46946 -14
      vertex -3.8206 -5.25861 -18
      vertex -5.25861 -3.8206 -18
    endloop
  endfacet
  facet normal -0.503087 0.503087 -0.702714
    outer loop
      vertex 3.8206 -5.25861 -18
      vertex 2.02254 -1.46946 -14
      vertex 5.25861 -3.8206 -18
    endloop
  endfacet
  facet normal -0.503087 0.503087 -0.702714
    outer loop
      vertex 2.02254 -1.46946 -14
      vertex 3.8206 -5.25861 -18
      vertex 1.46946 -2.02254 -14
    endloop
  endfacet
  facet normal 0.323004 -0.633926 -0.702714
    outer loop
      vertex -1.46946 2.02254 -14
      vertex -2.00861 6.18187 -18
      vertex -0.772542 2.37764 -14
    endloop
  endfacet
  facet normal 0.323003 -0.633926 -0.702714
    outer loop
      vertex -1.46946 2.02254 -14
      vertex -3.8206 5.25861 -18
      vertex -2.00861 6.18187 -18
    endloop
  endfacet
  facet normal 0.633926 -0.323004 -0.702714
    outer loop
      vertex -2.37764 0.772542 -14
      vertex -5.25861 3.8206 -18
      vertex -2.02254 1.46946 -14
    endloop
  endfacet
  facet normal 0.633926 -0.323003 -0.702714
    outer loop
      vertex -5.25861 3.8206 -18
      vertex -2.37764 0.772542 -14
      vertex -6.18187 2.00861 -18
    endloop
  endfacet
  facet normal -0.1113 -0.702713 -0.702713
    outer loop
      vertex 0 6.5 -18
      vertex 0.772542 2.37764 -14
      vertex 0 2.5 -14
    endloop
  endfacet
  facet normal -0.111298 -0.702713 -0.702714
    outer loop
      vertex 0.772542 2.37764 -14
      vertex 0 6.5 -18
      vertex 2.00861 6.18187 -18
    endloop
  endfacet
  facet normal -0.503087 -0.503087 -0.702714
    outer loop
      vertex 2.02254 1.46946 -14
      vertex 3.8206 5.25861 -18
      vertex 5.25861 3.8206 -18
    endloop
  endfacet
  facet normal -0.503087 -0.503087 -0.702714
    outer loop
      vertex 3.8206 5.25861 -18
      vertex 2.02254 1.46946 -14
      vertex 1.46946 2.02254 -14
    endloop
  endfacet
  facet normal -0.633926 -0.323003 -0.702714
    outer loop
      vertex 2.37764 0.772542 -14
      vertex 5.25861 3.8206 -18
      vertex 6.18187 2.00861 -18
    endloop
  endfacet
  facet normal -0.633926 -0.323004 -0.702714
    outer loop
      vertex 2.02254 1.46946 -14
      vertex 5.25861 3.8206 -18
      vertex 2.37764 0.772542 -14
    endloop
  endfacet
  facet normal 0.633926 0.323004 -0.702714
    outer loop
      vertex -5.25861 -3.8206 -18
      vertex -2.37764 -0.772542 -14
      vertex -2.02254 -1.46946 -14
    endloop
  endfacet
  facet normal 0.633926 0.323003 -0.702714
    outer loop
      vertex -2.37764 -0.772542 -14
      vertex -5.25861 -3.8206 -18
      vertex -6.18187 -2.00861 -18
    endloop
  endfacet
  facet normal 0.323004 0.633926 -0.702714
    outer loop
      vertex -2.00861 -6.18187 -18
      vertex -1.46946 -2.02254 -14
      vertex -0.772542 -2.37764 -14
    endloop
  endfacet
  facet normal 0.323003 0.633926 -0.702714
    outer loop
      vertex -3.8206 -5.25861 -18
      vertex -1.46946 -2.02254 -14
      vertex -2.00861 -6.18187 -18
    endloop
  endfacet
  facet normal -0.323003 0.633926 -0.702714
    outer loop
      vertex 1.46946 -2.02254 -14
      vertex 3.8206 -5.25861 -18
      vertex 2.00861 -6.18187 -18
    endloop
  endfacet
  facet normal -0.323004 0.633926 -0.702714
    outer loop
      vertex 1.46946 -2.02254 -14
      vertex 2.00861 -6.18187 -18
      vertex 0.772542 -2.37764 -14
    endloop
  endfacet
  facet normal -0.633926 0.323003 -0.702714
    outer loop
      vertex 5.25861 -3.8206 -18
      vertex 2.37764 -0.772542 -14
      vertex 6.18187 -2.00861 -18
    endloop
  endfacet
  facet normal -0.633926 0.323004 -0.702714
    outer loop
      vertex 5.25861 -3.8206 -18
      vertex 2.02254 -1.46946 -14
      vertex 2.37764 -0.772542 -14
    endloop
  endfacet
  facet normal 0.702713 -0.1113 -0.702713
    outer loop
      vertex -6.5 0 -18
      vertex -2.37764 0.772542 -14
      vertex -2.5 0 -14
    endloop
  endfacet
  facet normal 0.702713 -0.111298 -0.702714
    outer loop
      vertex -2.37764 0.772542 -14
      vertex -6.5 0 -18
      vertex -6.18187 2.00861 -18
    endloop
  endfacet
  facet normal 0.1113 0.702713 -0.702713
    outer loop
      vertex 0 -6.5 -18
      vertex -0.772542 -2.37764 -14
      vertex 0 -2.5 -14
    endloop
  endfacet
  facet normal 0.111298 0.702713 -0.702714
    outer loop
      vertex -0.772542 -2.37764 -14
      vertex 0 -6.5 -18
      vertex -2.00861 -6.18187 -18
    endloop
  endfacet
  facet normal -0.702713 0.1113 -0.702713
    outer loop
      vertex 6.5 0 -18
      vertex 2.37764 -0.772542 -14
      vertex 2.5 0 -14
    endloop
  endfacet
  facet normal -0.702713 0.111298 -0.702714
    outer loop
      vertex 2.37764 -0.772542 -14
      vertex 6.5 0 -18
      vertex 6.18187 -2.00861 -18
    endloop
  endfacet
  facet normal 0.987688 0.156436 0
    outer loop
      vertex 10 0 20
      vertex 9.51056 3.09017 -18
      vertex 9.51056 3.09017 20
    endloop
  endfacet
  facet normal 0.987688 0.156436 0
    outer loop
      vertex 9.51056 3.09017 -18
      vertex 10 0 20
      vertex 10 0 -18
    endloop
  endfacet
  facet normal -0.987687 0.15644 0
    outer loop
      vertex -9.51056 3.09017 -18
      vertex -9.72685 1.72462 -15
      vertex -9.51056 3.09017 20
    endloop
  endfacet
  facet normal -0.987688 0.156436 -1.92597e-06
    outer loop
      vertex -10 0 -18
      vertex -9.72685 1.72462 -15
      vertex -9.51056 3.09017 -18
    endloop
  endfacet
  facet normal -0.987689 0.156433 0
    outer loop
      vertex -9.72685 1.72462 -15
      vertex -10 0 -18
      vertex -10 0 -15
    endloop
  endfacet
  facet normal -0.987687 0.15644 0
    outer loop
      vertex -9.51056 3.09017 20
      vertex -9.72685 1.72462 -15
      vertex -9.72685 1.72462 20
    endloop
  endfacet
  facet normal 0.156436 0.987688 -0
    outer loop
      vertex 3.09017 9.51056 -18
      vertex 0 10 20
      vertex 3.09017 9.51056 20
    endloop
  endfacet
  facet normal 0.156436 0.987688 0
    outer loop
      vertex 0 10 20
      vertex 3.09017 9.51056 -18
      vertex 0 10 -18
    endloop
  endfacet
  facet normal -0.156436 -0.987688 0
    outer loop
      vertex -3.09017 -9.51056 -18
      vertex 0 -10 -15
      vertex -3.09017 -9.51056 -15
    endloop
  endfacet
  facet normal -0.156436 -0.987688 -0
    outer loop
      vertex 0 -10 -15
      vertex -3.09017 -9.51056 -18
      vertex 0 -10 -18
    endloop
  endfacet
  facet normal 0.707107 0.707107 0
    outer loop
      vertex 8.09017 5.87785 20
      vertex 5.87785 8.09017 -18
      vertex 5.87785 8.09017 20
    endloop
  endfacet
  facet normal 0.707107 0.707107 0
    outer loop
      vertex 5.87785 8.09017 -18
      vertex 8.09017 5.87785 20
      vertex 8.09017 5.87785 -18
    endloop
  endfacet
  facet normal 0.891007 0.45399 0
    outer loop
      vertex 9.51056 3.09017 20
      vertex 8.09017 5.87785 -18
      vertex 8.09017 5.87785 20
    endloop
  endfacet
  facet normal 0.891007 0.45399 0
    outer loop
      vertex 8.09017 5.87785 -18
      vertex 9.51056 3.09017 20
      vertex 9.51056 3.09017 -18
    endloop
  endfacet
  facet normal 0.45399 0.891007 -0
    outer loop
      vertex 5.87785 8.09017 -18
      vertex 3.09017 9.51056 20
      vertex 5.87785 8.09017 20
    endloop
  endfacet
  facet normal 0.45399 0.891007 0
    outer loop
      vertex 3.09017 9.51056 20
      vertex 5.87785 8.09017 -18
      vertex 3.09017 9.51056 -18
    endloop
  endfacet
  facet normal -0.45399 0.891007 0
    outer loop
      vertex -3.09017 9.51056 -18
      vertex -5.87785 8.09017 20
      vertex -3.09017 9.51056 20
    endloop
  endfacet
  facet normal -0.45399 0.891007 0
    outer loop
      vertex -5.87785 8.09017 20
      vertex -3.09017 9.51056 -18
      vertex -5.87785 8.09017 -18
    endloop
  endfacet
  facet normal -0.707107 0.707107 0
    outer loop
      vertex -8.09017 5.87785 -18
      vertex -5.87785 8.09017 20
      vertex -5.87785 8.09017 -18
    endloop
  endfacet
  facet normal -0.707107 0.707107 0
    outer loop
      vertex -5.87785 8.09017 20
      vertex -8.09017 5.87785 -18
      vertex -8.09017 5.87785 20
    endloop
  endfacet
  facet normal -0.156436 0.987688 0
    outer loop
      vertex 0 10 -18
      vertex -3.09017 9.51056 20
      vertex 0 10 20
    endloop
  endfacet
  facet normal -0.156436 0.987688 0
    outer loop
      vertex -3.09017 9.51056 20
      vertex 0 10 -18
      vertex -3.09017 9.51056 -18
    endloop
  endfacet
  facet normal 0.891007 -0.45399 0
    outer loop
      vertex 8.09017 -5.87785 20
      vertex 9.51056 -3.09017 -18
      vertex 9.51056 -3.09017 20
    endloop
  endfacet
  facet normal 0.891007 -0.45399 0
    outer loop
      vertex 9.51056 -3.09017 -18
      vertex 8.09017 -5.87785 20
      vertex 8.09017 -5.87785 -18
    endloop
  endfacet
  facet normal -0.707107 -0.707107 0
    outer loop
      vertex -5.87785 -8.09017 -18
      vertex -8.09017 -5.87785 -15
      vertex -8.09017 -5.87785 -18
    endloop
  endfacet
  facet normal -0.707107 -0.707107 0
    outer loop
      vertex -8.09017 -5.87785 -15
      vertex -5.87785 -8.09017 -18
      vertex -5.87785 -8.09017 -15
    endloop
  endfacet
  facet normal -0.987688 -0.156436 0
    outer loop
      vertex -9.51056 -3.09017 -18
      vertex -10 0 -15
      vertex -10 0 -18
    endloop
  endfacet
  facet normal -0.987688 -0.156436 0
    outer loop
      vertex -10 0 -15
      vertex -9.51056 -3.09017 -18
      vertex -9.51056 -3.09017 -15
    endloop
  endfacet
  facet normal -0.891007 0.45399 0
    outer loop
      vertex -9.51056 3.09017 -18
      vertex -8.09017 5.87785 20
      vertex -8.09017 5.87785 -18
    endloop
  endfacet
  facet normal -0.891007 0.45399 0
    outer loop
      vertex -8.09017 5.87785 20
      vertex -9.51056 3.09017 -18
      vertex -9.51056 3.09017 20
    endloop
  endfacet
  facet normal 0 0 1
    outer loop
      vertex 2.5 0 20
      vertex 10 0 20
      vertex 9.51056 3.09017 20
    endloop
  endfacet
  facet normal 0 0 1
    outer loop
      vertex 2.37764 0.772542 20
      vertex 9.51056 3.09017 20
      vertex 8.09017 5.87785 20
    endloop
  endfacet
  facet normal 0 0 1
    outer loop
      vertex 10 0 20
      vertex 2.5 0 20
      vertex 9.51056 -3.09017 20
    endloop
  endfacet
  facet normal 0 0 1
    outer loop
      vertex 2.02254 1.46946 20
      vertex 8.09017 5.87785 20
      vertex 5.87785 8.09017 20
    endloop
  endfacet
  facet normal -0 0 1
    outer loop
      vertex 2.37764 -0.772542 20
      vertex 9.51056 -3.09017 20
      vertex 2.5 0 20
    endloop
  endfacet
  facet normal 0 0 1
    outer loop
      vertex 1.46946 2.02254 20
      vertex 5.87785 8.09017 20
      vertex 3.09017 9.51056 20
    endloop
  endfacet
  facet normal 0 0 1
    outer loop
      vertex 9.51056 -3.09017 20
      vertex 2.37764 -0.772542 20
      vertex 8.09017 -5.87785 20
    endloop
  endfacet
  facet normal -0 0 1
    outer loop
      vertex 2.02254 -1.46946 20
      vertex 8.09017 -5.87785 20
      vertex 2.37764 -0.772542 20
    endloop
  endfacet
  facet normal 0 0 1
    outer loop
      vertex 9.51056 3.09017 20
      vertex 2.37764 0.772542 20
      vertex 2.5 0 20
    endloop
  endfacet
  facet normal 0 0 1
    outer loop
      vertex 8.09017 5.87785 20
      vertex 2.02254 1.46946 20
      vertex 2.37764 0.772542 20
    endloop
  endfacet
  facet normal 0 0 1
    outer loop
      vertex 5.87785 8.09017 20
      vertex 1.46946 2.02254 20
      vertex 2.02254 1.46946 20
    endloop
  endfacet
  facet normal 0 0 1
    outer loop
      vertex 3.09017 9.51056 20
      vertex 0.772542 2.37764 20
      vertex 1.46946 2.02254 20
    endloop
  endfacet
  facet normal 0 0 1
    outer loop
      vertex 0 10 20
      vertex 0.772542 2.37764 20
      vertex 3.09017 9.51056 20
    endloop
  endfacet
  facet normal 0 0 1
    outer loop
      vertex 0 10 20
      vertex 0 2.5 20
      vertex 0.772542 2.37764 20
    endloop
  endfacet
  facet normal 0 0 1
    outer loop
      vertex 0 10 20
      vertex -0.772542 2.37764 20
      vertex 0 2.5 20
    endloop
  endfacet
  facet normal -0 0 1
    outer loop
      vertex -3.09017 9.51056 20
      vertex -0.772542 2.37764 20
      vertex 0 10 20
    endloop
  endfacet
  facet normal 0 0 1
    outer loop
      vertex -0.772542 2.37764 20
      vertex -3.09017 9.51056 20
      vertex -1.46946 2.02254 20
    endloop
  endfacet
  facet normal -0 0 1
    outer loop
      vertex -5.87785 8.09017 20
      vertex -1.46946 2.02254 20
      vertex -3.09017 9.51056 20
    endloop
  endfacet
  facet normal -0 0 1
    outer loop
      vertex -8.09017 5.87785 20
      vertex -2.02254 1.46946 20
      vertex -5.87785 8.09017 20
    endloop
  endfacet
  facet normal 0 0 1
    outer loop
      vertex -1.46946 2.02254 20
      vertex -5.87785 8.09017 20
      vertex -2.02254 1.46946 20
    endloop
  endfacet
  facet normal 0 0 1
    outer loop
      vertex 8.09017 -5.87785 20
      vertex 2.02254 -1.46946 20
      vertex 5.87785 -8.09017 20
    endloop
  endfacet
  facet normal -0 0 1
    outer loop
      vertex 1.46946 -2.02254 20
      vertex 5.87785 -8.09017 20
      vertex 2.02254 -1.46946 20
    endloop
  endfacet
  facet normal -0 0 1
    outer loop
      vertex 0.315582 -7.42752 20
      vertex 5.87785 -8.09017 20
      vertex 1.46946 -2.02254 20
    endloop
  endfacet
  facet normal 0 0 1
    outer loop
      vertex 5.87785 -8.09017 20
      vertex 0.315582 -7.42752 20
      vertex 3.09017 -9.51056 20
    endloop
  endfacet
  facet normal 0 0 1
    outer loop
      vertex 0.315582 -7.42752 20
      vertex 1.46946 -2.02254 20
      vertex 0.772542 -2.37764 20
    endloop
  endfacet
  facet normal 0 0 1
    outer loop
      vertex 3.09017 -9.51056 20
      vertex 0.315582 -7.42752 20
      vertex 1.72462 -9.72685 20
    endloop
  endfacet
  facet normal -0 0 1
    outer loop
      vertex 0 -2.5 20
      vertex 0.315582 -7.42752 20
      vertex 0.772542 -2.37764 20
    endloop
  endfacet
  facet normal 0 0 1
    outer loop
      vertex -0.772542 -2.37764 20
      vertex 0.315582 -7.42752 20
      vertex 0 -2.5 20
    endloop
  endfacet
  facet normal 0 0 1
    outer loop
      vertex -3.25127 -3.25127 20
      vertex -0.772542 -2.37764 20
      vertex -1.46946 -2.02254 20
    endloop
  endfacet
  facet normal 0 0 1
    outer loop
      vertex -3.25127 -3.25127 20
      vertex -1.46946 -2.02254 20
      vertex -2.02254 -1.46946 20
    endloop
  endfacet
  facet normal 0 0 1
    outer loop
      vertex -3.25127 -3.25127 20
      vertex -2.02254 -1.46946 20
      vertex -2.37764 -0.772542 20
    endloop
  endfacet
  facet normal 0 0 1
    outer loop
      vertex -0.772542 -2.37764 20
      vertex -3.25127 -3.25127 20
      vertex 0.315582 -7.42752 20
    endloop
  endfacet
  facet normal 0 0 1
    outer loop
      vertex -7.42752 0.315582 20
      vertex -2.37764 -0.772542 20
      vertex -2.5 0 20
    endloop
  endfacet
  facet normal 0 -0 1
    outer loop
      vertex -7.42752 0.315582 20
      vertex -2.02254 1.46946 20
      vertex -8.09017 5.87785 20
    endloop
  endfacet
  facet normal 0 0 1
    outer loop
      vertex -2.02254 1.46946 20
      vertex -7.42752 0.315582 20
      vertex -2.37764 0.772542 20
    endloop
  endfacet
  facet normal 0 0 1
    outer loop
      vertex -2.37764 -0.772542 20
      vertex -7.42752 0.315582 20
      vertex -3.25127 -3.25127 20
    endloop
  endfacet
  facet normal 0 0 1
    outer loop
      vertex -2.37764 0.772542 20
      vertex -7.42752 0.315582 20
      vertex -2.5 0 20
    endloop
  endfacet
  facet normal -0 0 1
    outer loop
      vertex -9.51056 3.09017 20
      vertex -7.42752 0.315582 20
      vertex -8.09017 5.87785 20
    endloop
  endfacet
  facet normal 0 0 1
    outer loop
      vertex -7.42752 0.315582 20
      vertex -9.51056 3.09017 20
      vertex -9.72685 1.72462 20
    endloop
  endfacet
  facet normal 0.987688 -0.156436 0
    outer loop
      vertex 9.51056 -3.09017 20
      vertex 10 0 -18
      vertex 10 0 20
    endloop
  endfacet
  facet normal 0.987688 -0.156436 0
    outer loop
      vertex 10 0 -18
      vertex 9.51056 -3.09017 20
      vertex 9.51056 -3.09017 -18
    endloop
  endfacet
  facet normal 0.156433 -0.987689 0
    outer loop
      vertex 0 -10 -15
      vertex 0 -10 -18
      vertex 1.72462 -9.72685 -15
    endloop
  endfacet
  facet normal 0.15644 -0.987687 0
    outer loop
      vertex 1.72462 -9.72685 -15
      vertex 3.09017 -9.51056 20
      vertex 1.72462 -9.72685 20
    endloop
  endfacet
  facet normal 0.15644 -0.987687 0
    outer loop
      vertex 1.72462 -9.72685 -15
      vertex 3.09017 -9.51056 -18
      vertex 3.09017 -9.51056 20
    endloop
  endfacet
  facet normal 0.156436 -0.987688 -1.92597e-06
    outer loop
      vertex 3.09017 -9.51056 -18
      vertex 1.72462 -9.72685 -15
      vertex 0 -10 -18
    endloop
  endfacet
  facet normal 0.707107 -0.707107 0
    outer loop
      vertex 5.87785 -8.09017 20
      vertex 8.09017 -5.87785 -18
      vertex 8.09017 -5.87785 20
    endloop
  endfacet
  facet normal 0.707107 -0.707107 0
    outer loop
      vertex 8.09017 -5.87785 -18
      vertex 5.87785 -8.09017 20
      vertex 5.87785 -8.09017 -18
    endloop
  endfacet
  facet normal -0.45399 -0.891007 0
    outer loop
      vertex -5.87785 -8.09017 -18
      vertex -3.09017 -9.51056 -15
      vertex -5.87785 -8.09017 -15
    endloop
  endfacet
  facet normal -0.45399 -0.891007 -0
    outer loop
      vertex -3.09017 -9.51056 -15
      vertex -5.87785 -8.09017 -18
      vertex -3.09017 -9.51056 -18
    endloop
  endfacet
  facet normal -0.891007 -0.45399 0
    outer loop
      vertex -8.09017 -5.87785 -18
      vertex -9.51056 -3.09017 -15
      vertex -9.51056 -3.09017 -18
    endloop
  endfacet
  facet normal -0.891007 -0.45399 0
    outer loop
      vertex -9.51056 -3.09017 -15
      vertex -8.09017 -5.87785 -18
      vertex -8.09017 -5.87785 -15
    endloop
  endfacet
  facet normal 0.45399 -0.891007 0
    outer loop
      vertex 3.09017 -9.51056 -18
      vertex 5.87785 -8.09017 20
      vertex 3.09017 -9.51056 20
    endloop
  endfacet
  facet normal 0.45399 -0.891007 0
    outer loop
      vertex 5.87785 -8.09017 20
      vertex 3.09017 -9.51056 -18
      vertex 5.87785 -8.09017 -18
    endloop
  endfacet
endsolid OpenSCAD_Model
