solid OpenSCAD_Model
  facet normal -0.999506 -0.0314227 0
    outer loop
      vertex 1 0 -11.5
      vertex 0.998026 0.0627899 2.395
      vertex 0.998026 0.0627899 -11.5
    endloop
  endfacet
  facet normal -0.999506 -0.0314227 0
    outer loop
      vertex 0.998026 0.0627899 2.395
      vertex 1 0 -11.5
      vertex 1 0 2.395
    endloop
  endfacet
  facet normal 0.999506 -0.0314227 0
    outer loop
      vertex -1 0 2.395
      vertex -0.998026 0.0627899 -11.5
      vertex -0.998026 0.0627899 2.395
    endloop
  endfacet
  facet normal 0.999506 -0.0314227 0
    outer loop
      vertex -0.998026 0.0627899 -11.5
      vertex -1 0 2.395
      vertex -1 0 -11.5
    endloop
  endfacet
  facet normal -0.0314227 -0.999506 0
    outer loop
      vertex 0 1 -11.5
      vertex 0.0627899 0.998026 2.395
      vertex 0 1 2.395
    endloop
  endfacet
  facet normal -0.0314227 -0.999506 -0
    outer loop
      vertex 0.0627899 0.998026 2.395
      vertex 0 1 -11.5
      vertex 0.0627899 0.998026 -11.5
    endloop
  endfacet
  facet normal -0.707107 -0.707107 0
    outer loop
      vertex 0.728969 0.684546 -11.5
      vertex 0.684546 0.728969 2.395
      vertex 0.684546 0.728969 -11.5
    endloop
  endfacet
  facet normal -0.707107 -0.707107 0
    outer loop
      vertex 0.684546 0.728969 2.395
      vertex 0.728969 0.684546 -11.5
      vertex 0.728969 0.684546 2.395
    endloop
  endfacet
  facet normal 0.661315 -0.750108 0
    outer loop
      vertex -0.684546 0.728969 -11.5
      vertex -0.637424 0.770513 2.395
      vertex -0.684546 0.728969 2.395
    endloop
  endfacet
  facet normal 0.661315 -0.750108 0
    outer loop
      vertex -0.637424 0.770513 2.395
      vertex -0.684546 0.728969 -11.5
      vertex -0.637424 0.770513 -11.5
    endloop
  endfacet
  facet normal -0.917749 -0.39716 0
    outer loop
      vertex 0.929776 0.368124 -11.5
      vertex 0.904826 0.425778 2.395
      vertex 0.904826 0.425778 -11.5
    endloop
  endfacet
  facet normal -0.917749 -0.39716 0
    outer loop
      vertex 0.904826 0.425778 2.395
      vertex 0.929776 0.368124 -11.5
      vertex 0.929776 0.368124 2.395
    endloop
  endfacet
  facet normal 0.860737 -0.50905 0
    outer loop
      vertex -0.876307 0.481753 2.395
      vertex -0.844327 0.535827 -11.5
      vertex -0.844327 0.535827 2.395
    endloop
  endfacet
  facet normal 0.860737 -0.50905 0
    outer loop
      vertex -0.844327 0.535827 -11.5
      vertex -0.876307 0.481753 2.395
      vertex -0.876307 0.481753 -11.5
    endloop
  endfacet
  facet normal 0.750108 -0.661315 0
    outer loop
      vertex -0.770513 0.637424 2.395
      vertex -0.728969 0.684546 -11.5
      vertex -0.728969 0.684546 2.395
    endloop
  endfacet
  facet normal 0.750108 -0.661315 0
    outer loop
      vertex -0.728969 0.684546 -11.5
      vertex -0.770513 0.637424 2.395
      vertex -0.770513 0.637424 -11.5
    endloop
  endfacet
  facet normal 0.156443 -0.987687 0
    outer loop
      vertex -0.187381 0.982286 -11.5
      vertex -0.125333 0.992114 2.395
      vertex -0.187381 0.982286 2.395
    endloop
  endfacet
  facet normal 0.156443 -0.987687 0
    outer loop
      vertex -0.125333 0.992114 2.395
      vertex -0.187381 0.982286 -11.5
      vertex -0.125333 0.992114 -11.5
    endloop
  endfacet
  facet normal -0.891017 0.453969 0
    outer loop
      vertex 0.876307 -0.481753 -11.5
      vertex 0.904826 -0.425778 2.395
      vertex 0.904826 -0.425778 -11.5
    endloop
  endfacet
  facet normal -0.891017 0.453969 0
    outer loop
      vertex 0.904826 -0.425778 2.395
      vertex 0.876307 -0.481753 -11.5
      vertex 0.876307 -0.481753 2.395
    endloop
  endfacet
  facet normal -0.218125 0.975921 0
    outer loop
      vertex 0.24869 -0.968583 -11.5
      vertex 0.187381 -0.982286 2.395
      vertex 0.24869 -0.968583 2.395
    endloop
  endfacet
  facet normal -0.218125 0.975921 0
    outer loop
      vertex 0.187381 -0.982286 2.395
      vertex 0.24869 -0.968583 -11.5
      vertex 0.187381 -0.982286 -11.5
    endloop
  endfacet
  facet normal -0.707107 0.707107 0
    outer loop
      vertex 0.684546 -0.728969 -11.5
      vertex 0.728969 -0.684546 2.395
      vertex 0.728969 -0.684546 -11.5
    endloop
  endfacet
  facet normal -0.707107 0.707107 0
    outer loop
      vertex 0.728969 -0.684546 2.395
      vertex 0.684546 -0.728969 -11.5
      vertex 0.684546 -0.728969 2.395
    endloop
  endfacet
  facet normal -0.960291 0.279001 0
    outer loop
      vertex 0.951056 -0.309016 -11.5
      vertex 0.968583 -0.24869 2.395
      vertex 0.968583 -0.24869 -11.5
    endloop
  endfacet
  facet normal -0.960291 0.279001 0
    outer loop
      vertex 0.968583 -0.24869 2.395
      vertex 0.951056 -0.309016 -11.5
      vertex 0.951056 -0.309016 2.395
    endloop
  endfacet
  facet normal 0.338735 0.940882 -0
    outer loop
      vertex -0.309016 -0.951056 -11.5
      vertex -0.368124 -0.929776 2.395
      vertex -0.309016 -0.951056 2.395
    endloop
  endfacet
  facet normal 0.338735 0.940882 0
    outer loop
      vertex -0.368124 -0.929776 2.395
      vertex -0.309016 -0.951056 -11.5
      vertex -0.368124 -0.929776 -11.5
    endloop
  endfacet
  facet normal 0.790162 0.612898 0
    outer loop
      vertex -0.770513 -0.637424 2.395
      vertex -0.809016 -0.587785 -11.5
      vertex -0.809016 -0.587785 2.395
    endloop
  endfacet
  facet normal 0.790162 0.612898 0
    outer loop
      vertex -0.809016 -0.587785 -11.5
      vertex -0.770513 -0.637424 2.395
      vertex -0.770513 -0.637424 -11.5
    endloop
  endfacet
  facet normal 0.960291 0.279001 0
    outer loop
      vertex -0.951056 -0.309016 2.395
      vertex -0.968583 -0.24869 -11.5
      vertex -0.968583 -0.24869 2.395
    endloop
  endfacet
  facet normal 0.960291 0.279001 0
    outer loop
      vertex -0.968583 -0.24869 -11.5
      vertex -0.951056 -0.309016 2.395
      vertex -0.951056 -0.309016 -11.5
    endloop
  endfacet
  facet normal -0.987687 -0.156443 0
    outer loop
      vertex 0.992114 0.125333 -11.5
      vertex 0.982286 0.187381 2.395
      vertex 0.982286 0.187381 -11.5
    endloop
  endfacet
  facet normal -0.987687 -0.156443 0
    outer loop
      vertex 0.982286 0.187381 2.395
      vertex 0.992114 0.125333 -11.5
      vertex 0.992114 0.125333 2.395
    endloop
  endfacet
  facet normal -0.995562 -0.0941073 0
    outer loop
      vertex 0.998026 0.0627899 -11.5
      vertex 0.992114 0.125333 2.395
      vertex 0.992114 0.125333 -11.5
    endloop
  endfacet
  facet normal -0.995562 -0.0941073 0
    outer loop
      vertex 0.992114 0.125333 2.395
      vertex 0.998026 0.0627899 -11.5
      vertex 0.998026 0.0627899 2.395
    endloop
  endfacet
  facet normal -0.960291 -0.279001 0
    outer loop
      vertex 0.968583 0.24869 -11.5
      vertex 0.951056 0.309016 2.395
      vertex 0.951056 0.309016 -11.5
    endloop
  endfacet
  facet normal -0.960291 -0.279001 0
    outer loop
      vertex 0.951056 0.309016 2.395
      vertex 0.968583 0.24869 -11.5
      vertex 0.968583 0.24869 2.395
    endloop
  endfacet
  facet normal -0.891017 -0.453969 0
    outer loop
      vertex 0.904826 0.425778 -11.5
      vertex 0.876307 0.481753 2.395
      vertex 0.876307 0.481753 -11.5
    endloop
  endfacet
  facet normal -0.891017 -0.453969 0
    outer loop
      vertex 0.876307 0.481753 2.395
      vertex 0.904826 0.425778 -11.5
      vertex 0.904826 0.425778 2.395
    endloop
  endfacet
  facet normal -0.218125 -0.975921 0
    outer loop
      vertex 0.187381 0.982286 -11.5
      vertex 0.24869 0.968583 2.395
      vertex 0.187381 0.982286 2.395
    endloop
  endfacet
  facet normal -0.218125 -0.975921 -0
    outer loop
      vertex 0.24869 0.968583 2.395
      vertex 0.187381 0.982286 -11.5
      vertex 0.24869 0.968583 -11.5
    endloop
  endfacet
  facet normal -0.279001 -0.960291 0
    outer loop
      vertex 0.24869 0.968583 -11.5
      vertex 0.309016 0.951056 2.395
      vertex 0.24869 0.968583 2.395
    endloop
  endfacet
  facet normal -0.279001 -0.960291 -0
    outer loop
      vertex 0.309016 0.951056 2.395
      vertex 0.24869 0.968583 -11.5
      vertex 0.309016 0.951056 -11.5
    endloop
  endfacet
  facet normal -0.156443 -0.987687 0
    outer loop
      vertex 0.125333 0.992114 -11.5
      vertex 0.187381 0.982286 2.395
      vertex 0.125333 0.992114 2.395
    endloop
  endfacet
  facet normal -0.156443 -0.987687 -0
    outer loop
      vertex 0.187381 0.982286 2.395
      vertex 0.125333 0.992114 -11.5
      vertex 0.187381 0.982286 -11.5
    endloop
  endfacet
  facet normal -0.562088 -0.827078 0
    outer loop
      vertex 0.535827 0.844327 -11.5
      vertex 0.587785 0.809016 2.395
      vertex 0.535827 0.844327 2.395
    endloop
  endfacet
  facet normal -0.562088 -0.827078 -0
    outer loop
      vertex 0.587785 0.809016 2.395
      vertex 0.535827 0.844327 -11.5
      vertex 0.587785 0.809016 -11.5
    endloop
  endfacet
  facet normal -0.50905 -0.860737 0
    outer loop
      vertex 0.481753 0.876307 -11.5
      vertex 0.535827 0.844327 2.395
      vertex 0.481753 0.876307 2.395
    endloop
  endfacet
  facet normal -0.50905 -0.860737 -0
    outer loop
      vertex 0.535827 0.844327 2.395
      vertex 0.481753 0.876307 -11.5
      vertex 0.535827 0.844327 -11.5
    endloop
  endfacet
  facet normal 0.975921 -0.218125 0
    outer loop
      vertex -0.982286 0.187381 2.395
      vertex -0.968583 0.24869 -11.5
      vertex -0.968583 0.24869 2.395
    endloop
  endfacet
  facet normal 0.975921 -0.218125 0
    outer loop
      vertex -0.968583 0.24869 -11.5
      vertex -0.982286 0.187381 2.395
      vertex -0.982286 0.187381 -11.5
    endloop
  endfacet
  facet normal 0.790162 -0.612898 0
    outer loop
      vertex -0.809016 0.587785 2.395
      vertex -0.770513 0.637424 -11.5
      vertex -0.770513 0.637424 2.395
    endloop
  endfacet
  facet normal 0.790162 -0.612898 0
    outer loop
      vertex -0.770513 0.637424 -11.5
      vertex -0.809016 0.587785 2.395
      vertex -0.809016 0.587785 -11.5
    endloop
  endfacet
  facet normal 0.960291 -0.279001 0
    outer loop
      vertex -0.968583 0.24869 2.395
      vertex -0.951056 0.309016 -11.5
      vertex -0.951056 0.309016 2.395
    endloop
  endfacet
  facet normal 0.960291 -0.279001 0
    outer loop
      vertex -0.951056 0.309016 -11.5
      vertex -0.968583 0.24869 2.395
      vertex -0.968583 0.24869 -11.5
    endloop
  endfacet
  facet normal 0.987687 -0.156443 0
    outer loop
      vertex -0.992114 0.125333 2.395
      vertex -0.982286 0.187381 -11.5
      vertex -0.982286 0.187381 2.395
    endloop
  endfacet
  facet normal 0.987687 -0.156443 0
    outer loop
      vertex -0.982286 0.187381 -11.5
      vertex -0.992114 0.125333 2.395
      vertex -0.992114 0.125333 -11.5
    endloop
  endfacet
  facet normal 0.453969 -0.891017 0
    outer loop
      vertex -0.481753 0.876307 -11.5
      vertex -0.425778 0.904826 2.395
      vertex -0.481753 0.876307 2.395
    endloop
  endfacet
  facet normal 0.453969 -0.891017 0
    outer loop
      vertex -0.425778 0.904826 2.395
      vertex -0.481753 0.876307 -11.5
      vertex -0.425778 0.904826 -11.5
    endloop
  endfacet
  facet normal 0.50905 -0.860737 0
    outer loop
      vertex -0.535827 0.844327 -11.5
      vertex -0.481753 0.876307 2.395
      vertex -0.535827 0.844327 2.395
    endloop
  endfacet
  facet normal 0.50905 -0.860737 0
    outer loop
      vertex -0.481753 0.876307 2.395
      vertex -0.535827 0.844327 -11.5
      vertex -0.481753 0.876307 -11.5
    endloop
  endfacet
  facet normal 0.562088 -0.827078 0
    outer loop
      vertex -0.587785 0.809016 -11.5
      vertex -0.535827 0.844327 2.395
      vertex -0.587785 0.809016 2.395
    endloop
  endfacet
  facet normal 0.562088 -0.827078 0
    outer loop
      vertex -0.535827 0.844327 2.395
      vertex -0.587785 0.809016 -11.5
      vertex -0.535827 0.844327 -11.5
    endloop
  endfacet
  facet normal 0.218125 -0.975921 0
    outer loop
      vertex -0.24869 0.968583 -11.5
      vertex -0.187381 0.982286 2.395
      vertex -0.24869 0.968583 2.395
    endloop
  endfacet
  facet normal 0.218125 -0.975921 0
    outer loop
      vertex -0.187381 0.982286 2.395
      vertex -0.24869 0.968583 -11.5
      vertex -0.187381 0.982286 -11.5
    endloop
  endfacet
  facet normal 0.0314227 -0.999506 0
    outer loop
      vertex -0.0627899 0.998026 -11.5
      vertex 0 1 2.395
      vertex -0.0627899 0.998026 2.395
    endloop
  endfacet
  facet normal 0.0314227 -0.999506 0
    outer loop
      vertex 0 1 2.395
      vertex -0.0627899 0.998026 -11.5
      vertex 0 1 -11.5
    endloop
  endfacet
  facet normal -0.338735 0.940882 0
    outer loop
      vertex 0.368124 -0.929776 -11.5
      vertex 0.309016 -0.951056 2.395
      vertex 0.368124 -0.929776 2.395
    endloop
  endfacet
  facet normal -0.338735 0.940882 0
    outer loop
      vertex 0.309016 -0.951056 2.395
      vertex 0.368124 -0.929776 -11.5
      vertex 0.309016 -0.951056 -11.5
    endloop
  endfacet
  facet normal -0.999506 0.0314227 0
    outer loop
      vertex 0.998026 -0.0627899 -11.5
      vertex 1 0 2.395
      vertex 1 0 -11.5
    endloop
  endfacet
  facet normal -0.999506 0.0314227 0
    outer loop
      vertex 1 0 2.395
      vertex 0.998026 -0.0627899 -11.5
      vertex 0.998026 -0.0627899 2.395
    endloop
  endfacet
  facet normal 0.612898 0.790162 -0
    outer loop
      vertex -0.587785 -0.809016 -11.5
      vertex -0.637424 -0.770513 2.395
      vertex -0.587785 -0.809016 2.395
    endloop
  endfacet
  facet normal 0.612898 0.790162 0
    outer loop
      vertex -0.637424 -0.770513 2.395
      vertex -0.587785 -0.809016 -11.5
      vertex -0.637424 -0.770513 -11.5
    endloop
  endfacet
  facet normal 0.39716 0.917749 -0
    outer loop
      vertex -0.368124 -0.929776 -11.5
      vertex -0.425778 -0.904826 2.395
      vertex -0.368124 -0.929776 2.395
    endloop
  endfacet
  facet normal 0.39716 0.917749 0
    outer loop
      vertex -0.425778 -0.904826 2.395
      vertex -0.368124 -0.929776 -11.5
      vertex -0.425778 -0.904826 -11.5
    endloop
  endfacet
  facet normal 0.50905 0.860737 -0
    outer loop
      vertex -0.481753 -0.876307 -11.5
      vertex -0.535827 -0.844327 2.395
      vertex -0.481753 -0.876307 2.395
    endloop
  endfacet
  facet normal 0.50905 0.860737 0
    outer loop
      vertex -0.535827 -0.844327 2.395
      vertex -0.481753 -0.876307 -11.5
      vertex -0.535827 -0.844327 -11.5
    endloop
  endfacet
  facet normal 0.156443 0.987687 -0
    outer loop
      vertex -0.125333 -0.992114 -11.5
      vertex -0.187381 -0.982286 2.395
      vertex -0.125333 -0.992114 2.395
    endloop
  endfacet
  facet normal 0.156443 0.987687 0
    outer loop
      vertex -0.187381 -0.982286 2.395
      vertex -0.125333 -0.992114 -11.5
      vertex -0.187381 -0.982286 -11.5
    endloop
  endfacet
  facet normal 0.0314227 0.999506 -0
    outer loop
      vertex 0 -1 -11.5
      vertex -0.0627899 -0.998026 2.395
      vertex 0 -1 2.395
    endloop
  endfacet
  facet normal 0.0314227 0.999506 0
    outer loop
      vertex -0.0627899 -0.998026 2.395
      vertex 0 -1 -11.5
      vertex -0.0627899 -0.998026 -11.5
    endloop
  endfacet
  facet normal 0.860737 0.50905 0
    outer loop
      vertex -0.844327 -0.535827 2.395
      vertex -0.876307 -0.481753 -11.5
      vertex -0.876307 -0.481753 2.395
    endloop
  endfacet
  facet normal 0.860737 0.50905 0
    outer loop
      vertex -0.876307 -0.481753 -11.5
      vertex -0.844327 -0.535827 2.395
      vertex -0.844327 -0.535827 -11.5
    endloop
  endfacet
  facet normal 0.827078 0.562088 0
    outer loop
      vertex -0.809016 -0.587785 2.395
      vertex -0.844327 -0.535827 -11.5
      vertex -0.844327 -0.535827 2.395
    endloop
  endfacet
  facet normal 0.827078 0.562088 0
    outer loop
      vertex -0.844327 -0.535827 -11.5
      vertex -0.809016 -0.587785 2.395
      vertex -0.809016 -0.587785 -11.5
    endloop
  endfacet
  facet normal 0.995562 0.0941073 0
    outer loop
      vertex -0.992114 -0.125333 2.395
      vertex -0.998026 -0.0627899 -11.5
      vertex -0.998026 -0.0627899 2.395
    endloop
  endfacet
  facet normal 0.995562 0.0941073 0
    outer loop
      vertex -0.998026 -0.0627899 -11.5
      vertex -0.992114 -0.125333 2.395
      vertex -0.992114 -0.125333 -11.5
    endloop
  endfacet
  facet normal 0.975921 0.218125 0
    outer loop
      vertex -0.968583 -0.24869 2.395
      vertex -0.982286 -0.187381 -11.5
      vertex -0.982286 -0.187381 2.395
    endloop
  endfacet
  facet normal 0.975921 0.218125 0
    outer loop
      vertex -0.982286 -0.187381 -11.5
      vertex -0.968583 -0.24869 2.395
      vertex -0.968583 -0.24869 -11.5
    endloop
  endfacet
  facet normal 0.987687 0.156443 0
    outer loop
      vertex -0.982286 -0.187381 2.395
      vertex -0.992114 -0.125333 -11.5
      vertex -0.992114 -0.125333 2.395
    endloop
  endfacet
  facet normal 0.987687 0.156443 0
    outer loop
      vertex -0.992114 -0.125333 -11.5
      vertex -0.982286 -0.187381 2.395
      vertex -0.982286 -0.187381 -11.5
    endloop
  endfacet
  facet normal -0.975921 -0.218125 0
    outer loop
      vertex 0.982286 0.187381 -11.5
      vertex 0.968583 0.24869 2.395
      vertex 0.968583 0.24869 -11.5
    endloop
  endfacet
  facet normal -0.975921 -0.218125 0
    outer loop
      vertex 0.968583 0.24869 2.395
      vertex 0.982286 0.187381 -11.5
      vertex 0.982286 0.187381 2.395
    endloop
  endfacet
  facet normal -0.940882 -0.338735 0
    outer loop
      vertex 0.951056 0.309016 -11.5
      vertex 0.929776 0.368124 2.395
      vertex 0.929776 0.368124 -11.5
    endloop
  endfacet
  facet normal -0.940882 -0.338735 0
    outer loop
      vertex 0.929776 0.368124 2.395
      vertex 0.951056 0.309016 -11.5
      vertex 0.951056 0.309016 2.395
    endloop
  endfacet
  facet normal -0.790162 -0.612898 0
    outer loop
      vertex 0.809016 0.587785 -11.5
      vertex 0.770513 0.637424 2.395
      vertex 0.770513 0.637424 -11.5
    endloop
  endfacet
  facet normal -0.790162 -0.612898 0
    outer loop
      vertex 0.770513 0.637424 2.395
      vertex 0.809016 0.587785 -11.5
      vertex 0.809016 0.587785 2.395
    endloop
  endfacet
  facet normal -0.750108 -0.661315 0
    outer loop
      vertex 0.770513 0.637424 -11.5
      vertex 0.728969 0.684546 2.395
      vertex 0.728969 0.684546 -11.5
    endloop
  endfacet
  facet normal -0.750108 -0.661315 0
    outer loop
      vertex 0.728969 0.684546 2.395
      vertex 0.770513 0.637424 -11.5
      vertex 0.770513 0.637424 2.395
    endloop
  endfacet
  facet normal -0.827078 -0.562088 0
    outer loop
      vertex 0.844327 0.535827 -11.5
      vertex 0.809016 0.587785 2.395
      vertex 0.809016 0.587785 -11.5
    endloop
  endfacet
  facet normal -0.827078 -0.562088 0
    outer loop
      vertex 0.809016 0.587785 2.395
      vertex 0.844327 0.535827 -11.5
      vertex 0.844327 0.535827 2.395
    endloop
  endfacet
  facet normal -0.39716 -0.917749 0
    outer loop
      vertex 0.368124 0.929776 -11.5
      vertex 0.425778 0.904826 2.395
      vertex 0.368124 0.929776 2.395
    endloop
  endfacet
  facet normal -0.39716 -0.917749 -0
    outer loop
      vertex 0.425778 0.904826 2.395
      vertex 0.368124 0.929776 -11.5
      vertex 0.425778 0.904826 -11.5
    endloop
  endfacet
  facet normal -0.661315 -0.750108 0
    outer loop
      vertex 0.637424 0.770513 -11.5
      vertex 0.684546 0.728969 2.395
      vertex 0.637424 0.770513 2.395
    endloop
  endfacet
  facet normal -0.661315 -0.750108 -0
    outer loop
      vertex 0.684546 0.728969 2.395
      vertex 0.637424 0.770513 -11.5
      vertex 0.684546 0.728969 -11.5
    endloop
  endfacet
  facet normal -0.612898 -0.790162 0
    outer loop
      vertex 0.587785 0.809016 -11.5
      vertex 0.637424 0.770513 2.395
      vertex 0.587785 0.809016 2.395
    endloop
  endfacet
  facet normal -0.612898 -0.790162 -0
    outer loop
      vertex 0.637424 0.770513 2.395
      vertex 0.587785 0.809016 -11.5
      vertex 0.637424 0.770513 -11.5
    endloop
  endfacet
  facet normal 0.917749 -0.39716 0
    outer loop
      vertex -0.929776 0.368124 2.395
      vertex -0.904826 0.425778 -11.5
      vertex -0.904826 0.425778 2.395
    endloop
  endfacet
  facet normal 0.917749 -0.39716 0
    outer loop
      vertex -0.904826 0.425778 -11.5
      vertex -0.929776 0.368124 2.395
      vertex -0.929776 0.368124 -11.5
    endloop
  endfacet
  facet normal 0.940882 -0.338735 0
    outer loop
      vertex -0.951056 0.309016 2.395
      vertex -0.929776 0.368124 -11.5
      vertex -0.929776 0.368124 2.395
    endloop
  endfacet
  facet normal 0.940882 -0.338735 0
    outer loop
      vertex -0.929776 0.368124 -11.5
      vertex -0.951056 0.309016 2.395
      vertex -0.951056 0.309016 -11.5
    endloop
  endfacet
  facet normal 0.39716 -0.917749 0
    outer loop
      vertex -0.425778 0.904826 -11.5
      vertex -0.368124 0.929776 2.395
      vertex -0.425778 0.904826 2.395
    endloop
  endfacet
  facet normal 0.39716 -0.917749 0
    outer loop
      vertex -0.368124 0.929776 2.395
      vertex -0.425778 0.904826 -11.5
      vertex -0.368124 0.929776 -11.5
    endloop
  endfacet
  facet normal 0.338735 -0.940882 0
    outer loop
      vertex -0.368124 0.929776 -11.5
      vertex -0.309016 0.951056 2.395
      vertex -0.368124 0.929776 2.395
    endloop
  endfacet
  facet normal 0.338735 -0.940882 0
    outer loop
      vertex -0.309016 0.951056 2.395
      vertex -0.368124 0.929776 -11.5
      vertex -0.309016 0.951056 -11.5
    endloop
  endfacet
  facet normal 0.279001 -0.960291 0
    outer loop
      vertex -0.309016 0.951056 -11.5
      vertex -0.24869 0.968583 2.395
      vertex -0.309016 0.951056 2.395
    endloop
  endfacet
  facet normal 0.279001 -0.960291 0
    outer loop
      vertex -0.24869 0.968583 2.395
      vertex -0.309016 0.951056 -11.5
      vertex -0.24869 0.968583 -11.5
    endloop
  endfacet
  facet normal 0.0941073 -0.995562 0
    outer loop
      vertex -0.125333 0.992114 -11.5
      vertex -0.0627899 0.998026 2.395
      vertex -0.125333 0.992114 2.395
    endloop
  endfacet
  facet normal 0.0941073 -0.995562 0
    outer loop
      vertex -0.0627899 0.998026 2.395
      vertex -0.125333 0.992114 -11.5
      vertex -0.0627899 0.998026 -11.5
    endloop
  endfacet
  facet normal -0.156443 0.987687 0
    outer loop
      vertex 0.187381 -0.982286 -11.5
      vertex 0.125333 -0.992114 2.395
      vertex 0.187381 -0.982286 2.395
    endloop
  endfacet
  facet normal -0.156443 0.987687 0
    outer loop
      vertex 0.125333 -0.992114 2.395
      vertex 0.187381 -0.982286 -11.5
      vertex 0.125333 -0.992114 -11.5
    endloop
  endfacet
  facet normal -0.0314227 0.999506 0
    outer loop
      vertex 0.0627899 -0.998026 -11.5
      vertex 0 -1 2.395
      vertex 0.0627899 -0.998026 2.395
    endloop
  endfacet
  facet normal -0.0314227 0.999506 0
    outer loop
      vertex 0 -1 2.395
      vertex 0.0627899 -0.998026 -11.5
      vertex 0 -1 -11.5
    endloop
  endfacet
  facet normal -0.0941073 0.995562 0
    outer loop
      vertex 0.125333 -0.992114 -11.5
      vertex 0.0627899 -0.998026 2.395
      vertex 0.125333 -0.992114 2.395
    endloop
  endfacet
  facet normal -0.0941073 0.995562 0
    outer loop
      vertex 0.0627899 -0.998026 2.395
      vertex 0.125333 -0.992114 -11.5
      vertex 0.0627899 -0.998026 -11.5
    endloop
  endfacet
  facet normal -0.279001 0.960291 0
    outer loop
      vertex 0.309016 -0.951056 -11.5
      vertex 0.24869 -0.968583 2.395
      vertex 0.309016 -0.951056 2.395
    endloop
  endfacet
  facet normal -0.279001 0.960291 0
    outer loop
      vertex 0.24869 -0.968583 2.395
      vertex 0.309016 -0.951056 -11.5
      vertex 0.24869 -0.968583 -11.5
    endloop
  endfacet
  facet normal -0.562088 0.827078 0
    outer loop
      vertex 0.587785 -0.809016 -11.5
      vertex 0.535827 -0.844327 2.395
      vertex 0.587785 -0.809016 2.395
    endloop
  endfacet
  facet normal -0.562088 0.827078 0
    outer loop
      vertex 0.535827 -0.844327 2.395
      vertex 0.587785 -0.809016 -11.5
      vertex 0.535827 -0.844327 -11.5
    endloop
  endfacet
  facet normal -0.661315 0.750108 0
    outer loop
      vertex 0.684546 -0.728969 -11.5
      vertex 0.637424 -0.770513 2.395
      vertex 0.684546 -0.728969 2.395
    endloop
  endfacet
  facet normal -0.661315 0.750108 0
    outer loop
      vertex 0.637424 -0.770513 2.395
      vertex 0.684546 -0.728969 -11.5
      vertex 0.637424 -0.770513 -11.5
    endloop
  endfacet
  facet normal -0.612898 0.790162 0
    outer loop
      vertex 0.637424 -0.770513 -11.5
      vertex 0.587785 -0.809016 2.395
      vertex 0.637424 -0.770513 2.395
    endloop
  endfacet
  facet normal -0.612898 0.790162 0
    outer loop
      vertex 0.587785 -0.809016 2.395
      vertex 0.637424 -0.770513 -11.5
      vertex 0.587785 -0.809016 -11.5
    endloop
  endfacet
  facet normal -0.39716 0.917749 0
    outer loop
      vertex 0.425778 -0.904826 -11.5
      vertex 0.368124 -0.929776 2.395
      vertex 0.425778 -0.904826 2.395
    endloop
  endfacet
  facet normal -0.39716 0.917749 0
    outer loop
      vertex 0.368124 -0.929776 2.395
      vertex 0.425778 -0.904826 -11.5
      vertex 0.368124 -0.929776 -11.5
    endloop
  endfacet
  facet normal -0.50905 0.860737 0
    outer loop
      vertex 0.535827 -0.844327 -11.5
      vertex 0.481753 -0.876307 2.395
      vertex 0.535827 -0.844327 2.395
    endloop
  endfacet
  facet normal -0.50905 0.860737 0
    outer loop
      vertex 0.481753 -0.876307 2.395
      vertex 0.535827 -0.844327 -11.5
      vertex 0.481753 -0.876307 -11.5
    endloop
  endfacet
  facet normal -0.453969 0.891017 0
    outer loop
      vertex 0.481753 -0.876307 -11.5
      vertex 0.425778 -0.904826 2.395
      vertex 0.481753 -0.876307 2.395
    endloop
  endfacet
  facet normal -0.453969 0.891017 0
    outer loop
      vertex 0.425778 -0.904826 2.395
      vertex 0.481753 -0.876307 -11.5
      vertex 0.425778 -0.904826 -11.5
    endloop
  endfacet
  facet normal -0.827078 0.562088 0
    outer loop
      vertex 0.809016 -0.587785 -11.5
      vertex 0.844327 -0.535827 2.395
      vertex 0.844327 -0.535827 -11.5
    endloop
  endfacet
  facet normal -0.827078 0.562088 0
    outer loop
      vertex 0.844327 -0.535827 2.395
      vertex 0.809016 -0.587785 -11.5
      vertex 0.809016 -0.587785 2.395
    endloop
  endfacet
  facet normal -0.750108 0.661315 0
    outer loop
      vertex 0.728969 -0.684546 -11.5
      vertex 0.770513 -0.637424 2.395
      vertex 0.770513 -0.637424 -11.5
    endloop
  endfacet
  facet normal -0.750108 0.661315 0
    outer loop
      vertex 0.770513 -0.637424 2.395
      vertex 0.728969 -0.684546 -11.5
      vertex 0.728969 -0.684546 2.395
    endloop
  endfacet
  facet normal -0.940882 0.338735 0
    outer loop
      vertex 0.929776 -0.368124 -11.5
      vertex 0.951056 -0.309016 2.395
      vertex 0.951056 -0.309016 -11.5
    endloop
  endfacet
  facet normal -0.940882 0.338735 0
    outer loop
      vertex 0.951056 -0.309016 2.395
      vertex 0.929776 -0.368124 -11.5
      vertex 0.929776 -0.368124 2.395
    endloop
  endfacet
  facet normal -0.917749 0.39716 0
    outer loop
      vertex 0.904826 -0.425778 -11.5
      vertex 0.929776 -0.368124 2.395
      vertex 0.929776 -0.368124 -11.5
    endloop
  endfacet
  facet normal -0.917749 0.39716 0
    outer loop
      vertex 0.929776 -0.368124 2.395
      vertex 0.904826 -0.425778 -11.5
      vertex 0.904826 -0.425778 2.395
    endloop
  endfacet
  facet normal -0.995562 0.0941073 0
    outer loop
      vertex 0.992114 -0.125333 -11.5
      vertex 0.998026 -0.0627899 2.395
      vertex 0.998026 -0.0627899 -11.5
    endloop
  endfacet
  facet normal -0.995562 0.0941073 0
    outer loop
      vertex 0.998026 -0.0627899 2.395
      vertex 0.992114 -0.125333 -11.5
      vertex 0.992114 -0.125333 2.395
    endloop
  endfacet
  facet normal 0.707107 0.707107 0
    outer loop
      vertex -0.684546 -0.728969 2.395
      vertex -0.728969 -0.684546 -11.5
      vertex -0.728969 -0.684546 2.395
    endloop
  endfacet
  facet normal 0.707107 0.707107 0
    outer loop
      vertex -0.728969 -0.684546 -11.5
      vertex -0.684546 -0.728969 2.395
      vertex -0.684546 -0.728969 -11.5
    endloop
  endfacet
  facet normal 0.661315 0.750108 -0
    outer loop
      vertex -0.637424 -0.770513 -11.5
      vertex -0.684546 -0.728969 2.395
      vertex -0.637424 -0.770513 2.395
    endloop
  endfacet
  facet normal 0.661315 0.750108 0
    outer loop
      vertex -0.684546 -0.728969 2.395
      vertex -0.637424 -0.770513 -11.5
      vertex -0.684546 -0.728969 -11.5
    endloop
  endfacet
  facet normal 0.453969 0.891017 -0
    outer loop
      vertex -0.425778 -0.904826 -11.5
      vertex -0.481753 -0.876307 2.395
      vertex -0.425778 -0.904826 2.395
    endloop
  endfacet
  facet normal 0.453969 0.891017 0
    outer loop
      vertex -0.481753 -0.876307 2.395
      vertex -0.425778 -0.904826 -11.5
      vertex -0.481753 -0.876307 -11.5
    endloop
  endfacet
  facet normal 0.218125 0.975921 -0
    outer loop
      vertex -0.187381 -0.982286 -11.5
      vertex -0.24869 -0.968583 2.395
      vertex -0.187381 -0.982286 2.395
    endloop
  endfacet
  facet normal 0.218125 0.975921 0
    outer loop
      vertex -0.24869 -0.968583 2.395
      vertex -0.187381 -0.982286 -11.5
      vertex -0.24869 -0.968583 -11.5
    endloop
  endfacet
  facet normal 0.279001 0.960291 -0
    outer loop
      vertex -0.24869 -0.968583 -11.5
      vertex -0.309016 -0.951056 2.395
      vertex -0.24869 -0.968583 2.395
    endloop
  endfacet
  facet normal 0.279001 0.960291 0
    outer loop
      vertex -0.309016 -0.951056 2.395
      vertex -0.24869 -0.968583 -11.5
      vertex -0.309016 -0.951056 -11.5
    endloop
  endfacet
  facet normal 0.0941073 0.995562 -0
    outer loop
      vertex -0.0627899 -0.998026 -11.5
      vertex -0.125333 -0.992114 2.395
      vertex -0.0627899 -0.998026 2.395
    endloop
  endfacet
  facet normal 0.0941073 0.995562 0
    outer loop
      vertex -0.125333 -0.992114 2.395
      vertex -0.0627899 -0.998026 -11.5
      vertex -0.125333 -0.992114 -11.5
    endloop
  endfacet
  facet normal 0.750108 0.661315 0
    outer loop
      vertex -0.728969 -0.684546 2.395
      vertex -0.770513 -0.637424 -11.5
      vertex -0.770513 -0.637424 2.395
    endloop
  endfacet
  facet normal 0.750108 0.661315 0
    outer loop
      vertex -0.770513 -0.637424 -11.5
      vertex -0.728969 -0.684546 2.395
      vertex -0.728969 -0.684546 -11.5
    endloop
  endfacet
  facet normal 0.917749 0.39716 0
    outer loop
      vertex -0.904826 -0.425778 2.395
      vertex -0.929776 -0.368124 -11.5
      vertex -0.929776 -0.368124 2.395
    endloop
  endfacet
  facet normal 0.917749 0.39716 0
    outer loop
      vertex -0.929776 -0.368124 -11.5
      vertex -0.904826 -0.425778 2.395
      vertex -0.904826 -0.425778 -11.5
    endloop
  endfacet
  facet normal 0.891017 0.453969 0
    outer loop
      vertex -0.876307 -0.481753 2.395
      vertex -0.904826 -0.425778 -11.5
      vertex -0.904826 -0.425778 2.395
    endloop
  endfacet
  facet normal 0.891017 0.453969 0
    outer loop
      vertex -0.904826 -0.425778 -11.5
      vertex -0.876307 -0.481753 2.395
      vertex -0.876307 -0.481753 -11.5
    endloop
  endfacet
  facet normal 0.940882 0.338735 0
    outer loop
      vertex -0.929776 -0.368124 2.395
      vertex -0.951056 -0.309016 -11.5
      vertex -0.951056 -0.309016 2.395
    endloop
  endfacet
  facet normal 0.940882 0.338735 0
    outer loop
      vertex -0.951056 -0.309016 -11.5
      vertex -0.929776 -0.368124 2.395
      vertex -0.929776 -0.368124 -11.5
    endloop
  endfacet
  facet normal 0.999506 0.0314227 0
    outer loop
      vertex -0.998026 -0.0627899 2.395
      vertex -1 0 -11.5
      vertex -1 0 2.395
    endloop
  endfacet
  facet normal 0.999506 0.0314227 0
    outer loop
      vertex -1 0 -11.5
      vertex -0.998026 -0.0627899 2.395
      vertex -0.998026 -0.0627899 -11.5
    endloop
  endfacet
  facet normal -0.860737 -0.50905 0
    outer loop
      vertex 0.876307 0.481753 -11.5
      vertex 0.844327 0.535827 2.395
      vertex 0.844327 0.535827 -11.5
    endloop
  endfacet
  facet normal -0.860737 -0.50905 0
    outer loop
      vertex 0.844327 0.535827 2.395
      vertex 0.876307 0.481753 -11.5
      vertex 0.876307 0.481753 2.395
    endloop
  endfacet
  facet normal -0.338735 -0.940882 0
    outer loop
      vertex 0.309016 0.951056 -11.5
      vertex 0.368124 0.929776 2.395
      vertex 0.309016 0.951056 2.395
    endloop
  endfacet
  facet normal -0.338735 -0.940882 -0
    outer loop
      vertex 0.368124 0.929776 2.395
      vertex 0.309016 0.951056 -11.5
      vertex 0.368124 0.929776 -11.5
    endloop
  endfacet
  facet normal -0.0941073 -0.995562 0
    outer loop
      vertex 0.0627899 0.998026 -11.5
      vertex 0.125333 0.992114 2.395
      vertex 0.0627899 0.998026 2.395
    endloop
  endfacet
  facet normal -0.0941073 -0.995562 -0
    outer loop
      vertex 0.125333 0.992114 2.395
      vertex 0.0627899 0.998026 -11.5
      vertex 0.125333 0.992114 -11.5
    endloop
  endfacet
  facet normal -0.453969 -0.891017 0
    outer loop
      vertex 0.425778 0.904826 -11.5
      vertex 0.481753 0.876307 2.395
      vertex 0.425778 0.904826 2.395
    endloop
  endfacet
  facet normal -0.453969 -0.891017 -0
    outer loop
      vertex 0.481753 0.876307 2.395
      vertex 0.425778 0.904826 -11.5
      vertex 0.481753 0.876307 -11.5
    endloop
  endfacet
  facet normal 0.707107 -0.707107 0
    outer loop
      vertex -0.728969 0.684546 2.395
      vertex -0.684546 0.728969 -11.5
      vertex -0.684546 0.728969 2.395
    endloop
  endfacet
  facet normal 0.707107 -0.707107 0
    outer loop
      vertex -0.684546 0.728969 -11.5
      vertex -0.728969 0.684546 2.395
      vertex -0.728969 0.684546 -11.5
    endloop
  endfacet
  facet normal 0.827078 -0.562088 0
    outer loop
      vertex -0.844327 0.535827 2.395
      vertex -0.809016 0.587785 -11.5
      vertex -0.809016 0.587785 2.395
    endloop
  endfacet
  facet normal 0.827078 -0.562088 0
    outer loop
      vertex -0.809016 0.587785 -11.5
      vertex -0.844327 0.535827 2.395
      vertex -0.844327 0.535827 -11.5
    endloop
  endfacet
  facet normal 0.891017 -0.453969 0
    outer loop
      vertex -0.904826 0.425778 2.395
      vertex -0.876307 0.481753 -11.5
      vertex -0.876307 0.481753 2.395
    endloop
  endfacet
  facet normal 0.891017 -0.453969 0
    outer loop
      vertex -0.876307 0.481753 -11.5
      vertex -0.904826 0.425778 2.395
      vertex -0.904826 0.425778 -11.5
    endloop
  endfacet
  facet normal 0.995562 -0.0941073 0
    outer loop
      vertex -0.998026 0.0627899 2.395
      vertex -0.992114 0.125333 -11.5
      vertex -0.992114 0.125333 2.395
    endloop
  endfacet
  facet normal 0.995562 -0.0941073 0
    outer loop
      vertex -0.992114 0.125333 -11.5
      vertex -0.998026 0.0627899 2.395
      vertex -0.998026 0.0627899 -11.5
    endloop
  endfacet
  facet normal 0.612898 -0.790162 0
    outer loop
      vertex -0.637424 0.770513 -11.5
      vertex -0.587785 0.809016 2.395
      vertex -0.637424 0.770513 2.395
    endloop
  endfacet
  facet normal 0.612898 -0.790162 0
    outer loop
      vertex -0.587785 0.809016 2.395
      vertex -0.637424 0.770513 -11.5
      vertex -0.587785 0.809016 -11.5
    endloop
  endfacet
  facet normal -0.860737 0.50905 0
    outer loop
      vertex 0.844327 -0.535827 -11.5
      vertex 0.876307 -0.481753 2.395
      vertex 0.876307 -0.481753 -11.5
    endloop
  endfacet
  facet normal -0.860737 0.50905 0
    outer loop
      vertex 0.876307 -0.481753 2.395
      vertex 0.844327 -0.535827 -11.5
      vertex 0.844327 -0.535827 2.395
    endloop
  endfacet
  facet normal -0.790162 0.612898 0
    outer loop
      vertex 0.770513 -0.637424 -11.5
      vertex 0.809016 -0.587785 2.395
      vertex 0.809016 -0.587785 -11.5
    endloop
  endfacet
  facet normal -0.790162 0.612898 0
    outer loop
      vertex 0.809016 -0.587785 2.395
      vertex 0.770513 -0.637424 -11.5
      vertex 0.770513 -0.637424 2.395
    endloop
  endfacet
  facet normal -0.975921 0.218125 0
    outer loop
      vertex 0.968583 -0.24869 -11.5
      vertex 0.982286 -0.187381 2.395
      vertex 0.982286 -0.187381 -11.5
    endloop
  endfacet
  facet normal -0.975921 0.218125 0
    outer loop
      vertex 0.982286 -0.187381 2.395
      vertex 0.968583 -0.24869 -11.5
      vertex 0.968583 -0.24869 2.395
    endloop
  endfacet
  facet normal 0.562088 0.827078 -0
    outer loop
      vertex -0.535827 -0.844327 -11.5
      vertex -0.587785 -0.809016 2.395
      vertex -0.535827 -0.844327 2.395
    endloop
  endfacet
  facet normal 0.562088 0.827078 0
    outer loop
      vertex -0.587785 -0.809016 2.395
      vertex -0.535827 -0.844327 -11.5
      vertex -0.587785 -0.809016 -11.5
    endloop
  endfacet
  facet normal -0.987687 0.156443 0
    outer loop
      vertex 0.982286 -0.187381 -11.5
      vertex 0.992114 -0.125333 2.395
      vertex 0.992114 -0.125333 -11.5
    endloop
  endfacet
  facet normal -0.987687 0.156443 0
    outer loop
      vertex 0.992114 -0.125333 2.395
      vertex 0.982286 -0.187381 -11.5
      vertex 0.982286 -0.187381 2.395
    endloop
  endfacet
  facet normal 0 0 1
    outer loop
      vertex 4 21.5 2.395
      vertex 3 9.2 2.395
      vertex 4 9.2 2.395
    endloop
  endfacet
  facet normal -0 0 1
    outer loop
      vertex 0.998026 0.0627899 2.395
      vertex 3 -7.3 2.395
      vertex 3 9.2 2.395
    endloop
  endfacet
  facet normal -0 0 1
    outer loop
      vertex -3 21.5 2.395
      vertex 3 9.2 2.395
      vertex 4 21.5 2.395
    endloop
  endfacet
  facet normal 0 0 1
    outer loop
      vertex 3 -7.3 2.395
      vertex 0.998026 0.0627899 2.395
      vertex 1 0 2.395
    endloop
  endfacet
  facet normal 0 0 1
    outer loop
      vertex 3 9.2 2.395
      vertex 0.992114 0.125333 2.395
      vertex 0.998026 0.0627899 2.395
    endloop
  endfacet
  facet normal 0 0 1
    outer loop
      vertex 3 9.2 2.395
      vertex 0.982286 0.187381 2.395
      vertex 0.992114 0.125333 2.395
    endloop
  endfacet
  facet normal 0 0 1
    outer loop
      vertex 3 9.2 2.395
      vertex 0.968583 0.24869 2.395
      vertex 0.982286 0.187381 2.395
    endloop
  endfacet
  facet normal 0 0 1
    outer loop
      vertex 3 9.2 2.395
      vertex 0.951056 0.309016 2.395
      vertex 0.968583 0.24869 2.395
    endloop
  endfacet
  facet normal 0 0 1
    outer loop
      vertex 3 9.2 2.395
      vertex 0.929776 0.368124 2.395
      vertex 0.951056 0.309016 2.395
    endloop
  endfacet
  facet normal 0 0 1
    outer loop
      vertex 3 9.2 2.395
      vertex 0.904826 0.425778 2.395
      vertex 0.929776 0.368124 2.395
    endloop
  endfacet
  facet normal 0 0 1
    outer loop
      vertex 3 9.2 2.395
      vertex 0.876307 0.481753 2.395
      vertex 0.904826 0.425778 2.395
    endloop
  endfacet
  facet normal 0 0 1
    outer loop
      vertex 3 9.2 2.395
      vertex 0.844327 0.535827 2.395
      vertex 0.876307 0.481753 2.395
    endloop
  endfacet
  facet normal 0 0 1
    outer loop
      vertex 3 9.2 2.395
      vertex 0.809016 0.587785 2.395
      vertex 0.844327 0.535827 2.395
    endloop
  endfacet
  facet normal 0 0 1
    outer loop
      vertex 3 9.2 2.395
      vertex 0.770513 0.637424 2.395
      vertex 0.809016 0.587785 2.395
    endloop
  endfacet
  facet normal 0 0 1
    outer loop
      vertex 3 9.2 2.395
      vertex 0.728969 0.684546 2.395
      vertex 0.770513 0.637424 2.395
    endloop
  endfacet
  facet normal 0 0 1
    outer loop
      vertex 3 9.2 2.395
      vertex 0.684546 0.728969 2.395
      vertex 0.728969 0.684546 2.395
    endloop
  endfacet
  facet normal 0 0 1
    outer loop
      vertex 3 9.2 2.395
      vertex 0.637424 0.770513 2.395
      vertex 0.684546 0.728969 2.395
    endloop
  endfacet
  facet normal 0 0 1
    outer loop
      vertex 3 9.2 2.395
      vertex 0.587785 0.809016 2.395
      vertex 0.637424 0.770513 2.395
    endloop
  endfacet
  facet normal 0 0 1
    outer loop
      vertex 3 9.2 2.395
      vertex 0.535827 0.844327 2.395
      vertex 0.587785 0.809016 2.395
    endloop
  endfacet
  facet normal 0 0 1
    outer loop
      vertex 3 9.2 2.395
      vertex 0.481753 0.876307 2.395
      vertex 0.535827 0.844327 2.395
    endloop
  endfacet
  facet normal 0 0 1
    outer loop
      vertex 3 9.2 2.395
      vertex 0.425778 0.904826 2.395
      vertex 0.481753 0.876307 2.395
    endloop
  endfacet
  facet normal 0 0 1
    outer loop
      vertex 3 9.2 2.395
      vertex 0.368124 0.929776 2.395
      vertex 0.425778 0.904826 2.395
    endloop
  endfacet
  facet normal 0 0 1
    outer loop
      vertex 3 9.2 2.395
      vertex 0.309016 0.951056 2.395
      vertex 0.368124 0.929776 2.395
    endloop
  endfacet
  facet normal 0 0 1
    outer loop
      vertex 3 9.2 2.395
      vertex 0.24869 0.968583 2.395
      vertex 0.309016 0.951056 2.395
    endloop
  endfacet
  facet normal 0 0 1
    outer loop
      vertex 3 9.2 2.395
      vertex 0.187381 0.982286 2.395
      vertex 0.24869 0.968583 2.395
    endloop
  endfacet
  facet normal 0 0 1
    outer loop
      vertex 3 9.2 2.395
      vertex 0.125333 0.992114 2.395
      vertex 0.187381 0.982286 2.395
    endloop
  endfacet
  facet normal 0 0 1
    outer loop
      vertex 3 9.2 2.395
      vertex 0.0627899 0.998026 2.395
      vertex 0.125333 0.992114 2.395
    endloop
  endfacet
  facet normal 0 -0 1
    outer loop
      vertex -0.728969 0.684546 2.395
      vertex 3 9.2 2.395
      vertex -3 21.5 2.395
    endloop
  endfacet
  facet normal 0 0 1
    outer loop
      vertex 3 9.2 2.395
      vertex 0 1 2.395
      vertex 0.0627899 0.998026 2.395
    endloop
  endfacet
  facet normal 0 0 1
    outer loop
      vertex 3 9.2 2.395
      vertex -0.0627899 0.998026 2.395
      vertex 0 1 2.395
    endloop
  endfacet
  facet normal 0 0 1
    outer loop
      vertex 3 9.2 2.395
      vertex -0.125333 0.992114 2.395
      vertex -0.0627899 0.998026 2.395
    endloop
  endfacet
  facet normal 0 0 1
    outer loop
      vertex 3 9.2 2.395
      vertex -0.187381 0.982286 2.395
      vertex -0.125333 0.992114 2.395
    endloop
  endfacet
  facet normal 0 0 1
    outer loop
      vertex 3 9.2 2.395
      vertex -0.24869 0.968583 2.395
      vertex -0.187381 0.982286 2.395
    endloop
  endfacet
  facet normal 0 0 1
    outer loop
      vertex 3 9.2 2.395
      vertex -0.309016 0.951056 2.395
      vertex -0.24869 0.968583 2.395
    endloop
  endfacet
  facet normal 0 0 1
    outer loop
      vertex 3 9.2 2.395
      vertex -0.368124 0.929776 2.395
      vertex -0.309016 0.951056 2.395
    endloop
  endfacet
  facet normal 0 0 1
    outer loop
      vertex 3 9.2 2.395
      vertex -0.425778 0.904826 2.395
      vertex -0.368124 0.929776 2.395
    endloop
  endfacet
  facet normal 0 0 1
    outer loop
      vertex 3 9.2 2.395
      vertex -0.481753 0.876307 2.395
      vertex -0.425778 0.904826 2.395
    endloop
  endfacet
  facet normal 0 0 1
    outer loop
      vertex 3 9.2 2.395
      vertex -0.535827 0.844327 2.395
      vertex -0.481753 0.876307 2.395
    endloop
  endfacet
  facet normal 0 0 1
    outer loop
      vertex 3 9.2 2.395
      vertex -0.587785 0.809016 2.395
      vertex -0.535827 0.844327 2.395
    endloop
  endfacet
  facet normal 0 0 1
    outer loop
      vertex 3 9.2 2.395
      vertex -0.637424 0.770513 2.395
      vertex -0.587785 0.809016 2.395
    endloop
  endfacet
  facet normal 0 0 1
    outer loop
      vertex 3 9.2 2.395
      vertex -0.684546 0.728969 2.395
      vertex -0.637424 0.770513 2.395
    endloop
  endfacet
  facet normal 0 0 1
    outer loop
      vertex 3 9.2 2.395
      vertex -0.728969 0.684546 2.395
      vertex -0.684546 0.728969 2.395
    endloop
  endfacet
  facet normal 0 0 1
    outer loop
      vertex -0.728969 0.684546 2.395
      vertex -3 21.5 2.395
      vertex -0.770513 0.637424 2.395
    endloop
  endfacet
  facet normal 0 0 1
    outer loop
      vertex -0.770513 0.637424 2.395
      vertex -3 21.5 2.395
      vertex -0.809016 0.587785 2.395
    endloop
  endfacet
  facet normal 0 0 1
    outer loop
      vertex -0.809016 0.587785 2.395
      vertex -3 21.5 2.395
      vertex -0.844327 0.535827 2.395
    endloop
  endfacet
  facet normal 0 0 1
    outer loop
      vertex -0.844327 0.535827 2.395
      vertex -3 21.5 2.395
      vertex -0.876307 0.481753 2.395
    endloop
  endfacet
  facet normal 0 0 1
    outer loop
      vertex -0.876307 0.481753 2.395
      vertex -3 21.5 2.395
      vertex -0.904826 0.425778 2.395
    endloop
  endfacet
  facet normal 0 0 1
    outer loop
      vertex -0.904826 0.425778 2.395
      vertex -3 21.5 2.395
      vertex -0.929776 0.368124 2.395
    endloop
  endfacet
  facet normal 0 0 1
    outer loop
      vertex -0.929776 0.368124 2.395
      vertex -3 21.5 2.395
      vertex -0.951056 0.309016 2.395
    endloop
  endfacet
  facet normal 0 0 1
    outer loop
      vertex -0.998026 0.0627899 2.395
      vertex -3 21.5 2.395
      vertex -1 0 2.395
    endloop
  endfacet
  facet normal 0 0 1
    outer loop
      vertex -0.992114 0.125333 2.395
      vertex -3 21.5 2.395
      vertex -0.998026 0.0627899 2.395
    endloop
  endfacet
  facet normal 0 0 1
    outer loop
      vertex -0.982286 0.187381 2.395
      vertex -3 21.5 2.395
      vertex -0.992114 0.125333 2.395
    endloop
  endfacet
  facet normal 0 0 1
    outer loop
      vertex -0.968583 0.24869 2.395
      vertex -3 21.5 2.395
      vertex -0.982286 0.187381 2.395
    endloop
  endfacet
  facet normal 0 0 1
    outer loop
      vertex -0.951056 0.309016 2.395
      vertex -3 21.5 2.395
      vertex -0.968583 0.24869 2.395
    endloop
  endfacet
  facet normal -0 0 1
    outer loop
      vertex 3 -7.3 2.395
      vertex 4 -21.5 2.395
      vertex 4 -7.3 2.395
    endloop
  endfacet
  facet normal -0 0 1
    outer loop
      vertex 0.998026 -0.0627899 2.395
      vertex 3 -7.3 2.395
      vertex 1 0 2.395
    endloop
  endfacet
  facet normal -0 0 1
    outer loop
      vertex 0.992114 -0.125333 2.395
      vertex 3 -7.3 2.395
      vertex 0.998026 -0.0627899 2.395
    endloop
  endfacet
  facet normal -0 0 1
    outer loop
      vertex 0.982286 -0.187381 2.395
      vertex 3 -7.3 2.395
      vertex 0.992114 -0.125333 2.395
    endloop
  endfacet
  facet normal -0 0 1
    outer loop
      vertex 0.968583 -0.24869 2.395
      vertex 3 -7.3 2.395
      vertex 0.982286 -0.187381 2.395
    endloop
  endfacet
  facet normal -0 0 1
    outer loop
      vertex 0.951056 -0.309016 2.395
      vertex 3 -7.3 2.395
      vertex 0.968583 -0.24869 2.395
    endloop
  endfacet
  facet normal -0 0 1
    outer loop
      vertex 0.929776 -0.368124 2.395
      vertex 3 -7.3 2.395
      vertex 0.951056 -0.309016 2.395
    endloop
  endfacet
  facet normal -0 0 1
    outer loop
      vertex 0.904826 -0.425778 2.395
      vertex 3 -7.3 2.395
      vertex 0.929776 -0.368124 2.395
    endloop
  endfacet
  facet normal -0 0 1
    outer loop
      vertex 0.876307 -0.481753 2.395
      vertex 3 -7.3 2.395
      vertex 0.904826 -0.425778 2.395
    endloop
  endfacet
  facet normal -0 0 1
    outer loop
      vertex 0.844327 -0.535827 2.395
      vertex 3 -7.3 2.395
      vertex 0.876307 -0.481753 2.395
    endloop
  endfacet
  facet normal -0 0 1
    outer loop
      vertex 0.809016 -0.587785 2.395
      vertex 3 -7.3 2.395
      vertex 0.844327 -0.535827 2.395
    endloop
  endfacet
  facet normal -0 0 1
    outer loop
      vertex 0.770513 -0.637424 2.395
      vertex 3 -7.3 2.395
      vertex 0.809016 -0.587785 2.395
    endloop
  endfacet
  facet normal -0 0 1
    outer loop
      vertex 0.728969 -0.684546 2.395
      vertex 3 -7.3 2.395
      vertex 0.770513 -0.637424 2.395
    endloop
  endfacet
  facet normal -0 0 1
    outer loop
      vertex 0.684546 -0.728969 2.395
      vertex 3 -7.3 2.395
      vertex 0.728969 -0.684546 2.395
    endloop
  endfacet
  facet normal -0 0 1
    outer loop
      vertex 0.637424 -0.770513 2.395
      vertex 3 -7.3 2.395
      vertex 0.684546 -0.728969 2.395
    endloop
  endfacet
  facet normal -0 0 1
    outer loop
      vertex 0.587785 -0.809016 2.395
      vertex 3 -7.3 2.395
      vertex 0.637424 -0.770513 2.395
    endloop
  endfacet
  facet normal -0 0 1
    outer loop
      vertex 0.535827 -0.844327 2.395
      vertex 3 -7.3 2.395
      vertex 0.587785 -0.809016 2.395
    endloop
  endfacet
  facet normal -0 0 1
    outer loop
      vertex 0.481753 -0.876307 2.395
      vertex 3 -7.3 2.395
      vertex 0.535827 -0.844327 2.395
    endloop
  endfacet
  facet normal -0 0 1
    outer loop
      vertex 0.425778 -0.904826 2.395
      vertex 3 -7.3 2.395
      vertex 0.481753 -0.876307 2.395
    endloop
  endfacet
  facet normal -0 0 1
    outer loop
      vertex 0.368124 -0.929776 2.395
      vertex 3 -7.3 2.395
      vertex 0.425778 -0.904826 2.395
    endloop
  endfacet
  facet normal -0 0 1
    outer loop
      vertex 0.309016 -0.951056 2.395
      vertex 3 -7.3 2.395
      vertex 0.368124 -0.929776 2.395
    endloop
  endfacet
  facet normal -0 0 1
    outer loop
      vertex 0.24869 -0.968583 2.395
      vertex 3 -7.3 2.395
      vertex 0.309016 -0.951056 2.395
    endloop
  endfacet
  facet normal -0 0 1
    outer loop
      vertex 0.187381 -0.982286 2.395
      vertex 3 -7.3 2.395
      vertex 0.24869 -0.968583 2.395
    endloop
  endfacet
  facet normal -0 0 1
    outer loop
      vertex 0.125333 -0.992114 2.395
      vertex 3 -7.3 2.395
      vertex 0.187381 -0.982286 2.395
    endloop
  endfacet
  facet normal -0 0 1
    outer loop
      vertex 0.0627899 -0.998026 2.395
      vertex 3 -7.3 2.395
      vertex 0.125333 -0.992114 2.395
    endloop
  endfacet
  facet normal -0 0 1
    outer loop
      vertex 0 -1 2.395
      vertex 3 -7.3 2.395
      vertex 0.0627899 -0.998026 2.395
    endloop
  endfacet
  facet normal 0 0 1
    outer loop
      vertex -0.0627899 -0.998026 2.395
      vertex 3 -7.3 2.395
      vertex 0 -1 2.395
    endloop
  endfacet
  facet normal 0 0 1
    outer loop
      vertex -0.125333 -0.992114 2.395
      vertex 3 -7.3 2.395
      vertex -0.0627899 -0.998026 2.395
    endloop
  endfacet
  facet normal 0 0 1
    outer loop
      vertex -0.187381 -0.982286 2.395
      vertex 3 -7.3 2.395
      vertex -0.125333 -0.992114 2.395
    endloop
  endfacet
  facet normal 0 0 1
    outer loop
      vertex -0.24869 -0.968583 2.395
      vertex 3 -7.3 2.395
      vertex -0.187381 -0.982286 2.395
    endloop
  endfacet
  facet normal 0 0 1
    outer loop
      vertex -0.309016 -0.951056 2.395
      vertex 3 -7.3 2.395
      vertex -0.24869 -0.968583 2.395
    endloop
  endfacet
  facet normal 0 0 1
    outer loop
      vertex -0.368124 -0.929776 2.395
      vertex 3 -7.3 2.395
      vertex -0.309016 -0.951056 2.395
    endloop
  endfacet
  facet normal 0 0 1
    outer loop
      vertex -0.425778 -0.904826 2.395
      vertex 3 -7.3 2.395
      vertex -0.368124 -0.929776 2.395
    endloop
  endfacet
  facet normal 0 0 1
    outer loop
      vertex -0.481753 -0.876307 2.395
      vertex 3 -7.3 2.395
      vertex -0.425778 -0.904826 2.395
    endloop
  endfacet
  facet normal 0 0 1
    outer loop
      vertex -0.535827 -0.844327 2.395
      vertex 3 -7.3 2.395
      vertex -0.481753 -0.876307 2.395
    endloop
  endfacet
  facet normal 0 0 1
    outer loop
      vertex -0.587785 -0.809016 2.395
      vertex 3 -7.3 2.395
      vertex -0.535827 -0.844327 2.395
    endloop
  endfacet
  facet normal 0 0 1
    outer loop
      vertex -0.637424 -0.770513 2.395
      vertex 3 -7.3 2.395
      vertex -0.587785 -0.809016 2.395
    endloop
  endfacet
  facet normal 0 0 1
    outer loop
      vertex -0.684546 -0.728969 2.395
      vertex 3 -7.3 2.395
      vertex -0.637424 -0.770513 2.395
    endloop
  endfacet
  facet normal 0 0 1
    outer loop
      vertex 3 -7.3 2.395
      vertex -0.684546 -0.728969 2.395
      vertex -3 -21.5 2.395
    endloop
  endfacet
  facet normal 0 0 1
    outer loop
      vertex -3 -21.5 2.395
      vertex -0.684546 -0.728969 2.395
      vertex -0.728969 -0.684546 2.395
    endloop
  endfacet
  facet normal 0 0 1
    outer loop
      vertex -3 -21.5 2.395
      vertex -0.728969 -0.684546 2.395
      vertex -0.770513 -0.637424 2.395
    endloop
  endfacet
  facet normal 0 0 1
    outer loop
      vertex -3 -21.5 2.395
      vertex -0.770513 -0.637424 2.395
      vertex -0.809016 -0.587785 2.395
    endloop
  endfacet
  facet normal 0 0 1
    outer loop
      vertex -3 -21.5 2.395
      vertex -0.809016 -0.587785 2.395
      vertex -0.844327 -0.535827 2.395
    endloop
  endfacet
  facet normal 0 0 1
    outer loop
      vertex -3 -21.5 2.395
      vertex -0.844327 -0.535827 2.395
      vertex -0.876307 -0.481753 2.395
    endloop
  endfacet
  facet normal 0 0 1
    outer loop
      vertex -3 -21.5 2.395
      vertex -0.876307 -0.481753 2.395
      vertex -0.904826 -0.425778 2.395
    endloop
  endfacet
  facet normal 0 0 1
    outer loop
      vertex -3 -21.5 2.395
      vertex -0.904826 -0.425778 2.395
      vertex -0.929776 -0.368124 2.395
    endloop
  endfacet
  facet normal 0 0 1
    outer loop
      vertex -3 -21.5 2.395
      vertex -0.929776 -0.368124 2.395
      vertex -0.951056 -0.309016 2.395
    endloop
  endfacet
  facet normal 0 0 1
    outer loop
      vertex -3 -21.5 2.395
      vertex -0.951056 -0.309016 2.395
      vertex -0.968583 -0.24869 2.395
    endloop
  endfacet
  facet normal 0 0 1
    outer loop
      vertex -3 -21.5 2.395
      vertex -1 0 2.395
      vertex -3 21.5 2.395
    endloop
  endfacet
  facet normal 0 0 1
    outer loop
      vertex 3 -7.3 2.395
      vertex -3 -21.5 2.395
      vertex 4 -21.5 2.395
    endloop
  endfacet
  facet normal 0 0 1
    outer loop
      vertex -0.982286 -0.187381 2.395
      vertex -3 -21.5 2.395
      vertex -0.968583 -0.24869 2.395
    endloop
  endfacet
  facet normal 0 0 1
    outer loop
      vertex -0.992114 -0.125333 2.395
      vertex -3 -21.5 2.395
      vertex -0.982286 -0.187381 2.395
    endloop
  endfacet
  facet normal 0 0 1
    outer loop
      vertex -0.998026 -0.0627899 2.395
      vertex -3 -21.5 2.395
      vertex -0.992114 -0.125333 2.395
    endloop
  endfacet
  facet normal 0 0 1
    outer loop
      vertex -1 0 2.395
      vertex -3 -21.5 2.395
      vertex -0.998026 -0.0627899 2.395
    endloop
  endfacet
  facet normal 0 1 -0
    outer loop
      vertex 4 -21.5 2.395
      vertex -3 -21.5 11.5
      vertex 4 -21.5 11.5
    endloop
  endfacet
  facet normal 0 1 0
    outer loop
      vertex -3 -21.5 11.5
      vertex 4 -21.5 2.395
      vertex -3 -21.5 2.395
    endloop
  endfacet
  facet normal 0 -1 0
    outer loop
      vertex -3 21.5 2.395
      vertex 4 21.5 11.5
      vertex -3 21.5 11.5
    endloop
  endfacet
  facet normal 0 -1 -0
    outer loop
      vertex 4 21.5 11.5
      vertex -3 21.5 2.395
      vertex 4 21.5 2.395
    endloop
  endfacet
  facet normal 1 -0 0
    outer loop
      vertex 3 -7.3 2.395
      vertex 3 9.2 -11.5
      vertex 3 9.2 2.395
    endloop
  endfacet
  facet normal 1 0 0
    outer loop
      vertex 3 9.2 -11.5
      vertex 3 -7.3 2.395
      vertex 3 -7.3 -11.5
    endloop
  endfacet
  facet normal 0 1 -0
    outer loop
      vertex 4 -7.3 -11.5
      vertex 3 -7.3 2.395
      vertex 4 -7.3 2.395
    endloop
  endfacet
  facet normal 0 1 0
    outer loop
      vertex 3 -7.3 2.395
      vertex 4 -7.3 -11.5
      vertex 3 -7.3 -11.5
    endloop
  endfacet
  facet normal 0 -1 0
    outer loop
      vertex 3 9.2 -11.5
      vertex 4 9.2 2.395
      vertex 3 9.2 2.395
    endloop
  endfacet
  facet normal 0 -1 -0
    outer loop
      vertex 4 9.2 2.395
      vertex 3 9.2 -11.5
      vertex 4 9.2 -11.5
    endloop
  endfacet
  facet normal -1 0 0
    outer loop
      vertex -3 24.5 -11.5
      vertex -3 21.5 2.395
      vertex -3 24.5 11.5
    endloop
  endfacet
  facet normal -1 0 0
    outer loop
      vertex -3 24.5 -11.5
      vertex -3 -21.5 2.395
      vertex -3 21.5 2.395
    endloop
  endfacet
  facet normal -1 0 0
    outer loop
      vertex -3 -24.5 -11.5
      vertex -3 -21.5 2.395
      vertex -3 24.5 -11.5
    endloop
  endfacet
  facet normal -1 0 0
    outer loop
      vertex -3 -24.5 11.5
      vertex -3 -21.5 2.395
      vertex -3 -24.5 -11.5
    endloop
  endfacet
  facet normal -1 0 0
    outer loop
      vertex -3 -21.5 2.395
      vertex -3 -24.5 11.5
      vertex -3 -21.5 11.5
    endloop
  endfacet
  facet normal -1 -0 0
    outer loop
      vertex -3 24.5 11.5
      vertex -3 21.5 2.395
      vertex -3 21.5 11.5
    endloop
  endfacet
  facet normal -0 0 1
    outer loop
      vertex -3 -21.5 11.5
      vertex 4 -24.5 11.5
      vertex 4 -21.5 11.5
    endloop
  endfacet
  facet normal 0 0 1
    outer loop
      vertex 4 -24.5 11.5
      vertex -3 -21.5 11.5
      vertex -3 -24.5 11.5
    endloop
  endfacet
  facet normal -0 0 1
    outer loop
      vertex -3 24.5 11.5
      vertex 4 21.5 11.5
      vertex 4 24.5 11.5
    endloop
  endfacet
  facet normal 0 0 1
    outer loop
      vertex 4 21.5 11.5
      vertex -3 24.5 11.5
      vertex -3 21.5 11.5
    endloop
  endfacet
  facet normal 1 0 0
    outer loop
      vertex 4 -21.5 11.5
      vertex 4 -24.5 11.5
      vertex 4 -21.5 2.395
    endloop
  endfacet
  facet normal 1 -0 0
    outer loop
      vertex 4 -21.5 2.395
      vertex 4 -7.3 -11.5
      vertex 4 -7.3 2.395
    endloop
  endfacet
  facet normal 1 0 0
    outer loop
      vertex 4 -21.5 2.395
      vertex 4 -24.5 -11.5
      vertex 4 -7.3 -11.5
    endloop
  endfacet
  facet normal 1 0 0
    outer loop
      vertex 4 -24.5 -11.5
      vertex 4 -21.5 2.395
      vertex 4 -24.5 11.5
    endloop
  endfacet
  facet normal 1 0 0
    outer loop
      vertex 4 21.5 2.395
      vertex 4 24.5 11.5
      vertex 4 21.5 11.5
    endloop
  endfacet
  facet normal 1 0 0
    outer loop
      vertex 4 24.5 11.5
      vertex 4 21.5 2.395
      vertex 4 24.5 -11.5
    endloop
  endfacet
  facet normal 1 0 0
    outer loop
      vertex 4 9.2 -11.5
      vertex 4 21.5 2.395
      vertex 4 9.2 2.395
    endloop
  endfacet
  facet normal 1 0 0
    outer loop
      vertex 4 21.5 2.395
      vertex 4 9.2 -11.5
      vertex 4 24.5 -11.5
    endloop
  endfacet
  facet normal 0 1 -0
    outer loop
      vertex 4 24.5 -11.5
      vertex -3 24.5 11.5
      vertex 4 24.5 11.5
    endloop
  endfacet
  facet normal 0 1 0
    outer loop
      vertex -3 24.5 11.5
      vertex 4 24.5 -11.5
      vertex -3 24.5 -11.5
    endloop
  endfacet
  facet normal 0 0 -1
    outer loop
      vertex 4 -24.5 -11.5
      vertex 3 -7.3 -11.5
      vertex 4 -7.3 -11.5
    endloop
  endfacet
  facet normal 0 0 -1
    outer loop
      vertex 0.998026 0.0627899 -11.5
      vertex 3 -7.3 -11.5
      vertex 1 0 -11.5
    endloop
  endfacet
  facet normal 0 0 -1
    outer loop
      vertex -3 -24.5 -11.5
      vertex 3 -7.3 -11.5
      vertex 4 -24.5 -11.5
    endloop
  endfacet
  facet normal 0 0 -1
    outer loop
      vertex 3 -7.3 -11.5
      vertex 0.998026 -0.0627899 -11.5
      vertex 1 0 -11.5
    endloop
  endfacet
  facet normal 0 0 -1
    outer loop
      vertex 3 -7.3 -11.5
      vertex 0.992114 -0.125333 -11.5
      vertex 0.998026 -0.0627899 -11.5
    endloop
  endfacet
  facet normal 0 0 -1
    outer loop
      vertex 3 -7.3 -11.5
      vertex 0.982286 -0.187381 -11.5
      vertex 0.992114 -0.125333 -11.5
    endloop
  endfacet
  facet normal 0 0 -1
    outer loop
      vertex 3 -7.3 -11.5
      vertex 0.968583 -0.24869 -11.5
      vertex 0.982286 -0.187381 -11.5
    endloop
  endfacet
  facet normal 0 0 -1
    outer loop
      vertex 3 -7.3 -11.5
      vertex 0.951056 -0.309016 -11.5
      vertex 0.968583 -0.24869 -11.5
    endloop
  endfacet
  facet normal 0 0 -1
    outer loop
      vertex 3 -7.3 -11.5
      vertex 0.929776 -0.368124 -11.5
      vertex 0.951056 -0.309016 -11.5
    endloop
  endfacet
  facet normal 0 0 -1
    outer loop
      vertex 3 -7.3 -11.5
      vertex 0.904826 -0.425778 -11.5
      vertex 0.929776 -0.368124 -11.5
    endloop
  endfacet
  facet normal 0 0 -1
    outer loop
      vertex 3 -7.3 -11.5
      vertex 0.876307 -0.481753 -11.5
      vertex 0.904826 -0.425778 -11.5
    endloop
  endfacet
  facet normal 0 0 -1
    outer loop
      vertex 3 -7.3 -11.5
      vertex 0.844327 -0.535827 -11.5
      vertex 0.876307 -0.481753 -11.5
    endloop
  endfacet
  facet normal 0 0 -1
    outer loop
      vertex 3 -7.3 -11.5
      vertex 0.809016 -0.587785 -11.5
      vertex 0.844327 -0.535827 -11.5
    endloop
  endfacet
  facet normal 0 0 -1
    outer loop
      vertex 3 -7.3 -11.5
      vertex 0.770513 -0.637424 -11.5
      vertex 0.809016 -0.587785 -11.5
    endloop
  endfacet
  facet normal 0 0 -1
    outer loop
      vertex 3 -7.3 -11.5
      vertex 0.728969 -0.684546 -11.5
      vertex 0.770513 -0.637424 -11.5
    endloop
  endfacet
  facet normal 0 0 -1
    outer loop
      vertex 3 -7.3 -11.5
      vertex 0.684546 -0.728969 -11.5
      vertex 0.728969 -0.684546 -11.5
    endloop
  endfacet
  facet normal 0 0 -1
    outer loop
      vertex 3 -7.3 -11.5
      vertex 0.637424 -0.770513 -11.5
      vertex 0.684546 -0.728969 -11.5
    endloop
  endfacet
  facet normal 0 0 -1
    outer loop
      vertex 3 -7.3 -11.5
      vertex 0.587785 -0.809016 -11.5
      vertex 0.637424 -0.770513 -11.5
    endloop
  endfacet
  facet normal 0 0 -1
    outer loop
      vertex 3 -7.3 -11.5
      vertex 0.535827 -0.844327 -11.5
      vertex 0.587785 -0.809016 -11.5
    endloop
  endfacet
  facet normal 0 0 -1
    outer loop
      vertex 3 -7.3 -11.5
      vertex 0.481753 -0.876307 -11.5
      vertex 0.535827 -0.844327 -11.5
    endloop
  endfacet
  facet normal 0 0 -1
    outer loop
      vertex 3 -7.3 -11.5
      vertex 0.425778 -0.904826 -11.5
      vertex 0.481753 -0.876307 -11.5
    endloop
  endfacet
  facet normal 0 0 -1
    outer loop
      vertex 3 -7.3 -11.5
      vertex 0.368124 -0.929776 -11.5
      vertex 0.425778 -0.904826 -11.5
    endloop
  endfacet
  facet normal 0 0 -1
    outer loop
      vertex 3 -7.3 -11.5
      vertex 0.309016 -0.951056 -11.5
      vertex 0.368124 -0.929776 -11.5
    endloop
  endfacet
  facet normal 0 0 -1
    outer loop
      vertex 3 -7.3 -11.5
      vertex 0.24869 -0.968583 -11.5
      vertex 0.309016 -0.951056 -11.5
    endloop
  endfacet
  facet normal 0 0 -1
    outer loop
      vertex 3 -7.3 -11.5
      vertex 0.187381 -0.982286 -11.5
      vertex 0.24869 -0.968583 -11.5
    endloop
  endfacet
  facet normal 0 0 -1
    outer loop
      vertex 3 -7.3 -11.5
      vertex 0.125333 -0.992114 -11.5
      vertex 0.187381 -0.982286 -11.5
    endloop
  endfacet
  facet normal 0 0 -1
    outer loop
      vertex 3 -7.3 -11.5
      vertex 0.0627899 -0.998026 -11.5
      vertex 0.125333 -0.992114 -11.5
    endloop
  endfacet
  facet normal 0 0 -1
    outer loop
      vertex 3 -7.3 -11.5
      vertex 0 -1 -11.5
      vertex 0.0627899 -0.998026 -11.5
    endloop
  endfacet
  facet normal 0 -0 -1
    outer loop
      vertex -0.728969 -0.684546 -11.5
      vertex 3 -7.3 -11.5
      vertex -3 -24.5 -11.5
    endloop
  endfacet
  facet normal 0 0 -1
    outer loop
      vertex 3 -7.3 -11.5
      vertex -0.0627899 -0.998026 -11.5
      vertex 0 -1 -11.5
    endloop
  endfacet
  facet normal 0 0 -1
    outer loop
      vertex 3 -7.3 -11.5
      vertex -0.125333 -0.992114 -11.5
      vertex -0.0627899 -0.998026 -11.5
    endloop
  endfacet
  facet normal 0 0 -1
    outer loop
      vertex 3 -7.3 -11.5
      vertex -0.187381 -0.982286 -11.5
      vertex -0.125333 -0.992114 -11.5
    endloop
  endfacet
  facet normal 0 0 -1
    outer loop
      vertex 3 -7.3 -11.5
      vertex -0.24869 -0.968583 -11.5
      vertex -0.187381 -0.982286 -11.5
    endloop
  endfacet
  facet normal 0 0 -1
    outer loop
      vertex 3 -7.3 -11.5
      vertex -0.309016 -0.951056 -11.5
      vertex -0.24869 -0.968583 -11.5
    endloop
  endfacet
  facet normal 0 0 -1
    outer loop
      vertex 3 -7.3 -11.5
      vertex -0.368124 -0.929776 -11.5
      vertex -0.309016 -0.951056 -11.5
    endloop
  endfacet
  facet normal 0 0 -1
    outer loop
      vertex 3 -7.3 -11.5
      vertex -0.425778 -0.904826 -11.5
      vertex -0.368124 -0.929776 -11.5
    endloop
  endfacet
  facet normal 0 0 -1
    outer loop
      vertex 3 -7.3 -11.5
      vertex -0.481753 -0.876307 -11.5
      vertex -0.425778 -0.904826 -11.5
    endloop
  endfacet
  facet normal 0 0 -1
    outer loop
      vertex 3 -7.3 -11.5
      vertex -0.535827 -0.844327 -11.5
      vertex -0.481753 -0.876307 -11.5
    endloop
  endfacet
  facet normal 0 0 -1
    outer loop
      vertex 3 -7.3 -11.5
      vertex -0.587785 -0.809016 -11.5
      vertex -0.535827 -0.844327 -11.5
    endloop
  endfacet
  facet normal 0 0 -1
    outer loop
      vertex 3 -7.3 -11.5
      vertex -0.637424 -0.770513 -11.5
      vertex -0.587785 -0.809016 -11.5
    endloop
  endfacet
  facet normal 0 0 -1
    outer loop
      vertex 3 -7.3 -11.5
      vertex -0.684546 -0.728969 -11.5
      vertex -0.637424 -0.770513 -11.5
    endloop
  endfacet
  facet normal 0 0 -1
    outer loop
      vertex 3 -7.3 -11.5
      vertex -0.728969 -0.684546 -11.5
      vertex -0.684546 -0.728969 -11.5
    endloop
  endfacet
  facet normal -0 0 -1
    outer loop
      vertex -0.728969 -0.684546 -11.5
      vertex -3 -24.5 -11.5
      vertex -0.770513 -0.637424 -11.5
    endloop
  endfacet
  facet normal -0 0 -1
    outer loop
      vertex -0.770513 -0.637424 -11.5
      vertex -3 -24.5 -11.5
      vertex -0.809016 -0.587785 -11.5
    endloop
  endfacet
  facet normal -0 0 -1
    outer loop
      vertex -0.809016 -0.587785 -11.5
      vertex -3 -24.5 -11.5
      vertex -0.844327 -0.535827 -11.5
    endloop
  endfacet
  facet normal -0 0 -1
    outer loop
      vertex -0.844327 -0.535827 -11.5
      vertex -3 -24.5 -11.5
      vertex -0.876307 -0.481753 -11.5
    endloop
  endfacet
  facet normal -0 0 -1
    outer loop
      vertex -0.876307 -0.481753 -11.5
      vertex -3 -24.5 -11.5
      vertex -0.904826 -0.425778 -11.5
    endloop
  endfacet
  facet normal -0 0 -1
    outer loop
      vertex -0.904826 -0.425778 -11.5
      vertex -3 -24.5 -11.5
      vertex -0.929776 -0.368124 -11.5
    endloop
  endfacet
  facet normal -0 0 -1
    outer loop
      vertex -0.929776 -0.368124 -11.5
      vertex -3 -24.5 -11.5
      vertex -0.951056 -0.309016 -11.5
    endloop
  endfacet
  facet normal -0 0 -1
    outer loop
      vertex -0.951056 -0.309016 -11.5
      vertex -3 -24.5 -11.5
      vertex -0.968583 -0.24869 -11.5
    endloop
  endfacet
  facet normal -0 0 -1
    outer loop
      vertex -0.998026 -0.0627899 -11.5
      vertex -3 -24.5 -11.5
      vertex -1 0 -11.5
    endloop
  endfacet
  facet normal -0 0 -1
    outer loop
      vertex -0.992114 -0.125333 -11.5
      vertex -3 -24.5 -11.5
      vertex -0.998026 -0.0627899 -11.5
    endloop
  endfacet
  facet normal -0 0 -1
    outer loop
      vertex -0.982286 -0.187381 -11.5
      vertex -3 -24.5 -11.5
      vertex -0.992114 -0.125333 -11.5
    endloop
  endfacet
  facet normal -0 0 -1
    outer loop
      vertex -0.968583 -0.24869 -11.5
      vertex -3 -24.5 -11.5
      vertex -0.982286 -0.187381 -11.5
    endloop
  endfacet
  facet normal 0 0 -1
    outer loop
      vertex 3 9.2 -11.5
      vertex 4 24.5 -11.5
      vertex 4 9.2 -11.5
    endloop
  endfacet
  facet normal 0 0 -1
    outer loop
      vertex 3 -7.3 -11.5
      vertex 0.998026 0.0627899 -11.5
      vertex 3 9.2 -11.5
    endloop
  endfacet
  facet normal 0 0 -1
    outer loop
      vertex 0.992114 0.125333 -11.5
      vertex 3 9.2 -11.5
      vertex 0.998026 0.0627899 -11.5
    endloop
  endfacet
  facet normal 0 0 -1
    outer loop
      vertex 0.982286 0.187381 -11.5
      vertex 3 9.2 -11.5
      vertex 0.992114 0.125333 -11.5
    endloop
  endfacet
  facet normal 0 0 -1
    outer loop
      vertex 0.968583 0.24869 -11.5
      vertex 3 9.2 -11.5
      vertex 0.982286 0.187381 -11.5
    endloop
  endfacet
  facet normal 0 0 -1
    outer loop
      vertex 0.951056 0.309016 -11.5
      vertex 3 9.2 -11.5
      vertex 0.968583 0.24869 -11.5
    endloop
  endfacet
  facet normal 0 0 -1
    outer loop
      vertex 0.929776 0.368124 -11.5
      vertex 3 9.2 -11.5
      vertex 0.951056 0.309016 -11.5
    endloop
  endfacet
  facet normal 0 0 -1
    outer loop
      vertex 0.904826 0.425778 -11.5
      vertex 3 9.2 -11.5
      vertex 0.929776 0.368124 -11.5
    endloop
  endfacet
  facet normal 0 0 -1
    outer loop
      vertex 0.876307 0.481753 -11.5
      vertex 3 9.2 -11.5
      vertex 0.904826 0.425778 -11.5
    endloop
  endfacet
  facet normal 0 0 -1
    outer loop
      vertex 0.844327 0.535827 -11.5
      vertex 3 9.2 -11.5
      vertex 0.876307 0.481753 -11.5
    endloop
  endfacet
  facet normal 0 0 -1
    outer loop
      vertex 0.809016 0.587785 -11.5
      vertex 3 9.2 -11.5
      vertex 0.844327 0.535827 -11.5
    endloop
  endfacet
  facet normal 0 0 -1
    outer loop
      vertex 0.770513 0.637424 -11.5
      vertex 3 9.2 -11.5
      vertex 0.809016 0.587785 -11.5
    endloop
  endfacet
  facet normal 0 0 -1
    outer loop
      vertex 0.728969 0.684546 -11.5
      vertex 3 9.2 -11.5
      vertex 0.770513 0.637424 -11.5
    endloop
  endfacet
  facet normal 0 0 -1
    outer loop
      vertex 0.684546 0.728969 -11.5
      vertex 3 9.2 -11.5
      vertex 0.728969 0.684546 -11.5
    endloop
  endfacet
  facet normal 0 0 -1
    outer loop
      vertex 0.637424 0.770513 -11.5
      vertex 3 9.2 -11.5
      vertex 0.684546 0.728969 -11.5
    endloop
  endfacet
  facet normal 0 0 -1
    outer loop
      vertex 0.587785 0.809016 -11.5
      vertex 3 9.2 -11.5
      vertex 0.637424 0.770513 -11.5
    endloop
  endfacet
  facet normal 0 0 -1
    outer loop
      vertex 0.535827 0.844327 -11.5
      vertex 3 9.2 -11.5
      vertex 0.587785 0.809016 -11.5
    endloop
  endfacet
  facet normal 0 0 -1
    outer loop
      vertex 0.481753 0.876307 -11.5
      vertex 3 9.2 -11.5
      vertex 0.535827 0.844327 -11.5
    endloop
  endfacet
  facet normal 0 0 -1
    outer loop
      vertex 0.425778 0.904826 -11.5
      vertex 3 9.2 -11.5
      vertex 0.481753 0.876307 -11.5
    endloop
  endfacet
  facet normal 0 0 -1
    outer loop
      vertex 0.368124 0.929776 -11.5
      vertex 3 9.2 -11.5
      vertex 0.425778 0.904826 -11.5
    endloop
  endfacet
  facet normal 0 0 -1
    outer loop
      vertex 0.309016 0.951056 -11.5
      vertex 3 9.2 -11.5
      vertex 0.368124 0.929776 -11.5
    endloop
  endfacet
  facet normal 0 0 -1
    outer loop
      vertex 0.24869 0.968583 -11.5
      vertex 3 9.2 -11.5
      vertex 0.309016 0.951056 -11.5
    endloop
  endfacet
  facet normal 0 0 -1
    outer loop
      vertex 0.187381 0.982286 -11.5
      vertex 3 9.2 -11.5
      vertex 0.24869 0.968583 -11.5
    endloop
  endfacet
  facet normal 0 0 -1
    outer loop
      vertex 0.125333 0.992114 -11.5
      vertex 3 9.2 -11.5
      vertex 0.187381 0.982286 -11.5
    endloop
  endfacet
  facet normal 0 0 -1
    outer loop
      vertex 0.0627899 0.998026 -11.5
      vertex 3 9.2 -11.5
      vertex 0.125333 0.992114 -11.5
    endloop
  endfacet
  facet normal 0 0 -1
    outer loop
      vertex 0 1 -11.5
      vertex 3 9.2 -11.5
      vertex 0.0627899 0.998026 -11.5
    endloop
  endfacet
  facet normal 0 0 -1
    outer loop
      vertex -0.0627899 0.998026 -11.5
      vertex 3 9.2 -11.5
      vertex 0 1 -11.5
    endloop
  endfacet
  facet normal 0 0 -1
    outer loop
      vertex -0.125333 0.992114 -11.5
      vertex 3 9.2 -11.5
      vertex -0.0627899 0.998026 -11.5
    endloop
  endfacet
  facet normal 0 0 -1
    outer loop
      vertex -0.187381 0.982286 -11.5
      vertex 3 9.2 -11.5
      vertex -0.125333 0.992114 -11.5
    endloop
  endfacet
  facet normal 0 0 -1
    outer loop
      vertex -0.24869 0.968583 -11.5
      vertex 3 9.2 -11.5
      vertex -0.187381 0.982286 -11.5
    endloop
  endfacet
  facet normal 0 0 -1
    outer loop
      vertex -0.309016 0.951056 -11.5
      vertex 3 9.2 -11.5
      vertex -0.24869 0.968583 -11.5
    endloop
  endfacet
  facet normal 0 0 -1
    outer loop
      vertex -0.368124 0.929776 -11.5
      vertex 3 9.2 -11.5
      vertex -0.309016 0.951056 -11.5
    endloop
  endfacet
  facet normal 0 0 -1
    outer loop
      vertex -0.425778 0.904826 -11.5
      vertex 3 9.2 -11.5
      vertex -0.368124 0.929776 -11.5
    endloop
  endfacet
  facet normal 0 0 -1
    outer loop
      vertex -0.481753 0.876307 -11.5
      vertex 3 9.2 -11.5
      vertex -0.425778 0.904826 -11.5
    endloop
  endfacet
  facet normal 0 0 -1
    outer loop
      vertex -0.535827 0.844327 -11.5
      vertex 3 9.2 -11.5
      vertex -0.481753 0.876307 -11.5
    endloop
  endfacet
  facet normal 0 0 -1
    outer loop
      vertex -0.587785 0.809016 -11.5
      vertex 3 9.2 -11.5
      vertex -0.535827 0.844327 -11.5
    endloop
  endfacet
  facet normal 0 0 -1
    outer loop
      vertex -0.637424 0.770513 -11.5
      vertex 3 9.2 -11.5
      vertex -0.587785 0.809016 -11.5
    endloop
  endfacet
  facet normal 0 0 -1
    outer loop
      vertex -0.684546 0.728969 -11.5
      vertex 3 9.2 -11.5
      vertex -0.637424 0.770513 -11.5
    endloop
  endfacet
  facet normal 0 0 -1
    outer loop
      vertex -0.728969 0.684546 -11.5
      vertex 3 9.2 -11.5
      vertex -0.684546 0.728969 -11.5
    endloop
  endfacet
  facet normal 0 0 -1
    outer loop
      vertex -0.770513 0.637424 -11.5
      vertex 3 9.2 -11.5
      vertex -0.728969 0.684546 -11.5
    endloop
  endfacet
  facet normal -0 0 -1
    outer loop
      vertex 3 9.2 -11.5
      vertex -0.770513 0.637424 -11.5
      vertex -3 24.5 -11.5
    endloop
  endfacet
  facet normal 0 0 -1
    outer loop
      vertex -3 24.5 -11.5
      vertex -0.770513 0.637424 -11.5
      vertex -0.809016 0.587785 -11.5
    endloop
  endfacet
  facet normal 0 0 -1
    outer loop
      vertex -3 24.5 -11.5
      vertex -0.809016 0.587785 -11.5
      vertex -0.844327 0.535827 -11.5
    endloop
  endfacet
  facet normal 0 0 -1
    outer loop
      vertex -3 24.5 -11.5
      vertex -0.844327 0.535827 -11.5
      vertex -0.876307 0.481753 -11.5
    endloop
  endfacet
  facet normal 0 0 -1
    outer loop
      vertex -3 24.5 -11.5
      vertex -0.876307 0.481753 -11.5
      vertex -0.904826 0.425778 -11.5
    endloop
  endfacet
  facet normal 0 0 -1
    outer loop
      vertex -3 24.5 -11.5
      vertex -0.904826 0.425778 -11.5
      vertex -0.929776 0.368124 -11.5
    endloop
  endfacet
  facet normal 0 0 -1
    outer loop
      vertex -3 24.5 -11.5
      vertex -0.929776 0.368124 -11.5
      vertex -0.951056 0.309016 -11.5
    endloop
  endfacet
  facet normal 0 0 -1
    outer loop
      vertex -3 24.5 -11.5
      vertex -0.951056 0.309016 -11.5
      vertex -0.968583 0.24869 -11.5
    endloop
  endfacet
  facet normal 0 0 -1
    outer loop
      vertex -3 24.5 -11.5
      vertex -0.968583 0.24869 -11.5
      vertex -0.982286 0.187381 -11.5
    endloop
  endfacet
  facet normal 0 0 -1
    outer loop
      vertex -3 24.5 -11.5
      vertex -1 0 -11.5
      vertex -3 -24.5 -11.5
    endloop
  endfacet
  facet normal 0 0 -1
    outer loop
      vertex 3 9.2 -11.5
      vertex -3 24.5 -11.5
      vertex 4 24.5 -11.5
    endloop
  endfacet
  facet normal 0 0 -1
    outer loop
      vertex -0.992114 0.125333 -11.5
      vertex -3 24.5 -11.5
      vertex -0.982286 0.187381 -11.5
    endloop
  endfacet
  facet normal 0 0 -1
    outer loop
      vertex -0.998026 0.0627899 -11.5
      vertex -3 24.5 -11.5
      vertex -0.992114 0.125333 -11.5
    endloop
  endfacet
  facet normal 0 0 -1
    outer loop
      vertex -1 0 -11.5
      vertex -3 24.5 -11.5
      vertex -0.998026 0.0627899 -11.5
    endloop
  endfacet
  facet normal 0 -1 0
    outer loop
      vertex -3 -24.5 -11.5
      vertex 4 -24.5 11.5
      vertex -3 -24.5 11.5
    endloop
  endfacet
  facet normal 0 -1 -0
    outer loop
      vertex 4 -24.5 11.5
      vertex -3 -24.5 -11.5
      vertex 4 -24.5 -11.5
    endloop
  endfacet
endsolid OpenSCAD_Model
