solid OpenSCAD_Model
  facet normal -1 0 0
    outer loop
      vertex 0 0 0
      vertex 0 73 2
      vertex 0 73 0
    endloop
  endfacet
  facet normal -1 -0 0
    outer loop
      vertex 0 73 2
      vertex 0 0 0
      vertex 0 0 2
    endloop
  endfacet
  facet normal 0 0 1
    outer loop
      vertex 103 73 2
      vertex 100 70 2
      vertex 103 0 2
    endloop
  endfacet
  facet normal 0 0 1
    outer loop
      vertex 103 73 2
      vertex 3 70 2
      vertex 100 70 2
    endloop
  endfacet
  facet normal 0 0 1
    outer loop
      vertex 3 70 2
      vertex 0 73 2
      vertex 3 3 2
    endloop
  endfacet
  facet normal -0 0 1
    outer loop
      vertex 0 73 2
      vertex 3 70 2
      vertex 103 73 2
    endloop
  endfacet
  facet normal -0 0 1
    outer loop
      vertex 100 3 2
      vertex 103 0 2
      vertex 100 70 2
    endloop
  endfacet
  facet normal -0 0 1
    outer loop
      vertex 3 3 2
      vertex 103 0 2
      vertex 100 3 2
    endloop
  endfacet
  facet normal 0 0 1
    outer loop
      vertex 3 3 2
      vertex 0 0 2
      vertex 103 0 2
    endloop
  endfacet
  facet normal 0 0 1
    outer loop
      vertex 0 0 2
      vertex 3 3 2
      vertex 0 73 2
    endloop
  endfacet
  facet normal 1 -0 0
    outer loop
      vertex 103 0 2
      vertex 103 73 0
      vertex 103 73 2
    endloop
  endfacet
  facet normal 1 0 0
    outer loop
      vertex 103 73 0
      vertex 103 0 2
      vertex 103 0 0
    endloop
  endfacet
  facet normal 0 0 -1
    outer loop
      vertex 103 0 0
      vertex 100 3 0
      vertex 103 73 0
    endloop
  endfacet
  facet normal 0 0 -1
    outer loop
      vertex 103 0 0
      vertex 3 3 0
      vertex 100 3 0
    endloop
  endfacet
  facet normal -0 0 -1
    outer loop
      vertex 3 3 0
      vertex 0 0 0
      vertex 3 70 0
    endloop
  endfacet
  facet normal 0 0 -1
    outer loop
      vertex 0 0 0
      vertex 3 3 0
      vertex 103 0 0
    endloop
  endfacet
  facet normal 0 0 -1
    outer loop
      vertex 100 70 0
      vertex 103 73 0
      vertex 100 3 0
    endloop
  endfacet
  facet normal 0 0 -1
    outer loop
      vertex 3 70 0
      vertex 103 73 0
      vertex 100 70 0
    endloop
  endfacet
  facet normal 0 0 -1
    outer loop
      vertex 3 70 0
      vertex 0 73 0
      vertex 103 73 0
    endloop
  endfacet
  facet normal 0 0 -1
    outer loop
      vertex 0 73 0
      vertex 3 70 0
      vertex 0 0 0
    endloop
  endfacet
  facet normal 0 -1 0
    outer loop
      vertex 0 0 0
      vertex 103 0 2
      vertex 0 0 2
    endloop
  endfacet
  facet normal 0 -1 -0
    outer loop
      vertex 103 0 2
      vertex 0 0 0
      vertex 103 0 0
    endloop
  endfacet
  facet normal 0 1 -0
    outer loop
      vertex 103 73 0
      vertex 0 73 2
      vertex 103 73 2
    endloop
  endfacet
  facet normal 0 1 0
    outer loop
      vertex 0 73 2
      vertex 103 73 0
      vertex 0 73 0
    endloop
  endfacet
  facet normal 1 -0 0
    outer loop
      vertex 3 3 2
      vertex 3 70 0
      vertex 3 70 2
    endloop
  endfacet
  facet normal 1 0 0
    outer loop
      vertex 3 70 0
      vertex 3 3 2
      vertex 3 3 0
    endloop
  endfacet
  facet normal -1 0 0
    outer loop
      vertex 100 3 0
      vertex 100 70 2
      vertex 100 70 0
    endloop
  endfacet
  facet normal -1 -0 0
    outer loop
      vertex 100 70 2
      vertex 100 3 0
      vertex 100 3 2
    endloop
  endfacet
  facet normal 0 -1 0
    outer loop
      vertex 3 70 0
      vertex 100 70 2
      vertex 3 70 2
    endloop
  endfacet
  facet normal 0 -1 -0
    outer loop
      vertex 100 70 2
      vertex 3 70 0
      vertex 100 70 0
    endloop
  endfacet
  facet normal 0 1 -0
    outer loop
      vertex 100 3 0
      vertex 3 3 2
      vertex 100 3 2
    endloop
  endfacet
  facet normal 0 1 0
    outer loop
      vertex 3 3 2
      vertex 100 3 0
      vertex 3 3 0
    endloop
  endfacet
endsolid OpenSCAD_Model
