solid OpenSCAD_Model
  facet normal -1 0 0
    outer loop
      vertex 0 25 0
      vertex 0 15.5 9.5
      vertex 0 25 9.5
    endloop
  endfacet
  facet normal -1 0 0
    outer loop
      vertex 0 0 0
      vertex 0 15.5 9.5
      vertex 0 25 0
    endloop
  endfacet
  facet normal -1 0 0
    outer loop
      vertex 0 0 13
      vertex 0 15.5 9.5
      vertex 0 0 0
    endloop
  endfacet
  facet normal -1 0 0
    outer loop
      vertex 0 15.5 9.5
      vertex 0 0 13
      vertex 0 15.5 13
    endloop
  endfacet
  facet normal -0 0 1
    outer loop
      vertex 19 25 6
      vertex 25 0 6
      vertex 25 25 6
    endloop
  endfacet
  facet normal 0 0 1
    outer loop
      vertex 25 0 6
      vertex 19 25 6
      vertex 19 0 6
    endloop
  endfacet
  facet normal 1 -0 0
    outer loop
      vertex 25 0 6
      vertex 25 25 0
      vertex 25 25 6
    endloop
  endfacet
  facet normal 1 0 0
    outer loop
      vertex 25 25 0
      vertex 25 0 6
      vertex 25 0 0
    endloop
  endfacet
  facet normal 0 0 -1
    outer loop
      vertex 0 0 0
      vertex 25 25 0
      vertex 25 0 0
    endloop
  endfacet
  facet normal -0 0 -1
    outer loop
      vertex 25 25 0
      vertex 0 0 0
      vertex 0 25 0
    endloop
  endfacet
  facet normal 0 -1 0
    outer loop
      vertex 0 0 0
      vertex 13 0 13
      vertex 0 0 13
    endloop
  endfacet
  facet normal 0 -1 -0
    outer loop
      vertex 13 0 13
      vertex 0 0 0
      vertex 19 0 6
    endloop
  endfacet
  facet normal 0 -1 0
    outer loop
      vertex 25 0 0
      vertex 19 0 6
      vertex 0 0 0
    endloop
  endfacet
  facet normal 0 -1 0
    outer loop
      vertex 19 0 6
      vertex 25 0 0
      vertex 25 0 6
    endloop
  endfacet
  facet normal 0 -1 0
    outer loop
      vertex 13 0 13
      vertex 19 0 63
      vertex 13 0 63
    endloop
  endfacet
  facet normal 0 -1 -0
    outer loop
      vertex 19 0 63
      vertex 13 0 13
      vertex 19 0 6
    endloop
  endfacet
  facet normal 0 1 0
    outer loop
      vertex 25 25 6
      vertex 25 25 0
      vertex 19 25 6
    endloop
  endfacet
  facet normal 0 1 -0
    outer loop
      vertex 19 25 6
      vertex 0 25 9.5
      vertex 19 25 9.5
    endloop
  endfacet
  facet normal 0 1 0
    outer loop
      vertex 0 25 0
      vertex 19 25 6
      vertex 25 25 0
    endloop
  endfacet
  facet normal 0 1 0
    outer loop
      vertex 19 25 6
      vertex 0 25 0
      vertex 0 25 9.5
    endloop
  endfacet
  facet normal -0 0 1
    outer loop
      vertex 0 25 9.5
      vertex 19 15.5 9.5
      vertex 19 25 9.5
    endloop
  endfacet
  facet normal 0 0 1
    outer loop
      vertex 19 15.5 9.5
      vertex 0 25 9.5
      vertex 0 15.5 9.5
    endloop
  endfacet
  facet normal 1 0 0
    outer loop
      vertex 19 15.5 63
      vertex 19 0 63
      vertex 19 15.5 9.5
    endloop
  endfacet
  facet normal 1 -0 0
    outer loop
      vertex 19 15.5 9.5
      vertex 19 25 6
      vertex 19 25 9.5
    endloop
  endfacet
  facet normal 1 0 0
    outer loop
      vertex 19 15.5 9.5
      vertex 19 0 6
      vertex 19 25 6
    endloop
  endfacet
  facet normal 1 0 0
    outer loop
      vertex 19 0 6
      vertex 19 15.5 9.5
      vertex 19 0 63
    endloop
  endfacet
  facet normal -0 0 1
    outer loop
      vertex 0 15.5 13
      vertex 13 0 13
      vertex 13 15.5 13
    endloop
  endfacet
  facet normal 0 0 1
    outer loop
      vertex 13 0 13
      vertex 0 15.5 13
      vertex 0 0 13
    endloop
  endfacet
  facet normal 0 1 0
    outer loop
      vertex 19 15.5 63
      vertex 13 15.5 13
      vertex 13 15.5 63
    endloop
  endfacet
  facet normal 0 1 -0
    outer loop
      vertex 19 15.5 9.5
      vertex 13 15.5 13
      vertex 19 15.5 63
    endloop
  endfacet
  facet normal 0 1 0
    outer loop
      vertex 0 15.5 9.5
      vertex 13 15.5 13
      vertex 19 15.5 9.5
    endloop
  endfacet
  facet normal 0 1 0
    outer loop
      vertex 13 15.5 13
      vertex 0 15.5 9.5
      vertex 0 15.5 13
    endloop
  endfacet
  facet normal -1 0 0
    outer loop
      vertex 13 0 13
      vertex 13 15.5 63
      vertex 13 15.5 13
    endloop
  endfacet
  facet normal -1 -0 0
    outer loop
      vertex 13 15.5 63
      vertex 13 0 13
      vertex 13 0 63
    endloop
  endfacet
  facet normal -0 0 1
    outer loop
      vertex 13 15.5 63
      vertex 19 0 63
      vertex 19 15.5 63
    endloop
  endfacet
  facet normal 0 0 1
    outer loop
      vertex 19 0 63
      vertex 13 15.5 63
      vertex 13 0 63
    endloop
  endfacet
  facet normal -1 0 0
    outer loop
      vertex 0 52 0
      vertex 0 42.5 9.5
      vertex 0 52 9.5
    endloop
  endfacet
  facet normal -1 0 0
    outer loop
      vertex 0 27 0
      vertex 0 42.5 9.5
      vertex 0 52 0
    endloop
  endfacet
  facet normal -1 0 0
    outer loop
      vertex 0 27 13
      vertex 0 42.5 9.5
      vertex 0 27 0
    endloop
  endfacet
  facet normal -1 0 0
    outer loop
      vertex 0 42.5 9.5
      vertex 0 27 13
      vertex 0 42.5 13
    endloop
  endfacet
  facet normal -0 0 1
    outer loop
      vertex 19 52 6
      vertex 25 27 6
      vertex 25 52 6
    endloop
  endfacet
  facet normal 0 0 1
    outer loop
      vertex 25 27 6
      vertex 19 52 6
      vertex 19 27 6
    endloop
  endfacet
  facet normal 1 -0 0
    outer loop
      vertex 25 27 6
      vertex 25 52 0
      vertex 25 52 6
    endloop
  endfacet
  facet normal 1 0 0
    outer loop
      vertex 25 52 0
      vertex 25 27 6
      vertex 25 27 0
    endloop
  endfacet
  facet normal 0 0 -1
    outer loop
      vertex 0 27 0
      vertex 25 52 0
      vertex 25 27 0
    endloop
  endfacet
  facet normal -0 0 -1
    outer loop
      vertex 25 52 0
      vertex 0 27 0
      vertex 0 52 0
    endloop
  endfacet
  facet normal 0 -1 0
    outer loop
      vertex 0 27 0
      vertex 13 27 13
      vertex 0 27 13
    endloop
  endfacet
  facet normal 0 -1 -0
    outer loop
      vertex 13 27 13
      vertex 0 27 0
      vertex 19 27 6
    endloop
  endfacet
  facet normal 0 -1 0
    outer loop
      vertex 25 27 0
      vertex 19 27 6
      vertex 0 27 0
    endloop
  endfacet
  facet normal 0 -1 0
    outer loop
      vertex 19 27 6
      vertex 25 27 0
      vertex 25 27 6
    endloop
  endfacet
  facet normal 0 -1 0
    outer loop
      vertex 13 27 13
      vertex 19 27 63
      vertex 13 27 63
    endloop
  endfacet
  facet normal 0 -1 -0
    outer loop
      vertex 19 27 63
      vertex 13 27 13
      vertex 19 27 6
    endloop
  endfacet
  facet normal 0 1 0
    outer loop
      vertex 25 52 6
      vertex 25 52 0
      vertex 19 52 6
    endloop
  endfacet
  facet normal 0 1 -0
    outer loop
      vertex 19 52 6
      vertex 0 52 9.5
      vertex 19 52 9.5
    endloop
  endfacet
  facet normal 0 1 0
    outer loop
      vertex 0 52 0
      vertex 19 52 6
      vertex 25 52 0
    endloop
  endfacet
  facet normal 0 1 0
    outer loop
      vertex 19 52 6
      vertex 0 52 0
      vertex 0 52 9.5
    endloop
  endfacet
  facet normal -0 0 1
    outer loop
      vertex 0 52 9.5
      vertex 19 42.5 9.5
      vertex 19 52 9.5
    endloop
  endfacet
  facet normal 0 0 1
    outer loop
      vertex 19 42.5 9.5
      vertex 0 52 9.5
      vertex 0 42.5 9.5
    endloop
  endfacet
  facet normal 1 0 0
    outer loop
      vertex 19 42.5 63
      vertex 19 27 63
      vertex 19 42.5 9.5
    endloop
  endfacet
  facet normal 1 -0 0
    outer loop
      vertex 19 42.5 9.5
      vertex 19 52 6
      vertex 19 52 9.5
    endloop
  endfacet
  facet normal 1 0 0
    outer loop
      vertex 19 42.5 9.5
      vertex 19 27 6
      vertex 19 52 6
    endloop
  endfacet
  facet normal 1 0 0
    outer loop
      vertex 19 27 6
      vertex 19 42.5 9.5
      vertex 19 27 63
    endloop
  endfacet
  facet normal -0 0 1
    outer loop
      vertex 0 42.5 13
      vertex 13 27 13
      vertex 13 42.5 13
    endloop
  endfacet
  facet normal 0 0 1
    outer loop
      vertex 13 27 13
      vertex 0 42.5 13
      vertex 0 27 13
    endloop
  endfacet
  facet normal 0 1 0
    outer loop
      vertex 19 42.5 63
      vertex 13 42.5 13
      vertex 13 42.5 63
    endloop
  endfacet
  facet normal 0 1 -0
    outer loop
      vertex 19 42.5 9.5
      vertex 13 42.5 13
      vertex 19 42.5 63
    endloop
  endfacet
  facet normal 0 1 0
    outer loop
      vertex 0 42.5 9.5
      vertex 13 42.5 13
      vertex 19 42.5 9.5
    endloop
  endfacet
  facet normal 0 1 0
    outer loop
      vertex 13 42.5 13
      vertex 0 42.5 9.5
      vertex 0 42.5 13
    endloop
  endfacet
  facet normal -1 0 0
    outer loop
      vertex 13 27 13
      vertex 13 42.5 63
      vertex 13 42.5 13
    endloop
  endfacet
  facet normal -1 -0 0
    outer loop
      vertex 13 42.5 63
      vertex 13 27 13
      vertex 13 27 63
    endloop
  endfacet
  facet normal -0 0 1
    outer loop
      vertex 13 42.5 63
      vertex 19 27 63
      vertex 19 42.5 63
    endloop
  endfacet
  facet normal 0 0 1
    outer loop
      vertex 19 27 63
      vertex 13 42.5 63
      vertex 13 27 63
    endloop
  endfacet
  facet normal -1 0 0
    outer loop
      vertex 0 79 0
      vertex 0 69.5 9.5
      vertex 0 79 9.5
    endloop
  endfacet
  facet normal -1 0 0
    outer loop
      vertex 0 54 0
      vertex 0 69.5 9.5
      vertex 0 79 0
    endloop
  endfacet
  facet normal -1 0 0
    outer loop
      vertex 0 54 13
      vertex 0 69.5 9.5
      vertex 0 54 0
    endloop
  endfacet
  facet normal -1 0 0
    outer loop
      vertex 0 69.5 9.5
      vertex 0 54 13
      vertex 0 69.5 13
    endloop
  endfacet
  facet normal -0 0 1
    outer loop
      vertex 19 79 6
      vertex 25 54 6
      vertex 25 79 6
    endloop
  endfacet
  facet normal 0 0 1
    outer loop
      vertex 25 54 6
      vertex 19 79 6
      vertex 19 54 6
    endloop
  endfacet
  facet normal 1 -0 0
    outer loop
      vertex 25 54 6
      vertex 25 79 0
      vertex 25 79 6
    endloop
  endfacet
  facet normal 1 0 0
    outer loop
      vertex 25 79 0
      vertex 25 54 6
      vertex 25 54 0
    endloop
  endfacet
  facet normal 0 0 -1
    outer loop
      vertex 0 54 0
      vertex 25 79 0
      vertex 25 54 0
    endloop
  endfacet
  facet normal -0 0 -1
    outer loop
      vertex 25 79 0
      vertex 0 54 0
      vertex 0 79 0
    endloop
  endfacet
  facet normal 0 -1 0
    outer loop
      vertex 0 54 0
      vertex 13 54 13
      vertex 0 54 13
    endloop
  endfacet
  facet normal 0 -1 -0
    outer loop
      vertex 13 54 13
      vertex 0 54 0
      vertex 19 54 6
    endloop
  endfacet
  facet normal 0 -1 0
    outer loop
      vertex 25 54 0
      vertex 19 54 6
      vertex 0 54 0
    endloop
  endfacet
  facet normal 0 -1 0
    outer loop
      vertex 19 54 6
      vertex 25 54 0
      vertex 25 54 6
    endloop
  endfacet
  facet normal 0 -1 0
    outer loop
      vertex 13 54 13
      vertex 19 54 63
      vertex 13 54 63
    endloop
  endfacet
  facet normal 0 -1 -0
    outer loop
      vertex 19 54 63
      vertex 13 54 13
      vertex 19 54 6
    endloop
  endfacet
  facet normal 0 1 0
    outer loop
      vertex 25 79 6
      vertex 25 79 0
      vertex 19 79 6
    endloop
  endfacet
  facet normal 0 1 -0
    outer loop
      vertex 19 79 6
      vertex 0 79 9.5
      vertex 19 79 9.5
    endloop
  endfacet
  facet normal 0 1 0
    outer loop
      vertex 0 79 0
      vertex 19 79 6
      vertex 25 79 0
    endloop
  endfacet
  facet normal 0 1 0
    outer loop
      vertex 19 79 6
      vertex 0 79 0
      vertex 0 79 9.5
    endloop
  endfacet
  facet normal -0 0 1
    outer loop
      vertex 0 79 9.5
      vertex 19 69.5 9.5
      vertex 19 79 9.5
    endloop
  endfacet
  facet normal 0 0 1
    outer loop
      vertex 19 69.5 9.5
      vertex 0 79 9.5
      vertex 0 69.5 9.5
    endloop
  endfacet
  facet normal 1 0 0
    outer loop
      vertex 19 69.5 63
      vertex 19 54 63
      vertex 19 69.5 9.5
    endloop
  endfacet
  facet normal 1 -0 0
    outer loop
      vertex 19 69.5 9.5
      vertex 19 79 6
      vertex 19 79 9.5
    endloop
  endfacet
  facet normal 1 0 0
    outer loop
      vertex 19 69.5 9.5
      vertex 19 54 6
      vertex 19 79 6
    endloop
  endfacet
  facet normal 1 0 0
    outer loop
      vertex 19 54 6
      vertex 19 69.5 9.5
      vertex 19 54 63
    endloop
  endfacet
  facet normal -0 0 1
    outer loop
      vertex 0 69.5 13
      vertex 13 54 13
      vertex 13 69.5 13
    endloop
  endfacet
  facet normal 0 0 1
    outer loop
      vertex 13 54 13
      vertex 0 69.5 13
      vertex 0 54 13
    endloop
  endfacet
  facet normal 0 1 0
    outer loop
      vertex 19 69.5 63
      vertex 13 69.5 13
      vertex 13 69.5 63
    endloop
  endfacet
  facet normal 0 1 -0
    outer loop
      vertex 19 69.5 9.5
      vertex 13 69.5 13
      vertex 19 69.5 63
    endloop
  endfacet
  facet normal 0 1 0
    outer loop
      vertex 0 69.5 9.5
      vertex 13 69.5 13
      vertex 19 69.5 9.5
    endloop
  endfacet
  facet normal 0 1 0
    outer loop
      vertex 13 69.5 13
      vertex 0 69.5 9.5
      vertex 0 69.5 13
    endloop
  endfacet
  facet normal -1 0 0
    outer loop
      vertex 13 54 13
      vertex 13 69.5 63
      vertex 13 69.5 13
    endloop
  endfacet
  facet normal -1 -0 0
    outer loop
      vertex 13 69.5 63
      vertex 13 54 13
      vertex 13 54 63
    endloop
  endfacet
  facet normal -0 0 1
    outer loop
      vertex 13 69.5 63
      vertex 19 54 63
      vertex 19 69.5 63
    endloop
  endfacet
  facet normal 0 0 1
    outer loop
      vertex 19 54 63
      vertex 13 69.5 63
      vertex 13 54 63
    endloop
  endfacet
  facet normal -1 0 0
    outer loop
      vertex 0 106 0
      vertex 0 96.5 9.5
      vertex 0 106 9.5
    endloop
  endfacet
  facet normal -1 0 0
    outer loop
      vertex 0 81 0
      vertex 0 96.5 9.5
      vertex 0 106 0
    endloop
  endfacet
  facet normal -1 0 0
    outer loop
      vertex 0 81 13
      vertex 0 96.5 9.5
      vertex 0 81 0
    endloop
  endfacet
  facet normal -1 0 0
    outer loop
      vertex 0 96.5 9.5
      vertex 0 81 13
      vertex 0 96.5 13
    endloop
  endfacet
  facet normal -0 0 1
    outer loop
      vertex 19 106 6
      vertex 25 81 6
      vertex 25 106 6
    endloop
  endfacet
  facet normal 0 0 1
    outer loop
      vertex 25 81 6
      vertex 19 106 6
      vertex 19 81 6
    endloop
  endfacet
  facet normal 1 -0 0
    outer loop
      vertex 25 81 6
      vertex 25 106 0
      vertex 25 106 6
    endloop
  endfacet
  facet normal 1 0 0
    outer loop
      vertex 25 106 0
      vertex 25 81 6
      vertex 25 81 0
    endloop
  endfacet
  facet normal 0 0 -1
    outer loop
      vertex 0 81 0
      vertex 25 106 0
      vertex 25 81 0
    endloop
  endfacet
  facet normal -0 0 -1
    outer loop
      vertex 25 106 0
      vertex 0 81 0
      vertex 0 106 0
    endloop
  endfacet
  facet normal 0 -1 0
    outer loop
      vertex 0 81 0
      vertex 13 81 13
      vertex 0 81 13
    endloop
  endfacet
  facet normal 0 -1 -0
    outer loop
      vertex 13 81 13
      vertex 0 81 0
      vertex 19 81 6
    endloop
  endfacet
  facet normal 0 -1 0
    outer loop
      vertex 25 81 0
      vertex 19 81 6
      vertex 0 81 0
    endloop
  endfacet
  facet normal 0 -1 0
    outer loop
      vertex 19 81 6
      vertex 25 81 0
      vertex 25 81 6
    endloop
  endfacet
  facet normal 0 -1 0
    outer loop
      vertex 13 81 13
      vertex 19 81 63
      vertex 13 81 63
    endloop
  endfacet
  facet normal 0 -1 -0
    outer loop
      vertex 19 81 63
      vertex 13 81 13
      vertex 19 81 6
    endloop
  endfacet
  facet normal 0 1 0
    outer loop
      vertex 25 106 6
      vertex 25 106 0
      vertex 19 106 6
    endloop
  endfacet
  facet normal 0 1 -0
    outer loop
      vertex 19 106 6
      vertex 0 106 9.5
      vertex 19 106 9.5
    endloop
  endfacet
  facet normal 0 1 0
    outer loop
      vertex 0 106 0
      vertex 19 106 6
      vertex 25 106 0
    endloop
  endfacet
  facet normal 0 1 0
    outer loop
      vertex 19 106 6
      vertex 0 106 0
      vertex 0 106 9.5
    endloop
  endfacet
  facet normal -0 0 1
    outer loop
      vertex 0 106 9.5
      vertex 19 96.5 9.5
      vertex 19 106 9.5
    endloop
  endfacet
  facet normal 0 0 1
    outer loop
      vertex 19 96.5 9.5
      vertex 0 106 9.5
      vertex 0 96.5 9.5
    endloop
  endfacet
  facet normal 1 0 0
    outer loop
      vertex 19 96.5 63
      vertex 19 81 63
      vertex 19 96.5 9.5
    endloop
  endfacet
  facet normal 1 -0 0
    outer loop
      vertex 19 96.5 9.5
      vertex 19 106 6
      vertex 19 106 9.5
    endloop
  endfacet
  facet normal 1 0 0
    outer loop
      vertex 19 96.5 9.5
      vertex 19 81 6
      vertex 19 106 6
    endloop
  endfacet
  facet normal 1 0 0
    outer loop
      vertex 19 81 6
      vertex 19 96.5 9.5
      vertex 19 81 63
    endloop
  endfacet
  facet normal -0 0 1
    outer loop
      vertex 0 96.5 13
      vertex 13 81 13
      vertex 13 96.5 13
    endloop
  endfacet
  facet normal 0 0 1
    outer loop
      vertex 13 81 13
      vertex 0 96.5 13
      vertex 0 81 13
    endloop
  endfacet
  facet normal 0 1 0
    outer loop
      vertex 19 96.5 63
      vertex 13 96.5 13
      vertex 13 96.5 63
    endloop
  endfacet
  facet normal 0 1 -0
    outer loop
      vertex 19 96.5 9.5
      vertex 13 96.5 13
      vertex 19 96.5 63
    endloop
  endfacet
  facet normal 0 1 0
    outer loop
      vertex 0 96.5 9.5
      vertex 13 96.5 13
      vertex 19 96.5 9.5
    endloop
  endfacet
  facet normal 0 1 0
    outer loop
      vertex 13 96.5 13
      vertex 0 96.5 9.5
      vertex 0 96.5 13
    endloop
  endfacet
  facet normal -1 0 0
    outer loop
      vertex 13 81 13
      vertex 13 96.5 63
      vertex 13 96.5 13
    endloop
  endfacet
  facet normal -1 -0 0
    outer loop
      vertex 13 96.5 63
      vertex 13 81 13
      vertex 13 81 63
    endloop
  endfacet
  facet normal -0 0 1
    outer loop
      vertex 13 96.5 63
      vertex 19 81 63
      vertex 19 96.5 63
    endloop
  endfacet
  facet normal 0 0 1
    outer loop
      vertex 19 81 63
      vertex 13 96.5 63
      vertex 13 81 63
    endloop
  endfacet
  facet normal -1 0 0
    outer loop
      vertex 27 25 0
      vertex 27 15.5 9.5
      vertex 27 25 9.5
    endloop
  endfacet
  facet normal -1 0 0
    outer loop
      vertex 27 0 0
      vertex 27 15.5 9.5
      vertex 27 25 0
    endloop
  endfacet
  facet normal -1 0 0
    outer loop
      vertex 27 0 13
      vertex 27 15.5 9.5
      vertex 27 0 0
    endloop
  endfacet
  facet normal -1 0 0
    outer loop
      vertex 27 15.5 9.5
      vertex 27 0 13
      vertex 27 15.5 13
    endloop
  endfacet
  facet normal -0 0 1
    outer loop
      vertex 46 25 6
      vertex 52 0 6
      vertex 52 25 6
    endloop
  endfacet
  facet normal 0 0 1
    outer loop
      vertex 52 0 6
      vertex 46 25 6
      vertex 46 0 6
    endloop
  endfacet
  facet normal 1 -0 0
    outer loop
      vertex 52 0 6
      vertex 52 25 0
      vertex 52 25 6
    endloop
  endfacet
  facet normal 1 0 0
    outer loop
      vertex 52 25 0
      vertex 52 0 6
      vertex 52 0 0
    endloop
  endfacet
  facet normal 0 0 -1
    outer loop
      vertex 27 0 0
      vertex 52 25 0
      vertex 52 0 0
    endloop
  endfacet
  facet normal -0 0 -1
    outer loop
      vertex 52 25 0
      vertex 27 0 0
      vertex 27 25 0
    endloop
  endfacet
  facet normal 0 -1 0
    outer loop
      vertex 27 0 0
      vertex 40 0 13
      vertex 27 0 13
    endloop
  endfacet
  facet normal 0 -1 -0
    outer loop
      vertex 40 0 13
      vertex 27 0 0
      vertex 46 0 6
    endloop
  endfacet
  facet normal 0 -1 0
    outer loop
      vertex 52 0 0
      vertex 46 0 6
      vertex 27 0 0
    endloop
  endfacet
  facet normal 0 -1 0
    outer loop
      vertex 46 0 6
      vertex 52 0 0
      vertex 52 0 6
    endloop
  endfacet
  facet normal 0 -1 0
    outer loop
      vertex 40 0 13
      vertex 46 0 63
      vertex 40 0 63
    endloop
  endfacet
  facet normal 0 -1 -0
    outer loop
      vertex 46 0 63
      vertex 40 0 13
      vertex 46 0 6
    endloop
  endfacet
  facet normal 0 1 0
    outer loop
      vertex 52 25 6
      vertex 52 25 0
      vertex 46 25 6
    endloop
  endfacet
  facet normal 0 1 -0
    outer loop
      vertex 46 25 6
      vertex 27 25 9.5
      vertex 46 25 9.5
    endloop
  endfacet
  facet normal 0 1 0
    outer loop
      vertex 27 25 0
      vertex 46 25 6
      vertex 52 25 0
    endloop
  endfacet
  facet normal 0 1 0
    outer loop
      vertex 46 25 6
      vertex 27 25 0
      vertex 27 25 9.5
    endloop
  endfacet
  facet normal -0 0 1
    outer loop
      vertex 27 25 9.5
      vertex 46 15.5 9.5
      vertex 46 25 9.5
    endloop
  endfacet
  facet normal 0 0 1
    outer loop
      vertex 46 15.5 9.5
      vertex 27 25 9.5
      vertex 27 15.5 9.5
    endloop
  endfacet
  facet normal 1 0 0
    outer loop
      vertex 46 15.5 63
      vertex 46 0 63
      vertex 46 15.5 9.5
    endloop
  endfacet
  facet normal 1 -0 0
    outer loop
      vertex 46 15.5 9.5
      vertex 46 25 6
      vertex 46 25 9.5
    endloop
  endfacet
  facet normal 1 0 0
    outer loop
      vertex 46 15.5 9.5
      vertex 46 0 6
      vertex 46 25 6
    endloop
  endfacet
  facet normal 1 0 0
    outer loop
      vertex 46 0 6
      vertex 46 15.5 9.5
      vertex 46 0 63
    endloop
  endfacet
  facet normal -0 0 1
    outer loop
      vertex 27 15.5 13
      vertex 40 0 13
      vertex 40 15.5 13
    endloop
  endfacet
  facet normal 0 0 1
    outer loop
      vertex 40 0 13
      vertex 27 15.5 13
      vertex 27 0 13
    endloop
  endfacet
  facet normal 0 1 0
    outer loop
      vertex 46 15.5 63
      vertex 40 15.5 13
      vertex 40 15.5 63
    endloop
  endfacet
  facet normal 0 1 -0
    outer loop
      vertex 46 15.5 9.5
      vertex 40 15.5 13
      vertex 46 15.5 63
    endloop
  endfacet
  facet normal 0 1 0
    outer loop
      vertex 27 15.5 9.5
      vertex 40 15.5 13
      vertex 46 15.5 9.5
    endloop
  endfacet
  facet normal 0 1 0
    outer loop
      vertex 40 15.5 13
      vertex 27 15.5 9.5
      vertex 27 15.5 13
    endloop
  endfacet
  facet normal -1 0 0
    outer loop
      vertex 40 0 13
      vertex 40 15.5 63
      vertex 40 15.5 13
    endloop
  endfacet
  facet normal -1 -0 0
    outer loop
      vertex 40 15.5 63
      vertex 40 0 13
      vertex 40 0 63
    endloop
  endfacet
  facet normal -0 0 1
    outer loop
      vertex 40 15.5 63
      vertex 46 0 63
      vertex 46 15.5 63
    endloop
  endfacet
  facet normal 0 0 1
    outer loop
      vertex 46 0 63
      vertex 40 15.5 63
      vertex 40 0 63
    endloop
  endfacet
  facet normal -1 0 0
    outer loop
      vertex 27 52 0
      vertex 27 42.5 9.5
      vertex 27 52 9.5
    endloop
  endfacet
  facet normal -1 0 0
    outer loop
      vertex 27 27 0
      vertex 27 42.5 9.5
      vertex 27 52 0
    endloop
  endfacet
  facet normal -1 0 0
    outer loop
      vertex 27 27 13
      vertex 27 42.5 9.5
      vertex 27 27 0
    endloop
  endfacet
  facet normal -1 0 0
    outer loop
      vertex 27 42.5 9.5
      vertex 27 27 13
      vertex 27 42.5 13
    endloop
  endfacet
  facet normal -0 0 1
    outer loop
      vertex 46 52 6
      vertex 52 27 6
      vertex 52 52 6
    endloop
  endfacet
  facet normal 0 0 1
    outer loop
      vertex 52 27 6
      vertex 46 52 6
      vertex 46 27 6
    endloop
  endfacet
  facet normal 1 -0 0
    outer loop
      vertex 52 27 6
      vertex 52 52 0
      vertex 52 52 6
    endloop
  endfacet
  facet normal 1 0 0
    outer loop
      vertex 52 52 0
      vertex 52 27 6
      vertex 52 27 0
    endloop
  endfacet
  facet normal 0 0 -1
    outer loop
      vertex 27 27 0
      vertex 52 52 0
      vertex 52 27 0
    endloop
  endfacet
  facet normal -0 0 -1
    outer loop
      vertex 52 52 0
      vertex 27 27 0
      vertex 27 52 0
    endloop
  endfacet
  facet normal 0 -1 0
    outer loop
      vertex 27 27 0
      vertex 40 27 13
      vertex 27 27 13
    endloop
  endfacet
  facet normal 0 -1 -0
    outer loop
      vertex 40 27 13
      vertex 27 27 0
      vertex 46 27 6
    endloop
  endfacet
  facet normal 0 -1 0
    outer loop
      vertex 52 27 0
      vertex 46 27 6
      vertex 27 27 0
    endloop
  endfacet
  facet normal 0 -1 0
    outer loop
      vertex 46 27 6
      vertex 52 27 0
      vertex 52 27 6
    endloop
  endfacet
  facet normal 0 -1 0
    outer loop
      vertex 40 27 13
      vertex 46 27 63
      vertex 40 27 63
    endloop
  endfacet
  facet normal 0 -1 -0
    outer loop
      vertex 46 27 63
      vertex 40 27 13
      vertex 46 27 6
    endloop
  endfacet
  facet normal 0 1 0
    outer loop
      vertex 52 52 6
      vertex 52 52 0
      vertex 46 52 6
    endloop
  endfacet
  facet normal 0 1 -0
    outer loop
      vertex 46 52 6
      vertex 27 52 9.5
      vertex 46 52 9.5
    endloop
  endfacet
  facet normal 0 1 0
    outer loop
      vertex 27 52 0
      vertex 46 52 6
      vertex 52 52 0
    endloop
  endfacet
  facet normal 0 1 0
    outer loop
      vertex 46 52 6
      vertex 27 52 0
      vertex 27 52 9.5
    endloop
  endfacet
  facet normal -0 0 1
    outer loop
      vertex 27 52 9.5
      vertex 46 42.5 9.5
      vertex 46 52 9.5
    endloop
  endfacet
  facet normal 0 0 1
    outer loop
      vertex 46 42.5 9.5
      vertex 27 52 9.5
      vertex 27 42.5 9.5
    endloop
  endfacet
  facet normal 1 0 0
    outer loop
      vertex 46 42.5 63
      vertex 46 27 63
      vertex 46 42.5 9.5
    endloop
  endfacet
  facet normal 1 -0 0
    outer loop
      vertex 46 42.5 9.5
      vertex 46 52 6
      vertex 46 52 9.5
    endloop
  endfacet
  facet normal 1 0 0
    outer loop
      vertex 46 42.5 9.5
      vertex 46 27 6
      vertex 46 52 6
    endloop
  endfacet
  facet normal 1 0 0
    outer loop
      vertex 46 27 6
      vertex 46 42.5 9.5
      vertex 46 27 63
    endloop
  endfacet
  facet normal -0 0 1
    outer loop
      vertex 27 42.5 13
      vertex 40 27 13
      vertex 40 42.5 13
    endloop
  endfacet
  facet normal 0 0 1
    outer loop
      vertex 40 27 13
      vertex 27 42.5 13
      vertex 27 27 13
    endloop
  endfacet
  facet normal 0 1 0
    outer loop
      vertex 46 42.5 63
      vertex 40 42.5 13
      vertex 40 42.5 63
    endloop
  endfacet
  facet normal 0 1 -0
    outer loop
      vertex 46 42.5 9.5
      vertex 40 42.5 13
      vertex 46 42.5 63
    endloop
  endfacet
  facet normal 0 1 0
    outer loop
      vertex 27 42.5 9.5
      vertex 40 42.5 13
      vertex 46 42.5 9.5
    endloop
  endfacet
  facet normal 0 1 0
    outer loop
      vertex 40 42.5 13
      vertex 27 42.5 9.5
      vertex 27 42.5 13
    endloop
  endfacet
  facet normal -1 0 0
    outer loop
      vertex 40 27 13
      vertex 40 42.5 63
      vertex 40 42.5 13
    endloop
  endfacet
  facet normal -1 -0 0
    outer loop
      vertex 40 42.5 63
      vertex 40 27 13
      vertex 40 27 63
    endloop
  endfacet
  facet normal -0 0 1
    outer loop
      vertex 40 42.5 63
      vertex 46 27 63
      vertex 46 42.5 63
    endloop
  endfacet
  facet normal 0 0 1
    outer loop
      vertex 46 27 63
      vertex 40 42.5 63
      vertex 40 27 63
    endloop
  endfacet
  facet normal -1 0 0
    outer loop
      vertex 27 79 0
      vertex 27 69.5 9.5
      vertex 27 79 9.5
    endloop
  endfacet
  facet normal -1 0 0
    outer loop
      vertex 27 54 0
      vertex 27 69.5 9.5
      vertex 27 79 0
    endloop
  endfacet
  facet normal -1 0 0
    outer loop
      vertex 27 54 13
      vertex 27 69.5 9.5
      vertex 27 54 0
    endloop
  endfacet
  facet normal -1 0 0
    outer loop
      vertex 27 69.5 9.5
      vertex 27 54 13
      vertex 27 69.5 13
    endloop
  endfacet
  facet normal -0 0 1
    outer loop
      vertex 46 79 6
      vertex 52 54 6
      vertex 52 79 6
    endloop
  endfacet
  facet normal 0 0 1
    outer loop
      vertex 52 54 6
      vertex 46 79 6
      vertex 46 54 6
    endloop
  endfacet
  facet normal 1 -0 0
    outer loop
      vertex 52 54 6
      vertex 52 79 0
      vertex 52 79 6
    endloop
  endfacet
  facet normal 1 0 0
    outer loop
      vertex 52 79 0
      vertex 52 54 6
      vertex 52 54 0
    endloop
  endfacet
  facet normal 0 0 -1
    outer loop
      vertex 27 54 0
      vertex 52 79 0
      vertex 52 54 0
    endloop
  endfacet
  facet normal -0 0 -1
    outer loop
      vertex 52 79 0
      vertex 27 54 0
      vertex 27 79 0
    endloop
  endfacet
  facet normal 0 -1 0
    outer loop
      vertex 27 54 0
      vertex 40 54 13
      vertex 27 54 13
    endloop
  endfacet
  facet normal 0 -1 -0
    outer loop
      vertex 40 54 13
      vertex 27 54 0
      vertex 46 54 6
    endloop
  endfacet
  facet normal 0 -1 0
    outer loop
      vertex 52 54 0
      vertex 46 54 6
      vertex 27 54 0
    endloop
  endfacet
  facet normal 0 -1 0
    outer loop
      vertex 46 54 6
      vertex 52 54 0
      vertex 52 54 6
    endloop
  endfacet
  facet normal 0 -1 0
    outer loop
      vertex 40 54 13
      vertex 46 54 63
      vertex 40 54 63
    endloop
  endfacet
  facet normal 0 -1 -0
    outer loop
      vertex 46 54 63
      vertex 40 54 13
      vertex 46 54 6
    endloop
  endfacet
  facet normal 0 1 0
    outer loop
      vertex 52 79 6
      vertex 52 79 0
      vertex 46 79 6
    endloop
  endfacet
  facet normal 0 1 -0
    outer loop
      vertex 46 79 6
      vertex 27 79 9.5
      vertex 46 79 9.5
    endloop
  endfacet
  facet normal 0 1 0
    outer loop
      vertex 27 79 0
      vertex 46 79 6
      vertex 52 79 0
    endloop
  endfacet
  facet normal 0 1 0
    outer loop
      vertex 46 79 6
      vertex 27 79 0
      vertex 27 79 9.5
    endloop
  endfacet
  facet normal -0 0 1
    outer loop
      vertex 27 79 9.5
      vertex 46 69.5 9.5
      vertex 46 79 9.5
    endloop
  endfacet
  facet normal 0 0 1
    outer loop
      vertex 46 69.5 9.5
      vertex 27 79 9.5
      vertex 27 69.5 9.5
    endloop
  endfacet
  facet normal 1 0 0
    outer loop
      vertex 46 69.5 63
      vertex 46 54 63
      vertex 46 69.5 9.5
    endloop
  endfacet
  facet normal 1 -0 0
    outer loop
      vertex 46 69.5 9.5
      vertex 46 79 6
      vertex 46 79 9.5
    endloop
  endfacet
  facet normal 1 0 0
    outer loop
      vertex 46 69.5 9.5
      vertex 46 54 6
      vertex 46 79 6
    endloop
  endfacet
  facet normal 1 0 0
    outer loop
      vertex 46 54 6
      vertex 46 69.5 9.5
      vertex 46 54 63
    endloop
  endfacet
  facet normal -0 0 1
    outer loop
      vertex 27 69.5 13
      vertex 40 54 13
      vertex 40 69.5 13
    endloop
  endfacet
  facet normal 0 0 1
    outer loop
      vertex 40 54 13
      vertex 27 69.5 13
      vertex 27 54 13
    endloop
  endfacet
  facet normal 0 1 0
    outer loop
      vertex 46 69.5 63
      vertex 40 69.5 13
      vertex 40 69.5 63
    endloop
  endfacet
  facet normal 0 1 -0
    outer loop
      vertex 46 69.5 9.5
      vertex 40 69.5 13
      vertex 46 69.5 63
    endloop
  endfacet
  facet normal 0 1 0
    outer loop
      vertex 27 69.5 9.5
      vertex 40 69.5 13
      vertex 46 69.5 9.5
    endloop
  endfacet
  facet normal 0 1 0
    outer loop
      vertex 40 69.5 13
      vertex 27 69.5 9.5
      vertex 27 69.5 13
    endloop
  endfacet
  facet normal -1 0 0
    outer loop
      vertex 40 54 13
      vertex 40 69.5 63
      vertex 40 69.5 13
    endloop
  endfacet
  facet normal -1 -0 0
    outer loop
      vertex 40 69.5 63
      vertex 40 54 13
      vertex 40 54 63
    endloop
  endfacet
  facet normal -0 0 1
    outer loop
      vertex 40 69.5 63
      vertex 46 54 63
      vertex 46 69.5 63
    endloop
  endfacet
  facet normal 0 0 1
    outer loop
      vertex 46 54 63
      vertex 40 69.5 63
      vertex 40 54 63
    endloop
  endfacet
  facet normal -1 0 0
    outer loop
      vertex 27 106 0
      vertex 27 96.5 9.5
      vertex 27 106 9.5
    endloop
  endfacet
  facet normal -1 0 0
    outer loop
      vertex 27 81 0
      vertex 27 96.5 9.5
      vertex 27 106 0
    endloop
  endfacet
  facet normal -1 0 0
    outer loop
      vertex 27 81 13
      vertex 27 96.5 9.5
      vertex 27 81 0
    endloop
  endfacet
  facet normal -1 0 0
    outer loop
      vertex 27 96.5 9.5
      vertex 27 81 13
      vertex 27 96.5 13
    endloop
  endfacet
  facet normal -0 0 1
    outer loop
      vertex 46 106 6
      vertex 52 81 6
      vertex 52 106 6
    endloop
  endfacet
  facet normal 0 0 1
    outer loop
      vertex 52 81 6
      vertex 46 106 6
      vertex 46 81 6
    endloop
  endfacet
  facet normal 1 -0 0
    outer loop
      vertex 52 81 6
      vertex 52 106 0
      vertex 52 106 6
    endloop
  endfacet
  facet normal 1 0 0
    outer loop
      vertex 52 106 0
      vertex 52 81 6
      vertex 52 81 0
    endloop
  endfacet
  facet normal 0 0 -1
    outer loop
      vertex 27 81 0
      vertex 52 106 0
      vertex 52 81 0
    endloop
  endfacet
  facet normal -0 0 -1
    outer loop
      vertex 52 106 0
      vertex 27 81 0
      vertex 27 106 0
    endloop
  endfacet
  facet normal 0 -1 0
    outer loop
      vertex 27 81 0
      vertex 40 81 13
      vertex 27 81 13
    endloop
  endfacet
  facet normal 0 -1 -0
    outer loop
      vertex 40 81 13
      vertex 27 81 0
      vertex 46 81 6
    endloop
  endfacet
  facet normal 0 -1 0
    outer loop
      vertex 52 81 0
      vertex 46 81 6
      vertex 27 81 0
    endloop
  endfacet
  facet normal 0 -1 0
    outer loop
      vertex 46 81 6
      vertex 52 81 0
      vertex 52 81 6
    endloop
  endfacet
  facet normal 0 -1 0
    outer loop
      vertex 40 81 13
      vertex 46 81 63
      vertex 40 81 63
    endloop
  endfacet
  facet normal 0 -1 -0
    outer loop
      vertex 46 81 63
      vertex 40 81 13
      vertex 46 81 6
    endloop
  endfacet
  facet normal 0 1 0
    outer loop
      vertex 52 106 6
      vertex 52 106 0
      vertex 46 106 6
    endloop
  endfacet
  facet normal 0 1 -0
    outer loop
      vertex 46 106 6
      vertex 27 106 9.5
      vertex 46 106 9.5
    endloop
  endfacet
  facet normal 0 1 0
    outer loop
      vertex 27 106 0
      vertex 46 106 6
      vertex 52 106 0
    endloop
  endfacet
  facet normal 0 1 0
    outer loop
      vertex 46 106 6
      vertex 27 106 0
      vertex 27 106 9.5
    endloop
  endfacet
  facet normal -0 0 1
    outer loop
      vertex 27 106 9.5
      vertex 46 96.5 9.5
      vertex 46 106 9.5
    endloop
  endfacet
  facet normal 0 0 1
    outer loop
      vertex 46 96.5 9.5
      vertex 27 106 9.5
      vertex 27 96.5 9.5
    endloop
  endfacet
  facet normal 1 0 0
    outer loop
      vertex 46 96.5 63
      vertex 46 81 63
      vertex 46 96.5 9.5
    endloop
  endfacet
  facet normal 1 -0 0
    outer loop
      vertex 46 96.5 9.5
      vertex 46 106 6
      vertex 46 106 9.5
    endloop
  endfacet
  facet normal 1 0 0
    outer loop
      vertex 46 96.5 9.5
      vertex 46 81 6
      vertex 46 106 6
    endloop
  endfacet
  facet normal 1 0 0
    outer loop
      vertex 46 81 6
      vertex 46 96.5 9.5
      vertex 46 81 63
    endloop
  endfacet
  facet normal -0 0 1
    outer loop
      vertex 27 96.5 13
      vertex 40 81 13
      vertex 40 96.5 13
    endloop
  endfacet
  facet normal 0 0 1
    outer loop
      vertex 40 81 13
      vertex 27 96.5 13
      vertex 27 81 13
    endloop
  endfacet
  facet normal 0 1 0
    outer loop
      vertex 46 96.5 63
      vertex 40 96.5 13
      vertex 40 96.5 63
    endloop
  endfacet
  facet normal 0 1 -0
    outer loop
      vertex 46 96.5 9.5
      vertex 40 96.5 13
      vertex 46 96.5 63
    endloop
  endfacet
  facet normal 0 1 0
    outer loop
      vertex 27 96.5 9.5
      vertex 40 96.5 13
      vertex 46 96.5 9.5
    endloop
  endfacet
  facet normal 0 1 0
    outer loop
      vertex 40 96.5 13
      vertex 27 96.5 9.5
      vertex 27 96.5 13
    endloop
  endfacet
  facet normal -1 0 0
    outer loop
      vertex 40 81 13
      vertex 40 96.5 63
      vertex 40 96.5 13
    endloop
  endfacet
  facet normal -1 -0 0
    outer loop
      vertex 40 96.5 63
      vertex 40 81 13
      vertex 40 81 63
    endloop
  endfacet
  facet normal -0 0 1
    outer loop
      vertex 40 96.5 63
      vertex 46 81 63
      vertex 46 96.5 63
    endloop
  endfacet
  facet normal 0 0 1
    outer loop
      vertex 46 81 63
      vertex 40 96.5 63
      vertex 40 81 63
    endloop
  endfacet
  facet normal -1 0 0
    outer loop
      vertex 54 25 0
      vertex 54 15.5 9.5
      vertex 54 25 9.5
    endloop
  endfacet
  facet normal -1 0 0
    outer loop
      vertex 54 0 0
      vertex 54 15.5 9.5
      vertex 54 25 0
    endloop
  endfacet
  facet normal -1 0 0
    outer loop
      vertex 54 0 13
      vertex 54 15.5 9.5
      vertex 54 0 0
    endloop
  endfacet
  facet normal -1 0 0
    outer loop
      vertex 54 15.5 9.5
      vertex 54 0 13
      vertex 54 15.5 13
    endloop
  endfacet
  facet normal -0 0 1
    outer loop
      vertex 73 25 6
      vertex 79 0 6
      vertex 79 25 6
    endloop
  endfacet
  facet normal 0 0 1
    outer loop
      vertex 79 0 6
      vertex 73 25 6
      vertex 73 0 6
    endloop
  endfacet
  facet normal 1 -0 0
    outer loop
      vertex 79 0 6
      vertex 79 25 0
      vertex 79 25 6
    endloop
  endfacet
  facet normal 1 0 0
    outer loop
      vertex 79 25 0
      vertex 79 0 6
      vertex 79 0 0
    endloop
  endfacet
  facet normal 0 0 -1
    outer loop
      vertex 54 0 0
      vertex 79 25 0
      vertex 79 0 0
    endloop
  endfacet
  facet normal -0 0 -1
    outer loop
      vertex 79 25 0
      vertex 54 0 0
      vertex 54 25 0
    endloop
  endfacet
  facet normal 0 -1 0
    outer loop
      vertex 54 0 0
      vertex 67 0 13
      vertex 54 0 13
    endloop
  endfacet
  facet normal 0 -1 -0
    outer loop
      vertex 67 0 13
      vertex 54 0 0
      vertex 73 0 6
    endloop
  endfacet
  facet normal 0 -1 0
    outer loop
      vertex 79 0 0
      vertex 73 0 6
      vertex 54 0 0
    endloop
  endfacet
  facet normal 0 -1 0
    outer loop
      vertex 73 0 6
      vertex 79 0 0
      vertex 79 0 6
    endloop
  endfacet
  facet normal 0 -1 0
    outer loop
      vertex 67 0 13
      vertex 73 0 63
      vertex 67 0 63
    endloop
  endfacet
  facet normal 0 -1 -0
    outer loop
      vertex 73 0 63
      vertex 67 0 13
      vertex 73 0 6
    endloop
  endfacet
  facet normal 0 1 0
    outer loop
      vertex 79 25 6
      vertex 79 25 0
      vertex 73 25 6
    endloop
  endfacet
  facet normal 0 1 -0
    outer loop
      vertex 73 25 6
      vertex 54 25 9.5
      vertex 73 25 9.5
    endloop
  endfacet
  facet normal 0 1 0
    outer loop
      vertex 54 25 0
      vertex 73 25 6
      vertex 79 25 0
    endloop
  endfacet
  facet normal 0 1 0
    outer loop
      vertex 73 25 6
      vertex 54 25 0
      vertex 54 25 9.5
    endloop
  endfacet
  facet normal -0 0 1
    outer loop
      vertex 54 25 9.5
      vertex 73 15.5 9.5
      vertex 73 25 9.5
    endloop
  endfacet
  facet normal 0 0 1
    outer loop
      vertex 73 15.5 9.5
      vertex 54 25 9.5
      vertex 54 15.5 9.5
    endloop
  endfacet
  facet normal 1 0 0
    outer loop
      vertex 73 15.5 63
      vertex 73 0 63
      vertex 73 15.5 9.5
    endloop
  endfacet
  facet normal 1 -0 0
    outer loop
      vertex 73 15.5 9.5
      vertex 73 25 6
      vertex 73 25 9.5
    endloop
  endfacet
  facet normal 1 0 0
    outer loop
      vertex 73 15.5 9.5
      vertex 73 0 6
      vertex 73 25 6
    endloop
  endfacet
  facet normal 1 0 0
    outer loop
      vertex 73 0 6
      vertex 73 15.5 9.5
      vertex 73 0 63
    endloop
  endfacet
  facet normal -0 0 1
    outer loop
      vertex 54 15.5 13
      vertex 67 0 13
      vertex 67 15.5 13
    endloop
  endfacet
  facet normal 0 0 1
    outer loop
      vertex 67 0 13
      vertex 54 15.5 13
      vertex 54 0 13
    endloop
  endfacet
  facet normal 0 1 0
    outer loop
      vertex 73 15.5 63
      vertex 67 15.5 13
      vertex 67 15.5 63
    endloop
  endfacet
  facet normal 0 1 -0
    outer loop
      vertex 73 15.5 9.5
      vertex 67 15.5 13
      vertex 73 15.5 63
    endloop
  endfacet
  facet normal 0 1 0
    outer loop
      vertex 54 15.5 9.5
      vertex 67 15.5 13
      vertex 73 15.5 9.5
    endloop
  endfacet
  facet normal 0 1 0
    outer loop
      vertex 67 15.5 13
      vertex 54 15.5 9.5
      vertex 54 15.5 13
    endloop
  endfacet
  facet normal -1 0 0
    outer loop
      vertex 67 0 13
      vertex 67 15.5 63
      vertex 67 15.5 13
    endloop
  endfacet
  facet normal -1 -0 0
    outer loop
      vertex 67 15.5 63
      vertex 67 0 13
      vertex 67 0 63
    endloop
  endfacet
  facet normal -0 0 1
    outer loop
      vertex 67 15.5 63
      vertex 73 0 63
      vertex 73 15.5 63
    endloop
  endfacet
  facet normal 0 0 1
    outer loop
      vertex 73 0 63
      vertex 67 15.5 63
      vertex 67 0 63
    endloop
  endfacet
  facet normal -1 0 0
    outer loop
      vertex 54 52 0
      vertex 54 42.5 9.5
      vertex 54 52 9.5
    endloop
  endfacet
  facet normal -1 0 0
    outer loop
      vertex 54 27 0
      vertex 54 42.5 9.5
      vertex 54 52 0
    endloop
  endfacet
  facet normal -1 0 0
    outer loop
      vertex 54 27 13
      vertex 54 42.5 9.5
      vertex 54 27 0
    endloop
  endfacet
  facet normal -1 0 0
    outer loop
      vertex 54 42.5 9.5
      vertex 54 27 13
      vertex 54 42.5 13
    endloop
  endfacet
  facet normal -0 0 1
    outer loop
      vertex 73 52 6
      vertex 79 27 6
      vertex 79 52 6
    endloop
  endfacet
  facet normal 0 0 1
    outer loop
      vertex 79 27 6
      vertex 73 52 6
      vertex 73 27 6
    endloop
  endfacet
  facet normal 1 -0 0
    outer loop
      vertex 79 27 6
      vertex 79 52 0
      vertex 79 52 6
    endloop
  endfacet
  facet normal 1 0 0
    outer loop
      vertex 79 52 0
      vertex 79 27 6
      vertex 79 27 0
    endloop
  endfacet
  facet normal 0 0 -1
    outer loop
      vertex 54 27 0
      vertex 79 52 0
      vertex 79 27 0
    endloop
  endfacet
  facet normal -0 0 -1
    outer loop
      vertex 79 52 0
      vertex 54 27 0
      vertex 54 52 0
    endloop
  endfacet
  facet normal 0 -1 0
    outer loop
      vertex 54 27 0
      vertex 67 27 13
      vertex 54 27 13
    endloop
  endfacet
  facet normal 0 -1 -0
    outer loop
      vertex 67 27 13
      vertex 54 27 0
      vertex 73 27 6
    endloop
  endfacet
  facet normal 0 -1 0
    outer loop
      vertex 79 27 0
      vertex 73 27 6
      vertex 54 27 0
    endloop
  endfacet
  facet normal 0 -1 0
    outer loop
      vertex 73 27 6
      vertex 79 27 0
      vertex 79 27 6
    endloop
  endfacet
  facet normal 0 -1 0
    outer loop
      vertex 67 27 13
      vertex 73 27 63
      vertex 67 27 63
    endloop
  endfacet
  facet normal 0 -1 -0
    outer loop
      vertex 73 27 63
      vertex 67 27 13
      vertex 73 27 6
    endloop
  endfacet
  facet normal 0 1 0
    outer loop
      vertex 79 52 6
      vertex 79 52 0
      vertex 73 52 6
    endloop
  endfacet
  facet normal 0 1 -0
    outer loop
      vertex 73 52 6
      vertex 54 52 9.5
      vertex 73 52 9.5
    endloop
  endfacet
  facet normal 0 1 0
    outer loop
      vertex 54 52 0
      vertex 73 52 6
      vertex 79 52 0
    endloop
  endfacet
  facet normal 0 1 0
    outer loop
      vertex 73 52 6
      vertex 54 52 0
      vertex 54 52 9.5
    endloop
  endfacet
  facet normal -0 0 1
    outer loop
      vertex 54 52 9.5
      vertex 73 42.5 9.5
      vertex 73 52 9.5
    endloop
  endfacet
  facet normal 0 0 1
    outer loop
      vertex 73 42.5 9.5
      vertex 54 52 9.5
      vertex 54 42.5 9.5
    endloop
  endfacet
  facet normal 1 0 0
    outer loop
      vertex 73 42.5 63
      vertex 73 27 63
      vertex 73 42.5 9.5
    endloop
  endfacet
  facet normal 1 -0 0
    outer loop
      vertex 73 42.5 9.5
      vertex 73 52 6
      vertex 73 52 9.5
    endloop
  endfacet
  facet normal 1 0 0
    outer loop
      vertex 73 42.5 9.5
      vertex 73 27 6
      vertex 73 52 6
    endloop
  endfacet
  facet normal 1 0 0
    outer loop
      vertex 73 27 6
      vertex 73 42.5 9.5
      vertex 73 27 63
    endloop
  endfacet
  facet normal -0 0 1
    outer loop
      vertex 54 42.5 13
      vertex 67 27 13
      vertex 67 42.5 13
    endloop
  endfacet
  facet normal 0 0 1
    outer loop
      vertex 67 27 13
      vertex 54 42.5 13
      vertex 54 27 13
    endloop
  endfacet
  facet normal 0 1 0
    outer loop
      vertex 73 42.5 63
      vertex 67 42.5 13
      vertex 67 42.5 63
    endloop
  endfacet
  facet normal 0 1 -0
    outer loop
      vertex 73 42.5 9.5
      vertex 67 42.5 13
      vertex 73 42.5 63
    endloop
  endfacet
  facet normal 0 1 0
    outer loop
      vertex 54 42.5 9.5
      vertex 67 42.5 13
      vertex 73 42.5 9.5
    endloop
  endfacet
  facet normal 0 1 0
    outer loop
      vertex 67 42.5 13
      vertex 54 42.5 9.5
      vertex 54 42.5 13
    endloop
  endfacet
  facet normal -1 0 0
    outer loop
      vertex 67 27 13
      vertex 67 42.5 63
      vertex 67 42.5 13
    endloop
  endfacet
  facet normal -1 -0 0
    outer loop
      vertex 67 42.5 63
      vertex 67 27 13
      vertex 67 27 63
    endloop
  endfacet
  facet normal -0 0 1
    outer loop
      vertex 67 42.5 63
      vertex 73 27 63
      vertex 73 42.5 63
    endloop
  endfacet
  facet normal 0 0 1
    outer loop
      vertex 73 27 63
      vertex 67 42.5 63
      vertex 67 27 63
    endloop
  endfacet
  facet normal -1 0 0
    outer loop
      vertex 54 79 0
      vertex 54 69.5 9.5
      vertex 54 79 9.5
    endloop
  endfacet
  facet normal -1 0 0
    outer loop
      vertex 54 54 0
      vertex 54 69.5 9.5
      vertex 54 79 0
    endloop
  endfacet
  facet normal -1 0 0
    outer loop
      vertex 54 54 13
      vertex 54 69.5 9.5
      vertex 54 54 0
    endloop
  endfacet
  facet normal -1 0 0
    outer loop
      vertex 54 69.5 9.5
      vertex 54 54 13
      vertex 54 69.5 13
    endloop
  endfacet
  facet normal -0 0 1
    outer loop
      vertex 73 79 6
      vertex 79 54 6
      vertex 79 79 6
    endloop
  endfacet
  facet normal 0 0 1
    outer loop
      vertex 79 54 6
      vertex 73 79 6
      vertex 73 54 6
    endloop
  endfacet
  facet normal 1 -0 0
    outer loop
      vertex 79 54 6
      vertex 79 79 0
      vertex 79 79 6
    endloop
  endfacet
  facet normal 1 0 0
    outer loop
      vertex 79 79 0
      vertex 79 54 6
      vertex 79 54 0
    endloop
  endfacet
  facet normal 0 0 -1
    outer loop
      vertex 54 54 0
      vertex 79 79 0
      vertex 79 54 0
    endloop
  endfacet
  facet normal -0 0 -1
    outer loop
      vertex 79 79 0
      vertex 54 54 0
      vertex 54 79 0
    endloop
  endfacet
  facet normal 0 -1 0
    outer loop
      vertex 54 54 0
      vertex 67 54 13
      vertex 54 54 13
    endloop
  endfacet
  facet normal 0 -1 -0
    outer loop
      vertex 67 54 13
      vertex 54 54 0
      vertex 73 54 6
    endloop
  endfacet
  facet normal 0 -1 0
    outer loop
      vertex 79 54 0
      vertex 73 54 6
      vertex 54 54 0
    endloop
  endfacet
  facet normal 0 -1 0
    outer loop
      vertex 73 54 6
      vertex 79 54 0
      vertex 79 54 6
    endloop
  endfacet
  facet normal 0 -1 0
    outer loop
      vertex 67 54 13
      vertex 73 54 63
      vertex 67 54 63
    endloop
  endfacet
  facet normal 0 -1 -0
    outer loop
      vertex 73 54 63
      vertex 67 54 13
      vertex 73 54 6
    endloop
  endfacet
  facet normal 0 1 0
    outer loop
      vertex 79 79 6
      vertex 79 79 0
      vertex 73 79 6
    endloop
  endfacet
  facet normal 0 1 -0
    outer loop
      vertex 73 79 6
      vertex 54 79 9.5
      vertex 73 79 9.5
    endloop
  endfacet
  facet normal 0 1 0
    outer loop
      vertex 54 79 0
      vertex 73 79 6
      vertex 79 79 0
    endloop
  endfacet
  facet normal 0 1 0
    outer loop
      vertex 73 79 6
      vertex 54 79 0
      vertex 54 79 9.5
    endloop
  endfacet
  facet normal -0 0 1
    outer loop
      vertex 54 79 9.5
      vertex 73 69.5 9.5
      vertex 73 79 9.5
    endloop
  endfacet
  facet normal 0 0 1
    outer loop
      vertex 73 69.5 9.5
      vertex 54 79 9.5
      vertex 54 69.5 9.5
    endloop
  endfacet
  facet normal 1 0 0
    outer loop
      vertex 73 69.5 63
      vertex 73 54 63
      vertex 73 69.5 9.5
    endloop
  endfacet
  facet normal 1 -0 0
    outer loop
      vertex 73 69.5 9.5
      vertex 73 79 6
      vertex 73 79 9.5
    endloop
  endfacet
  facet normal 1 0 0
    outer loop
      vertex 73 69.5 9.5
      vertex 73 54 6
      vertex 73 79 6
    endloop
  endfacet
  facet normal 1 0 0
    outer loop
      vertex 73 54 6
      vertex 73 69.5 9.5
      vertex 73 54 63
    endloop
  endfacet
  facet normal -0 0 1
    outer loop
      vertex 54 69.5 13
      vertex 67 54 13
      vertex 67 69.5 13
    endloop
  endfacet
  facet normal 0 0 1
    outer loop
      vertex 67 54 13
      vertex 54 69.5 13
      vertex 54 54 13
    endloop
  endfacet
  facet normal 0 1 0
    outer loop
      vertex 73 69.5 63
      vertex 67 69.5 13
      vertex 67 69.5 63
    endloop
  endfacet
  facet normal 0 1 -0
    outer loop
      vertex 73 69.5 9.5
      vertex 67 69.5 13
      vertex 73 69.5 63
    endloop
  endfacet
  facet normal 0 1 0
    outer loop
      vertex 54 69.5 9.5
      vertex 67 69.5 13
      vertex 73 69.5 9.5
    endloop
  endfacet
  facet normal 0 1 0
    outer loop
      vertex 67 69.5 13
      vertex 54 69.5 9.5
      vertex 54 69.5 13
    endloop
  endfacet
  facet normal -1 0 0
    outer loop
      vertex 67 54 13
      vertex 67 69.5 63
      vertex 67 69.5 13
    endloop
  endfacet
  facet normal -1 -0 0
    outer loop
      vertex 67 69.5 63
      vertex 67 54 13
      vertex 67 54 63
    endloop
  endfacet
  facet normal -0 0 1
    outer loop
      vertex 67 69.5 63
      vertex 73 54 63
      vertex 73 69.5 63
    endloop
  endfacet
  facet normal 0 0 1
    outer loop
      vertex 73 54 63
      vertex 67 69.5 63
      vertex 67 54 63
    endloop
  endfacet
  facet normal -1 0 0
    outer loop
      vertex 54 106 0
      vertex 54 96.5 9.5
      vertex 54 106 9.5
    endloop
  endfacet
  facet normal -1 0 0
    outer loop
      vertex 54 81 0
      vertex 54 96.5 9.5
      vertex 54 106 0
    endloop
  endfacet
  facet normal -1 0 0
    outer loop
      vertex 54 81 13
      vertex 54 96.5 9.5
      vertex 54 81 0
    endloop
  endfacet
  facet normal -1 0 0
    outer loop
      vertex 54 96.5 9.5
      vertex 54 81 13
      vertex 54 96.5 13
    endloop
  endfacet
  facet normal -0 0 1
    outer loop
      vertex 73 106 6
      vertex 79 81 6
      vertex 79 106 6
    endloop
  endfacet
  facet normal 0 0 1
    outer loop
      vertex 79 81 6
      vertex 73 106 6
      vertex 73 81 6
    endloop
  endfacet
  facet normal 1 -0 0
    outer loop
      vertex 79 81 6
      vertex 79 106 0
      vertex 79 106 6
    endloop
  endfacet
  facet normal 1 0 0
    outer loop
      vertex 79 106 0
      vertex 79 81 6
      vertex 79 81 0
    endloop
  endfacet
  facet normal 0 0 -1
    outer loop
      vertex 54 81 0
      vertex 79 106 0
      vertex 79 81 0
    endloop
  endfacet
  facet normal -0 0 -1
    outer loop
      vertex 79 106 0
      vertex 54 81 0
      vertex 54 106 0
    endloop
  endfacet
  facet normal 0 -1 0
    outer loop
      vertex 54 81 0
      vertex 67 81 13
      vertex 54 81 13
    endloop
  endfacet
  facet normal 0 -1 -0
    outer loop
      vertex 67 81 13
      vertex 54 81 0
      vertex 73 81 6
    endloop
  endfacet
  facet normal 0 -1 0
    outer loop
      vertex 79 81 0
      vertex 73 81 6
      vertex 54 81 0
    endloop
  endfacet
  facet normal 0 -1 0
    outer loop
      vertex 73 81 6
      vertex 79 81 0
      vertex 79 81 6
    endloop
  endfacet
  facet normal 0 -1 0
    outer loop
      vertex 67 81 13
      vertex 73 81 63
      vertex 67 81 63
    endloop
  endfacet
  facet normal 0 -1 -0
    outer loop
      vertex 73 81 63
      vertex 67 81 13
      vertex 73 81 6
    endloop
  endfacet
  facet normal 0 1 0
    outer loop
      vertex 79 106 6
      vertex 79 106 0
      vertex 73 106 6
    endloop
  endfacet
  facet normal 0 1 -0
    outer loop
      vertex 73 106 6
      vertex 54 106 9.5
      vertex 73 106 9.5
    endloop
  endfacet
  facet normal 0 1 0
    outer loop
      vertex 54 106 0
      vertex 73 106 6
      vertex 79 106 0
    endloop
  endfacet
  facet normal 0 1 0
    outer loop
      vertex 73 106 6
      vertex 54 106 0
      vertex 54 106 9.5
    endloop
  endfacet
  facet normal -0 0 1
    outer loop
      vertex 54 106 9.5
      vertex 73 96.5 9.5
      vertex 73 106 9.5
    endloop
  endfacet
  facet normal 0 0 1
    outer loop
      vertex 73 96.5 9.5
      vertex 54 106 9.5
      vertex 54 96.5 9.5
    endloop
  endfacet
  facet normal 1 0 0
    outer loop
      vertex 73 96.5 63
      vertex 73 81 63
      vertex 73 96.5 9.5
    endloop
  endfacet
  facet normal 1 -0 0
    outer loop
      vertex 73 96.5 9.5
      vertex 73 106 6
      vertex 73 106 9.5
    endloop
  endfacet
  facet normal 1 0 0
    outer loop
      vertex 73 96.5 9.5
      vertex 73 81 6
      vertex 73 106 6
    endloop
  endfacet
  facet normal 1 0 0
    outer loop
      vertex 73 81 6
      vertex 73 96.5 9.5
      vertex 73 81 63
    endloop
  endfacet
  facet normal -0 0 1
    outer loop
      vertex 54 96.5 13
      vertex 67 81 13
      vertex 67 96.5 13
    endloop
  endfacet
  facet normal 0 0 1
    outer loop
      vertex 67 81 13
      vertex 54 96.5 13
      vertex 54 81 13
    endloop
  endfacet
  facet normal 0 1 0
    outer loop
      vertex 73 96.5 63
      vertex 67 96.5 13
      vertex 67 96.5 63
    endloop
  endfacet
  facet normal 0 1 -0
    outer loop
      vertex 73 96.5 9.5
      vertex 67 96.5 13
      vertex 73 96.5 63
    endloop
  endfacet
  facet normal 0 1 0
    outer loop
      vertex 54 96.5 9.5
      vertex 67 96.5 13
      vertex 73 96.5 9.5
    endloop
  endfacet
  facet normal 0 1 0
    outer loop
      vertex 67 96.5 13
      vertex 54 96.5 9.5
      vertex 54 96.5 13
    endloop
  endfacet
  facet normal -1 0 0
    outer loop
      vertex 67 81 13
      vertex 67 96.5 63
      vertex 67 96.5 13
    endloop
  endfacet
  facet normal -1 -0 0
    outer loop
      vertex 67 96.5 63
      vertex 67 81 13
      vertex 67 81 63
    endloop
  endfacet
  facet normal -0 0 1
    outer loop
      vertex 67 96.5 63
      vertex 73 81 63
      vertex 73 96.5 63
    endloop
  endfacet
  facet normal 0 0 1
    outer loop
      vertex 73 81 63
      vertex 67 96.5 63
      vertex 67 81 63
    endloop
  endfacet
  facet normal -1 0 0
    outer loop
      vertex 81 25 0
      vertex 81 15.5 9.5
      vertex 81 25 9.5
    endloop
  endfacet
  facet normal -1 0 0
    outer loop
      vertex 81 0 0
      vertex 81 15.5 9.5
      vertex 81 25 0
    endloop
  endfacet
  facet normal -1 0 0
    outer loop
      vertex 81 0 13
      vertex 81 15.5 9.5
      vertex 81 0 0
    endloop
  endfacet
  facet normal -1 0 0
    outer loop
      vertex 81 15.5 9.5
      vertex 81 0 13
      vertex 81 15.5 13
    endloop
  endfacet
  facet normal -0 0 1
    outer loop
      vertex 100 25 6
      vertex 106 0 6
      vertex 106 25 6
    endloop
  endfacet
  facet normal 0 0 1
    outer loop
      vertex 106 0 6
      vertex 100 25 6
      vertex 100 0 6
    endloop
  endfacet
  facet normal 1 -0 0
    outer loop
      vertex 106 0 6
      vertex 106 25 0
      vertex 106 25 6
    endloop
  endfacet
  facet normal 1 0 0
    outer loop
      vertex 106 25 0
      vertex 106 0 6
      vertex 106 0 0
    endloop
  endfacet
  facet normal 0 0 -1
    outer loop
      vertex 81 0 0
      vertex 106 25 0
      vertex 106 0 0
    endloop
  endfacet
  facet normal -0 0 -1
    outer loop
      vertex 106 25 0
      vertex 81 0 0
      vertex 81 25 0
    endloop
  endfacet
  facet normal 0 -1 0
    outer loop
      vertex 81 0 0
      vertex 94 0 13
      vertex 81 0 13
    endloop
  endfacet
  facet normal 0 -1 -0
    outer loop
      vertex 94 0 13
      vertex 81 0 0
      vertex 100 0 6
    endloop
  endfacet
  facet normal 0 -1 0
    outer loop
      vertex 106 0 0
      vertex 100 0 6
      vertex 81 0 0
    endloop
  endfacet
  facet normal 0 -1 0
    outer loop
      vertex 100 0 6
      vertex 106 0 0
      vertex 106 0 6
    endloop
  endfacet
  facet normal 0 -1 0
    outer loop
      vertex 94 0 13
      vertex 100 0 63
      vertex 94 0 63
    endloop
  endfacet
  facet normal 0 -1 -0
    outer loop
      vertex 100 0 63
      vertex 94 0 13
      vertex 100 0 6
    endloop
  endfacet
  facet normal 0 1 0
    outer loop
      vertex 106 25 6
      vertex 106 25 0
      vertex 100 25 6
    endloop
  endfacet
  facet normal 0 1 -0
    outer loop
      vertex 100 25 6
      vertex 81 25 9.5
      vertex 100 25 9.5
    endloop
  endfacet
  facet normal 0 1 0
    outer loop
      vertex 81 25 0
      vertex 100 25 6
      vertex 106 25 0
    endloop
  endfacet
  facet normal 0 1 0
    outer loop
      vertex 100 25 6
      vertex 81 25 0
      vertex 81 25 9.5
    endloop
  endfacet
  facet normal -0 0 1
    outer loop
      vertex 81 25 9.5
      vertex 100 15.5 9.5
      vertex 100 25 9.5
    endloop
  endfacet
  facet normal 0 0 1
    outer loop
      vertex 100 15.5 9.5
      vertex 81 25 9.5
      vertex 81 15.5 9.5
    endloop
  endfacet
  facet normal 1 0 0
    outer loop
      vertex 100 15.5 63
      vertex 100 0 63
      vertex 100 15.5 9.5
    endloop
  endfacet
  facet normal 1 -0 0
    outer loop
      vertex 100 15.5 9.5
      vertex 100 25 6
      vertex 100 25 9.5
    endloop
  endfacet
  facet normal 1 0 0
    outer loop
      vertex 100 15.5 9.5
      vertex 100 0 6
      vertex 100 25 6
    endloop
  endfacet
  facet normal 1 0 0
    outer loop
      vertex 100 0 6
      vertex 100 15.5 9.5
      vertex 100 0 63
    endloop
  endfacet
  facet normal -0 0 1
    outer loop
      vertex 81 15.5 13
      vertex 94 0 13
      vertex 94 15.5 13
    endloop
  endfacet
  facet normal 0 0 1
    outer loop
      vertex 94 0 13
      vertex 81 15.5 13
      vertex 81 0 13
    endloop
  endfacet
  facet normal 0 1 0
    outer loop
      vertex 100 15.5 63
      vertex 94 15.5 13
      vertex 94 15.5 63
    endloop
  endfacet
  facet normal 0 1 -0
    outer loop
      vertex 100 15.5 9.5
      vertex 94 15.5 13
      vertex 100 15.5 63
    endloop
  endfacet
  facet normal 0 1 0
    outer loop
      vertex 81 15.5 9.5
      vertex 94 15.5 13
      vertex 100 15.5 9.5
    endloop
  endfacet
  facet normal 0 1 0
    outer loop
      vertex 94 15.5 13
      vertex 81 15.5 9.5
      vertex 81 15.5 13
    endloop
  endfacet
  facet normal -1 0 0
    outer loop
      vertex 94 0 13
      vertex 94 15.5 63
      vertex 94 15.5 13
    endloop
  endfacet
  facet normal -1 -0 0
    outer loop
      vertex 94 15.5 63
      vertex 94 0 13
      vertex 94 0 63
    endloop
  endfacet
  facet normal -0 0 1
    outer loop
      vertex 94 15.5 63
      vertex 100 0 63
      vertex 100 15.5 63
    endloop
  endfacet
  facet normal 0 0 1
    outer loop
      vertex 100 0 63
      vertex 94 15.5 63
      vertex 94 0 63
    endloop
  endfacet
  facet normal -1 0 0
    outer loop
      vertex 81 52 0
      vertex 81 42.5 9.5
      vertex 81 52 9.5
    endloop
  endfacet
  facet normal -1 0 0
    outer loop
      vertex 81 27 0
      vertex 81 42.5 9.5
      vertex 81 52 0
    endloop
  endfacet
  facet normal -1 0 0
    outer loop
      vertex 81 27 13
      vertex 81 42.5 9.5
      vertex 81 27 0
    endloop
  endfacet
  facet normal -1 0 0
    outer loop
      vertex 81 42.5 9.5
      vertex 81 27 13
      vertex 81 42.5 13
    endloop
  endfacet
  facet normal -0 0 1
    outer loop
      vertex 100 52 6
      vertex 106 27 6
      vertex 106 52 6
    endloop
  endfacet
  facet normal 0 0 1
    outer loop
      vertex 106 27 6
      vertex 100 52 6
      vertex 100 27 6
    endloop
  endfacet
  facet normal 1 -0 0
    outer loop
      vertex 106 27 6
      vertex 106 52 0
      vertex 106 52 6
    endloop
  endfacet
  facet normal 1 0 0
    outer loop
      vertex 106 52 0
      vertex 106 27 6
      vertex 106 27 0
    endloop
  endfacet
  facet normal 0 0 -1
    outer loop
      vertex 81 27 0
      vertex 106 52 0
      vertex 106 27 0
    endloop
  endfacet
  facet normal -0 0 -1
    outer loop
      vertex 106 52 0
      vertex 81 27 0
      vertex 81 52 0
    endloop
  endfacet
  facet normal 0 -1 0
    outer loop
      vertex 81 27 0
      vertex 94 27 13
      vertex 81 27 13
    endloop
  endfacet
  facet normal 0 -1 -0
    outer loop
      vertex 94 27 13
      vertex 81 27 0
      vertex 100 27 6
    endloop
  endfacet
  facet normal 0 -1 0
    outer loop
      vertex 106 27 0
      vertex 100 27 6
      vertex 81 27 0
    endloop
  endfacet
  facet normal 0 -1 0
    outer loop
      vertex 100 27 6
      vertex 106 27 0
      vertex 106 27 6
    endloop
  endfacet
  facet normal 0 -1 0
    outer loop
      vertex 94 27 13
      vertex 100 27 63
      vertex 94 27 63
    endloop
  endfacet
  facet normal 0 -1 -0
    outer loop
      vertex 100 27 63
      vertex 94 27 13
      vertex 100 27 6
    endloop
  endfacet
  facet normal 0 1 0
    outer loop
      vertex 106 52 6
      vertex 106 52 0
      vertex 100 52 6
    endloop
  endfacet
  facet normal 0 1 -0
    outer loop
      vertex 100 52 6
      vertex 81 52 9.5
      vertex 100 52 9.5
    endloop
  endfacet
  facet normal 0 1 0
    outer loop
      vertex 81 52 0
      vertex 100 52 6
      vertex 106 52 0
    endloop
  endfacet
  facet normal 0 1 0
    outer loop
      vertex 100 52 6
      vertex 81 52 0
      vertex 81 52 9.5
    endloop
  endfacet
  facet normal -0 0 1
    outer loop
      vertex 81 52 9.5
      vertex 100 42.5 9.5
      vertex 100 52 9.5
    endloop
  endfacet
  facet normal 0 0 1
    outer loop
      vertex 100 42.5 9.5
      vertex 81 52 9.5
      vertex 81 42.5 9.5
    endloop
  endfacet
  facet normal 1 0 0
    outer loop
      vertex 100 42.5 63
      vertex 100 27 63
      vertex 100 42.5 9.5
    endloop
  endfacet
  facet normal 1 -0 0
    outer loop
      vertex 100 42.5 9.5
      vertex 100 52 6
      vertex 100 52 9.5
    endloop
  endfacet
  facet normal 1 0 0
    outer loop
      vertex 100 42.5 9.5
      vertex 100 27 6
      vertex 100 52 6
    endloop
  endfacet
  facet normal 1 0 0
    outer loop
      vertex 100 27 6
      vertex 100 42.5 9.5
      vertex 100 27 63
    endloop
  endfacet
  facet normal -0 0 1
    outer loop
      vertex 81 42.5 13
      vertex 94 27 13
      vertex 94 42.5 13
    endloop
  endfacet
  facet normal 0 0 1
    outer loop
      vertex 94 27 13
      vertex 81 42.5 13
      vertex 81 27 13
    endloop
  endfacet
  facet normal 0 1 0
    outer loop
      vertex 100 42.5 63
      vertex 94 42.5 13
      vertex 94 42.5 63
    endloop
  endfacet
  facet normal 0 1 -0
    outer loop
      vertex 100 42.5 9.5
      vertex 94 42.5 13
      vertex 100 42.5 63
    endloop
  endfacet
  facet normal 0 1 0
    outer loop
      vertex 81 42.5 9.5
      vertex 94 42.5 13
      vertex 100 42.5 9.5
    endloop
  endfacet
  facet normal 0 1 0
    outer loop
      vertex 94 42.5 13
      vertex 81 42.5 9.5
      vertex 81 42.5 13
    endloop
  endfacet
  facet normal -1 0 0
    outer loop
      vertex 94 27 13
      vertex 94 42.5 63
      vertex 94 42.5 13
    endloop
  endfacet
  facet normal -1 -0 0
    outer loop
      vertex 94 42.5 63
      vertex 94 27 13
      vertex 94 27 63
    endloop
  endfacet
  facet normal -0 0 1
    outer loop
      vertex 94 42.5 63
      vertex 100 27 63
      vertex 100 42.5 63
    endloop
  endfacet
  facet normal 0 0 1
    outer loop
      vertex 100 27 63
      vertex 94 42.5 63
      vertex 94 27 63
    endloop
  endfacet
  facet normal -1 0 0
    outer loop
      vertex 81 79 0
      vertex 81 69.5 9.5
      vertex 81 79 9.5
    endloop
  endfacet
  facet normal -1 0 0
    outer loop
      vertex 81 54 0
      vertex 81 69.5 9.5
      vertex 81 79 0
    endloop
  endfacet
  facet normal -1 0 0
    outer loop
      vertex 81 54 13
      vertex 81 69.5 9.5
      vertex 81 54 0
    endloop
  endfacet
  facet normal -1 0 0
    outer loop
      vertex 81 69.5 9.5
      vertex 81 54 13
      vertex 81 69.5 13
    endloop
  endfacet
  facet normal -0 0 1
    outer loop
      vertex 100 79 6
      vertex 106 54 6
      vertex 106 79 6
    endloop
  endfacet
  facet normal 0 0 1
    outer loop
      vertex 106 54 6
      vertex 100 79 6
      vertex 100 54 6
    endloop
  endfacet
  facet normal 1 -0 0
    outer loop
      vertex 106 54 6
      vertex 106 79 0
      vertex 106 79 6
    endloop
  endfacet
  facet normal 1 0 0
    outer loop
      vertex 106 79 0
      vertex 106 54 6
      vertex 106 54 0
    endloop
  endfacet
  facet normal 0 0 -1
    outer loop
      vertex 81 54 0
      vertex 106 79 0
      vertex 106 54 0
    endloop
  endfacet
  facet normal -0 0 -1
    outer loop
      vertex 106 79 0
      vertex 81 54 0
      vertex 81 79 0
    endloop
  endfacet
  facet normal 0 -1 0
    outer loop
      vertex 81 54 0
      vertex 94 54 13
      vertex 81 54 13
    endloop
  endfacet
  facet normal 0 -1 -0
    outer loop
      vertex 94 54 13
      vertex 81 54 0
      vertex 100 54 6
    endloop
  endfacet
  facet normal 0 -1 0
    outer loop
      vertex 106 54 0
      vertex 100 54 6
      vertex 81 54 0
    endloop
  endfacet
  facet normal 0 -1 0
    outer loop
      vertex 100 54 6
      vertex 106 54 0
      vertex 106 54 6
    endloop
  endfacet
  facet normal 0 -1 0
    outer loop
      vertex 94 54 13
      vertex 100 54 63
      vertex 94 54 63
    endloop
  endfacet
  facet normal 0 -1 -0
    outer loop
      vertex 100 54 63
      vertex 94 54 13
      vertex 100 54 6
    endloop
  endfacet
  facet normal 0 1 0
    outer loop
      vertex 106 79 6
      vertex 106 79 0
      vertex 100 79 6
    endloop
  endfacet
  facet normal 0 1 -0
    outer loop
      vertex 100 79 6
      vertex 81 79 9.5
      vertex 100 79 9.5
    endloop
  endfacet
  facet normal 0 1 0
    outer loop
      vertex 81 79 0
      vertex 100 79 6
      vertex 106 79 0
    endloop
  endfacet
  facet normal 0 1 0
    outer loop
      vertex 100 79 6
      vertex 81 79 0
      vertex 81 79 9.5
    endloop
  endfacet
  facet normal -0 0 1
    outer loop
      vertex 81 79 9.5
      vertex 100 69.5 9.5
      vertex 100 79 9.5
    endloop
  endfacet
  facet normal 0 0 1
    outer loop
      vertex 100 69.5 9.5
      vertex 81 79 9.5
      vertex 81 69.5 9.5
    endloop
  endfacet
  facet normal 1 0 0
    outer loop
      vertex 100 69.5 63
      vertex 100 54 63
      vertex 100 69.5 9.5
    endloop
  endfacet
  facet normal 1 -0 0
    outer loop
      vertex 100 69.5 9.5
      vertex 100 79 6
      vertex 100 79 9.5
    endloop
  endfacet
  facet normal 1 0 0
    outer loop
      vertex 100 69.5 9.5
      vertex 100 54 6
      vertex 100 79 6
    endloop
  endfacet
  facet normal 1 0 0
    outer loop
      vertex 100 54 6
      vertex 100 69.5 9.5
      vertex 100 54 63
    endloop
  endfacet
  facet normal -0 0 1
    outer loop
      vertex 81 69.5 13
      vertex 94 54 13
      vertex 94 69.5 13
    endloop
  endfacet
  facet normal 0 0 1
    outer loop
      vertex 94 54 13
      vertex 81 69.5 13
      vertex 81 54 13
    endloop
  endfacet
  facet normal 0 1 0
    outer loop
      vertex 100 69.5 63
      vertex 94 69.5 13
      vertex 94 69.5 63
    endloop
  endfacet
  facet normal 0 1 -0
    outer loop
      vertex 100 69.5 9.5
      vertex 94 69.5 13
      vertex 100 69.5 63
    endloop
  endfacet
  facet normal 0 1 0
    outer loop
      vertex 81 69.5 9.5
      vertex 94 69.5 13
      vertex 100 69.5 9.5
    endloop
  endfacet
  facet normal 0 1 0
    outer loop
      vertex 94 69.5 13
      vertex 81 69.5 9.5
      vertex 81 69.5 13
    endloop
  endfacet
  facet normal -1 0 0
    outer loop
      vertex 94 54 13
      vertex 94 69.5 63
      vertex 94 69.5 13
    endloop
  endfacet
  facet normal -1 -0 0
    outer loop
      vertex 94 69.5 63
      vertex 94 54 13
      vertex 94 54 63
    endloop
  endfacet
  facet normal -0 0 1
    outer loop
      vertex 94 69.5 63
      vertex 100 54 63
      vertex 100 69.5 63
    endloop
  endfacet
  facet normal 0 0 1
    outer loop
      vertex 100 54 63
      vertex 94 69.5 63
      vertex 94 54 63
    endloop
  endfacet
  facet normal -1 0 0
    outer loop
      vertex 81 106 0
      vertex 81 96.5 9.5
      vertex 81 106 9.5
    endloop
  endfacet
  facet normal -1 0 0
    outer loop
      vertex 81 81 0
      vertex 81 96.5 9.5
      vertex 81 106 0
    endloop
  endfacet
  facet normal -1 0 0
    outer loop
      vertex 81 81 13
      vertex 81 96.5 9.5
      vertex 81 81 0
    endloop
  endfacet
  facet normal -1 0 0
    outer loop
      vertex 81 96.5 9.5
      vertex 81 81 13
      vertex 81 96.5 13
    endloop
  endfacet
  facet normal -0 0 1
    outer loop
      vertex 100 106 6
      vertex 106 81 6
      vertex 106 106 6
    endloop
  endfacet
  facet normal 0 0 1
    outer loop
      vertex 106 81 6
      vertex 100 106 6
      vertex 100 81 6
    endloop
  endfacet
  facet normal 1 -0 0
    outer loop
      vertex 106 81 6
      vertex 106 106 0
      vertex 106 106 6
    endloop
  endfacet
  facet normal 1 0 0
    outer loop
      vertex 106 106 0
      vertex 106 81 6
      vertex 106 81 0
    endloop
  endfacet
  facet normal 0 0 -1
    outer loop
      vertex 81 81 0
      vertex 106 106 0
      vertex 106 81 0
    endloop
  endfacet
  facet normal -0 0 -1
    outer loop
      vertex 106 106 0
      vertex 81 81 0
      vertex 81 106 0
    endloop
  endfacet
  facet normal 0 -1 0
    outer loop
      vertex 81 81 0
      vertex 94 81 13
      vertex 81 81 13
    endloop
  endfacet
  facet normal 0 -1 -0
    outer loop
      vertex 94 81 13
      vertex 81 81 0
      vertex 100 81 6
    endloop
  endfacet
  facet normal 0 -1 0
    outer loop
      vertex 106 81 0
      vertex 100 81 6
      vertex 81 81 0
    endloop
  endfacet
  facet normal 0 -1 0
    outer loop
      vertex 100 81 6
      vertex 106 81 0
      vertex 106 81 6
    endloop
  endfacet
  facet normal 0 -1 0
    outer loop
      vertex 94 81 13
      vertex 100 81 63
      vertex 94 81 63
    endloop
  endfacet
  facet normal 0 -1 -0
    outer loop
      vertex 100 81 63
      vertex 94 81 13
      vertex 100 81 6
    endloop
  endfacet
  facet normal 0 1 0
    outer loop
      vertex 106 106 6
      vertex 106 106 0
      vertex 100 106 6
    endloop
  endfacet
  facet normal 0 1 -0
    outer loop
      vertex 100 106 6
      vertex 81 106 9.5
      vertex 100 106 9.5
    endloop
  endfacet
  facet normal 0 1 0
    outer loop
      vertex 81 106 0
      vertex 100 106 6
      vertex 106 106 0
    endloop
  endfacet
  facet normal 0 1 0
    outer loop
      vertex 100 106 6
      vertex 81 106 0
      vertex 81 106 9.5
    endloop
  endfacet
  facet normal -0 0 1
    outer loop
      vertex 81 106 9.5
      vertex 100 96.5 9.5
      vertex 100 106 9.5
    endloop
  endfacet
  facet normal 0 0 1
    outer loop
      vertex 100 96.5 9.5
      vertex 81 106 9.5
      vertex 81 96.5 9.5
    endloop
  endfacet
  facet normal 1 0 0
    outer loop
      vertex 100 96.5 63
      vertex 100 81 63
      vertex 100 96.5 9.5
    endloop
  endfacet
  facet normal 1 -0 0
    outer loop
      vertex 100 96.5 9.5
      vertex 100 106 6
      vertex 100 106 9.5
    endloop
  endfacet
  facet normal 1 0 0
    outer loop
      vertex 100 96.5 9.5
      vertex 100 81 6
      vertex 100 106 6
    endloop
  endfacet
  facet normal 1 0 0
    outer loop
      vertex 100 81 6
      vertex 100 96.5 9.5
      vertex 100 81 63
    endloop
  endfacet
  facet normal -0 0 1
    outer loop
      vertex 81 96.5 13
      vertex 94 81 13
      vertex 94 96.5 13
    endloop
  endfacet
  facet normal 0 0 1
    outer loop
      vertex 94 81 13
      vertex 81 96.5 13
      vertex 81 81 13
    endloop
  endfacet
  facet normal 0 1 0
    outer loop
      vertex 100 96.5 63
      vertex 94 96.5 13
      vertex 94 96.5 63
    endloop
  endfacet
  facet normal 0 1 -0
    outer loop
      vertex 100 96.5 9.5
      vertex 94 96.5 13
      vertex 100 96.5 63
    endloop
  endfacet
  facet normal 0 1 0
    outer loop
      vertex 81 96.5 9.5
      vertex 94 96.5 13
      vertex 100 96.5 9.5
    endloop
  endfacet
  facet normal 0 1 0
    outer loop
      vertex 94 96.5 13
      vertex 81 96.5 9.5
      vertex 81 96.5 13
    endloop
  endfacet
  facet normal -1 0 0
    outer loop
      vertex 94 81 13
      vertex 94 96.5 63
      vertex 94 96.5 13
    endloop
  endfacet
  facet normal -1 -0 0
    outer loop
      vertex 94 96.5 63
      vertex 94 81 13
      vertex 94 81 63
    endloop
  endfacet
  facet normal -0 0 1
    outer loop
      vertex 94 96.5 63
      vertex 100 81 63
      vertex 100 96.5 63
    endloop
  endfacet
  facet normal 0 0 1
    outer loop
      vertex 100 81 63
      vertex 94 96.5 63
      vertex 94 81 63
    endloop
  endfacet
endsolid OpenSCAD_Model
