solid OpenSCAD_Model
  facet normal -1 0 0
    outer loop
      vertex 0 25 0
      vertex 0 15.5 9.5
      vertex 0 25 9.5
    endloop
  endfacet
  facet normal -1 0 0
    outer loop
      vertex 0 0 0
      vertex 0 15.5 9.5
      vertex 0 25 0
    endloop
  endfacet
  facet normal -1 0 0
    outer loop
      vertex 0 0 13
      vertex 0 15.5 9.5
      vertex 0 0 0
    endloop
  endfacet
  facet normal -1 0 0
    outer loop
      vertex 0 15.5 9.5
      vertex 0 0 13
      vertex 0 15.5 13
    endloop
  endfacet
  facet normal -0 0 1
    outer loop
      vertex 19 25 6
      vertex 25 0 6
      vertex 25 25 6
    endloop
  endfacet
  facet normal 0 0 1
    outer loop
      vertex 25 0 6
      vertex 19 25 6
      vertex 19 0 6
    endloop
  endfacet
  facet normal 1 -0 0
    outer loop
      vertex 25 0 6
      vertex 25 25 0
      vertex 25 25 6
    endloop
  endfacet
  facet normal 1 0 0
    outer loop
      vertex 25 25 0
      vertex 25 0 6
      vertex 25 0 0
    endloop
  endfacet
  facet normal 0 0 -1
    outer loop
      vertex 0 0 0
      vertex 25 25 0
      vertex 25 0 0
    endloop
  endfacet
  facet normal -0 0 -1
    outer loop
      vertex 25 25 0
      vertex 0 0 0
      vertex 0 25 0
    endloop
  endfacet
  facet normal 0 -1 0
    outer loop
      vertex 0 0 0
      vertex 13 0 13
      vertex 0 0 13
    endloop
  endfacet
  facet normal 0 -1 -0
    outer loop
      vertex 13 0 13
      vertex 0 0 0
      vertex 19 0 6
    endloop
  endfacet
  facet normal 0 -1 0
    outer loop
      vertex 25 0 0
      vertex 19 0 6
      vertex 0 0 0
    endloop
  endfacet
  facet normal 0 -1 0
    outer loop
      vertex 19 0 6
      vertex 25 0 0
      vertex 25 0 6
    endloop
  endfacet
  facet normal 0 -1 0
    outer loop
      vertex 13 0 13
      vertex 19 0 63
      vertex 13 0 63
    endloop
  endfacet
  facet normal 0 -1 -0
    outer loop
      vertex 19 0 63
      vertex 13 0 13
      vertex 19 0 6
    endloop
  endfacet
  facet normal 0 1 0
    outer loop
      vertex 25 25 6
      vertex 25 25 0
      vertex 19 25 6
    endloop
  endfacet
  facet normal 0 1 -0
    outer loop
      vertex 19 25 6
      vertex 0 25 9.5
      vertex 19 25 9.5
    endloop
  endfacet
  facet normal 0 1 0
    outer loop
      vertex 0 25 0
      vertex 19 25 6
      vertex 25 25 0
    endloop
  endfacet
  facet normal 0 1 0
    outer loop
      vertex 19 25 6
      vertex 0 25 0
      vertex 0 25 9.5
    endloop
  endfacet
  facet normal -0 0 1
    outer loop
      vertex 0 25 9.5
      vertex 19 15.5 9.5
      vertex 19 25 9.5
    endloop
  endfacet
  facet normal 0 0 1
    outer loop
      vertex 19 15.5 9.5
      vertex 0 25 9.5
      vertex 0 15.5 9.5
    endloop
  endfacet
  facet normal 1 0 0
    outer loop
      vertex 19 15.5 63
      vertex 19 0 63
      vertex 19 15.5 9.5
    endloop
  endfacet
  facet normal 1 -0 0
    outer loop
      vertex 19 15.5 9.5
      vertex 19 25 6
      vertex 19 25 9.5
    endloop
  endfacet
  facet normal 1 0 0
    outer loop
      vertex 19 15.5 9.5
      vertex 19 0 6
      vertex 19 25 6
    endloop
  endfacet
  facet normal 1 0 0
    outer loop
      vertex 19 0 6
      vertex 19 15.5 9.5
      vertex 19 0 63
    endloop
  endfacet
  facet normal -0 0 1
    outer loop
      vertex 0 15.5 13
      vertex 13 0 13
      vertex 13 15.5 13
    endloop
  endfacet
  facet normal 0 0 1
    outer loop
      vertex 13 0 13
      vertex 0 15.5 13
      vertex 0 0 13
    endloop
  endfacet
  facet normal 0 1 0
    outer loop
      vertex 19 15.5 63
      vertex 13 15.5 13
      vertex 13 15.5 63
    endloop
  endfacet
  facet normal 0 1 -0
    outer loop
      vertex 19 15.5 9.5
      vertex 13 15.5 13
      vertex 19 15.5 63
    endloop
  endfacet
  facet normal 0 1 0
    outer loop
      vertex 0 15.5 9.5
      vertex 13 15.5 13
      vertex 19 15.5 9.5
    endloop
  endfacet
  facet normal 0 1 0
    outer loop
      vertex 13 15.5 13
      vertex 0 15.5 9.5
      vertex 0 15.5 13
    endloop
  endfacet
  facet normal -1 0 0
    outer loop
      vertex 13 0 13
      vertex 13 15.5 63
      vertex 13 15.5 13
    endloop
  endfacet
  facet normal -1 -0 0
    outer loop
      vertex 13 15.5 63
      vertex 13 0 13
      vertex 13 0 63
    endloop
  endfacet
  facet normal -0 0 1
    outer loop
      vertex 13 15.5 63
      vertex 19 0 63
      vertex 19 15.5 63
    endloop
  endfacet
  facet normal 0 0 1
    outer loop
      vertex 19 0 63
      vertex 13 15.5 63
      vertex 13 0 63
    endloop
  endfacet
endsolid OpenSCAD_Model
